<?xml version="1.0" encoding="UTF-8" standalone="no"?>
<!-- Created with Inkscape (http://www.inkscape.org/) -->

<svg
   xmlns:dc="http://purl.org/dc/elements/1.1/"
   xmlns:cc="http://creativecommons.org/ns#"
   xmlns:rdf="http://www.w3.org/1999/02/22-rdf-syntax-ns#"
   xmlns:svg="http://www.w3.org/2000/svg"
   xmlns="http://www.w3.org/2000/svg"
   xmlns:sodipodi="http://sodipodi.sourceforge.net/DTD/sodipodi-0.dtd"
   xmlns:inkscape="http://www.inkscape.org/namespaces/inkscape"
   width="84.708221mm"
   height="99.16272mm"
   viewBox="0 0 84.708221 99.16272"
   version="1.1"
   id="svg45066"
   inkscape:version="0.92.5 (0.92.5+68)"
   sodipodi:docname="distanza.svg">
  <defs
     id="defs45060" />
  <sodipodi:namedview
     id="base"
     pagecolor="#ffffff"
     bordercolor="#666666"
     borderopacity="1.0"
     inkscape:pageopacity="0.0"
     inkscape:pageshadow="2"
     inkscape:zoom="0.35"
     inkscape:cx="-384.20718"
     inkscape:cy="190.25124"
     inkscape:document-units="mm"
     inkscape:current-layer="layer1"
     showgrid="false"
     fit-margin-top="0"
     fit-margin-left="0"
     fit-margin-right="0"
     fit-margin-bottom="0"
     inkscape:window-width="1920"
     inkscape:window-height="1053"
     inkscape:window-x="0"
     inkscape:window-y="0"
     inkscape:window-maximized="1" />
  <metadata
     id="metadata45063">
    <rdf:RDF>
      <cc:Work
         rdf:about="">
        <dc:format>image/svg+xml</dc:format>
        <dc:type
           rdf:resource="http://purl.org/dc/dcmitype/StillImage" />
        <dc:title></dc:title>
      </cc:Work>
    </rdf:RDF>
  </metadata>
  <g
     inkscape:label="Livello 1"
     inkscape:groupmode="layer"
     id="layer1"
     transform="translate(-69.526841,-100.00792)">
    <path
       inkscape:connector-curvature="0"
       id="path2859"
       d="m 75.668917,165.27154 c -1.80369,-0.0181 -2.73244,1.96813 -2.86407,3.09427 -0.14552,1.24571 0.85386,2.55415 2.84121,2.54436 1.87577,-0.009 2.89558,-1.29424 2.81786,-2.46581 -0.0749,-1.12991 -1.19803,-3.1574 -2.795,-3.17282 z m 0.009,6.91594 c -1.4645,0 -3.00454,1.47198 -3.97283,2.99483 -1.31729,2.07183 -2.78241,9.73289 -1.91984,10.64681 0.30775,0.32607 1.14547,0.80356 1.25167,0.33774 0.16761,-0.73448 0.0967,-1.13211 0.45868,-1.11307 0.14698,0.007 0.26515,0.4344 0.33509,1.32928 0.0398,0.50974 0.17793,3.02838 0.17793,5.8398 0,3.18037 0.1763,5.19354 0.48931,5.58856 0.65565,0.82746 1.52503,0.7814 1.79149,-0.0948 0.1191,-0.39178 0.3427,-3.11251 0.49684,-6.04592 0.22282,-4.24064 0.29118,-5.04061 0.77743,-5.04061 0.48819,0 0.78587,0.84167 1.02313,5.33049 0.14915,2.82263 0.30647,4.56457 0.55887,5.51321 0.27798,1.04481 1.321,0.8955 1.69528,0.24113 0.28867,-0.50473 0.32378,-1.10608 0.41823,-5.31182 0.0697,-3.10242 0.0916,-5.66077 0.1296,-6.13781 0.0577,-0.72217 0.20153,-1.21595 0.4416,-1.20262 0.488,0.0272 0.31694,0.37638 0.50212,1.10751 0.11584,0.45732 1.04098,-0.0444 1.23813,-0.34096 0.78563,-1.18201 -1.02574,-8.87933 -1.91986,-10.4027 -0.90926,-1.54922 -2.50829,-3.23896 -3.97281,-3.23896 z"
       style="display:inline;fill:#7d14a6;fill-opacity:1;stroke-width:0.99999994" />
    <path
       style="display:inline;fill:#7d14a6;fill-opacity:1;stroke-width:0.99999994"
       d="m 110.70611,166.03818 c -1.80369,-0.0181 -2.73246,1.96815 -2.86408,3.09425 -0.14553,1.24571 0.85387,2.55416 2.84122,2.54436 1.87575,-0.009 2.89558,-1.29421 2.81786,-2.46578 -0.0749,-1.1299 -1.19805,-3.1574 -2.795,-3.17283 z m 0.009,6.91594 c -1.4645,0 -3.00454,1.47199 -3.97284,2.99481 -1.3173,2.07185 -2.7824,9.73291 -1.91984,10.64684 0.30776,0.32604 1.14546,0.80355 1.25168,0.33773 0.16761,-0.73447 0.0966,-1.13211 0.45868,-1.11306 0.14697,0.007 0.26515,0.43437 0.33507,1.32929 0.04,0.50973 0.17793,3.02835 0.17793,5.83978 0,3.18037 0.1763,5.19354 0.48933,5.58856 0.65563,0.82748 1.52501,0.7814 1.79148,-0.0948 0.11911,-0.3918 0.3427,-3.11252 0.49684,-6.04593 0.22282,-4.24062 0.29119,-5.04061 0.77743,-5.04061 0.4882,0 0.78585,0.84167 1.02311,5.33047 0.14934,2.82266 0.30649,4.56459 0.55889,5.51323 0.27796,1.0448 1.32099,0.8955 1.69527,0.24112 0.28866,-0.5047 0.3238,-1.10608 0.41823,-5.31183 0.0697,-3.10239 0.0916,-5.66074 0.1296,-6.13778 0.0577,-0.72217 0.20151,-1.21595 0.44159,-1.20261 0.488,0.0272 0.31695,0.37634 0.50213,1.10749 0.11585,0.45733 1.04097,-0.0444 1.23813,-0.34098 0.7856,-1.18199 -1.02576,-8.87931 -1.91987,-10.40268 -0.90927,-1.54921 -2.5083,-3.23896 -3.9728,-3.23896 z"
       id="path2861"
       inkscape:connector-curvature="0" />
    <path
       inkscape:connector-curvature="0"
       id="path2863"
       d="m 148.14054,165.97556 c -1.80369,-0.0181 -2.73246,1.96813 -2.86407,3.09425 -0.14553,1.24571 0.85385,2.55415 2.84121,2.54436 1.87576,-0.009 2.89558,-1.29422 2.81785,-2.46579 -0.0749,-1.1299 -1.19803,-3.15742 -2.79499,-3.17282 z m 0.009,6.91594 c -1.46451,0 -3.00455,1.47196 -3.97283,2.9948 -1.31731,2.07185 -2.78242,9.7329 -1.91984,10.64682 0.30774,0.32606 1.14545,0.80357 1.25166,0.33776 0.16761,-0.7345 0.0967,-1.13211 0.45868,-1.11309 0.14698,0.007 0.26516,0.43439 0.3351,1.3293 0.0398,0.50972 0.17792,3.02836 0.17792,5.83978 0,3.18037 0.1763,5.19355 0.48933,5.58858 0.65565,0.82746 1.52504,0.78139 1.79147,-0.0948 0.1191,-0.39178 0.34272,-3.11251 0.49686,-6.04591 0.22282,-4.24064 0.29118,-5.0406 0.77743,-5.0406 0.48819,0 0.78587,0.84165 1.02311,5.33046 0.14933,2.82264 0.3065,4.56459 0.55889,5.51323 0.27798,1.0448 1.321,0.8955 1.69527,0.24112 0.28868,-0.5047 0.32379,-1.10608 0.41824,-5.31183 0.0697,-3.10239 0.0916,-5.66076 0.1296,-6.1378 0.0577,-0.72217 0.20153,-1.21595 0.44162,-1.20261 0.488,0.0272 0.31694,0.37636 0.50212,1.10749 0.11584,0.45733 1.04096,-0.0443 1.23811,-0.34095 0.78563,-1.18202 -1.02572,-8.87932 -1.91985,-10.40269 -0.90927,-1.54923 -2.5083,-3.23896 -3.9728,-3.23896 z"
       style="display:inline;fill:#7d14a6;fill-opacity:1;stroke-width:0.99999994" />
    <rect
       transform="scale(-1,1)"
       y="110.63512"
       x="-120.95457"
       height="38.704285"
       width="47.880863"
       id="rect2422"
       style="display:inline;opacity:1;vector-effect:none;fill:#763eb8;fill-opacity:1;stroke:none;stroke-width:1.49999976;stroke-linecap:butt;stroke-linejoin:miter;stroke-miterlimit:4;stroke-dasharray:none;stroke-dashoffset:0;stroke-opacity:1;paint-order:fill markers stroke" />
    <path
       sodipodi:nodetypes="ccccccscsccccc"
       inkscape:connector-curvature="0"
       id="path2424"
       d="m 112.13439,131.51814 c 2.96477,-4.39643 3.40948,-6.67316 2.07534,-7.53674 -1.33414,-0.86358 -3.40947,0.47105 -4.37302,1.88418 -0.96354,1.41314 -1.26003,2.04121 -1.26003,2.04121 0,0 1.03767,-1.9627 0.22237,-3.92539 -0.81532,-1.96269 -2.74241,-1.57015 -3.78007,-0.23552 -1.03767,1.33463 -1.48239,4.63195 -1.48239,5.73106 0,1.09911 0.74119,-2.19822 -0.74118,-3.45434 -1.48238,-1.25612 -2.839943,-1.52501 -3.928312,-0.54955 -1.92377,1.72418 -1.630622,3.37583 -0.222351,5.88807 1.408253,2.51225 2.964753,4.94599 2.964753,4.94599 l 10.22842,-3.61136 0.51883,-1.57015 z"
       style="display:inline;opacity:1;vector-effect:none;fill:#6837a3;fill-opacity:1;stroke:none;stroke-width:1.50000024;stroke-linecap:butt;stroke-linejoin:miter;stroke-miterlimit:4;stroke-dasharray:none;stroke-dashoffset:0;stroke-opacity:1;paint-order:fill markers stroke" />
    <path
       inkscape:connector-curvature="0"
       id="path2426"
       d="m 118.06391,140.54652 0.14824,-8.79286 h -17.41796 l -0.22236,9.42092 z"
       style="display:inline;opacity:1;vector-effect:none;fill:#8b57c6;fill-opacity:1;stroke:none;stroke-width:1.50000024;stroke-linecap:butt;stroke-linejoin:miter;stroke-miterlimit:4;stroke-dasharray:none;stroke-dashoffset:0;stroke-opacity:1;paint-order:fill markers stroke" />
    <rect
       transform="scale(-1,1)"
       y="101.29271"
       x="-148.30446"
       height="9.1853971"
       width="75.527245"
       id="rect2428"
       style="display:inline;opacity:1;vector-effect:none;fill:#c0a3e0;fill-opacity:1;stroke:none;stroke-width:1.50000024;stroke-linecap:butt;stroke-linejoin:miter;stroke-miterlimit:4;stroke-dasharray:none;stroke-dashoffset:0;stroke-opacity:1;paint-order:fill markers stroke" />
    <rect
       transform="scale(-1,1)"
       y="110.55659"
       x="-148.1562"
       height="47.261612"
       width="26.831074"
       id="rect2430"
       style="display:inline;opacity:1;vector-effect:none;fill:#9669cb;fill-opacity:1;stroke:none;stroke-width:1.50000024;stroke-linecap:butt;stroke-linejoin:miter;stroke-miterlimit:4;stroke-dasharray:none;stroke-dashoffset:0;stroke-opacity:1;paint-order:fill markers stroke" />
    <rect
       transform="scale(-1,1)"
       y="149.65343"
       x="-121.02867"
       height="7.9292746"
       width="47.584385"
       id="rect2432"
       style="display:inline;opacity:1;vector-effect:none;fill:#c3a8e1;fill-opacity:1;stroke:none;stroke-width:1.50000024;stroke-linecap:butt;stroke-linejoin:miter;stroke-miterlimit:4;stroke-dasharray:none;stroke-dashoffset:0;stroke-opacity:1;paint-order:fill markers stroke" />
    <rect
       style="display:inline;opacity:1;vector-effect:none;fill:#ffffff;fill-opacity:1;stroke:none;stroke-width:1.50000024;stroke-linecap:butt;stroke-linejoin:miter;stroke-miterlimit:4;stroke-dasharray:none;stroke-dashoffset:0;stroke-opacity:1;paint-order:fill markers stroke"
       id="rect2434"
       width="74.415459"
       height="2.8262761"
       x="-147.85974"
       y="158.05376"
       transform="scale(-1,1)" />
    <path
       sodipodi:nodetypes="ccccccccccccccccccccccccccccccc"
       inkscape:connector-curvature="0"
       id="path2439"
       d="m 149.02595,100.48338 0.41928,62.61756 -76.948623,-0.88821 -0.83856,-60.63479 1.0482,-1.42764 z m -1.23029,1.52296 H 73.621547 l 0.10482,7.60136 H 147.4812 Z m -0.62892,9.56843 h -24.27048 l -0.41928,45.49656 24.68976,-0.22206 z m -26.96773,0 H 74.355287 l -0.41928,36.37223 46.682283,0.44411 z m 0,38.56136 -45.948533,-0.11103 -0.10483,6.38007 h 46.158183 z m 26.96773,8.56919 H 74.355287 v 1.42931 h 72.811453 z"
       style="color:#000000;font-style:normal;font-variant:normal;font-weight:normal;font-stretch:normal;font-size:medium;line-height:normal;font-family:sans-serif;font-variant-ligatures:normal;font-variant-position:normal;font-variant-caps:normal;font-variant-numeric:normal;font-variant-alternates:normal;font-feature-settings:normal;text-indent:0;text-align:start;text-decoration:none;text-decoration-line:none;text-decoration-style:solid;text-decoration-color:#000000;letter-spacing:normal;word-spacing:normal;text-transform:none;writing-mode:lr-tb;direction:ltr;text-orientation:mixed;dominant-baseline:auto;baseline-shift:baseline;text-anchor:start;white-space:normal;shape-padding:0;clip-rule:nonzero;display:inline;overflow:visible;visibility:visible;opacity:1;isolation:auto;mix-blend-mode:normal;color-interpolation:sRGB;color-interpolation-filters:linearRGB;solid-color:#000000;solid-opacity:1;vector-effect:none;fill:#e2d5f0;fill-opacity:1;fill-rule:nonzero;stroke:none;stroke-width:2.64583373;stroke-linecap:butt;stroke-linejoin:miter;stroke-miterlimit:4;stroke-dasharray:none;stroke-dashoffset:0;stroke-opacity:1;paint-order:fill markers stroke;color-rendering:auto;image-rendering:auto;shape-rendering:auto;text-rendering:auto;enable-background:accumulate" />
    <path
       inkscape:connector-curvature="0"
       id="path2441"
       d="m 89.379867,137.95577 c -0.29648,0.31402 -0.66707,11.06958 -0.66707,11.06958 l -15.04616,-0.23553 0.0741,-12.16869 z"
       style="display:inline;opacity:1;vector-effect:none;fill:#9669cb;fill-opacity:1;stroke:none;stroke-width:1.50000024;stroke-linecap:butt;stroke-linejoin:miter;stroke-miterlimit:4;stroke-dasharray:none;stroke-dashoffset:0;stroke-opacity:1;paint-order:fill markers stroke" />
    <path
       inkscape:connector-curvature="0"
       id="path2443"
       d="m 120.80632,140.07547 0.14824,8.63584 h -16.08382 l -0.59295,-9.02838 z"
       style="display:inline;opacity:1;vector-effect:none;fill:#ac88d5;fill-opacity:1;stroke:none;stroke-width:1.50000024;stroke-linecap:butt;stroke-linejoin:miter;stroke-miterlimit:4;stroke-dasharray:none;stroke-dashoffset:0;stroke-opacity:1;paint-order:fill markers stroke" />
    <path
       inkscape:connector-curvature="0"
       id="path2446"
       d="m 105.24133,136.46412 -0.0741,12.63974 -16.602651,-0.23553 -0.22235,-12.3257 z"
       style="display:inline;opacity:1;vector-effect:none;fill:#c6ade3;fill-opacity:1;stroke:none;stroke-width:1.50000024;stroke-linecap:butt;stroke-linejoin:miter;stroke-miterlimit:4;stroke-dasharray:none;stroke-dashoffset:0;stroke-opacity:1;paint-order:fill markers stroke" />
    <path
       inkscape:connector-curvature="0"
       id="path2448"
       d="m 144.4079,117.66893 v 36.55981 l -19.01852,-0.10686 -0.32653,-36.66307 z"
       style="display:inline;opacity:1;vector-effect:none;fill:#d5c1ea;fill-opacity:1;stroke:none;stroke-width:1.50000024;stroke-linecap:butt;stroke-linejoin:miter;stroke-miterlimit:4;stroke-dasharray:none;stroke-dashoffset:0;stroke-opacity:1;paint-order:fill markers stroke"
       sodipodi:nodetypes="ccccc" />
    <ellipse
       ry="2.0964553"
       rx="1.9792608"
       cy="136.48506"
       cx="84.82518"
       id="circle2450"
       style="display:inline;opacity:1;vector-effect:none;fill:#8955c5;fill-opacity:1;stroke:none;stroke-width:1.50000012;stroke-linecap:butt;stroke-linejoin:miter;stroke-miterlimit:4;stroke-dasharray:none;stroke-dashoffset:0;stroke-opacity:1;paint-order:fill markers stroke" />
    <path
       style="display:inline;opacity:1;vector-effect:none;fill:#6938a4;fill-opacity:1;stroke:none;stroke-width:1.50000012;stroke-linecap:butt;stroke-linejoin:miter;stroke-miterlimit:4;stroke-dasharray:none;stroke-dashoffset:0;stroke-opacity:1;paint-order:fill markers stroke"
       d="m 81.250507,130.45658 c -0.20049,-2.41593 0.0802,-3.47016 1.644,-4.43654 1.5638,-0.96637 0.64155,2.15238 0.64155,2.15238 0,0 1.40341,-2.81127 3.04741,-2.41593 1.64399,0.39533 -0.76185,3.8655 -0.76185,3.8655 0,0 1.28311,-0.92245 2.52613,-0.79067 1.24303,0.13177 -0.64155,3.25053 -1.92467,3.68979 -1.28312,0.43926 -4.17014,0.65889 -4.08994,0.48319 0.0802,-0.1757 -1.08263,-2.54772 -1.08263,-2.54772 z"
       id="path2452"
       inkscape:connector-curvature="0" />
    <ellipse
       ry="1.8072892"
       rx="1.7062594"
       style="display:inline;opacity:1;vector-effect:none;fill:#8955c5;fill-opacity:1;stroke:none;stroke-width:1.50000012;stroke-linecap:butt;stroke-linejoin:miter;stroke-miterlimit:4;stroke-dasharray:none;stroke-dashoffset:0;stroke-opacity:1;paint-order:fill markers stroke"
       id="circle2454"
       cx="77.385895"
       cy="139.62975" />
    <ellipse
       ry="2.1687474"
       rx="2.0475113"
       style="display:inline;opacity:1;vector-effect:none;fill:#8955c5;fill-opacity:1;stroke:none;stroke-width:1.50000012;stroke-linecap:butt;stroke-linejoin:miter;stroke-miterlimit:4;stroke-dasharray:none;stroke-dashoffset:0;stroke-opacity:1;paint-order:fill markers stroke"
       id="circle2456"
       cx="80.15004"
       cy="138.54536" />
    <ellipse
       ry="2.2771845"
       rx="2.1498868"
       style="display:inline;opacity:1;vector-effect:none;fill:#8955c5;fill-opacity:1;stroke:none;stroke-width:1.50000012;stroke-linecap:butt;stroke-linejoin:miter;stroke-miterlimit:4;stroke-dasharray:none;stroke-dashoffset:0;stroke-opacity:1;paint-order:fill markers stroke"
       id="circle2458"
       cx="79.296906"
       cy="135.18379" />
    <ellipse
       ry="1.6988518"
       rx="1.6038837"
       style="display:inline;opacity:1;vector-effect:none;fill:#8955c5;fill-opacity:1;stroke:none;stroke-width:1.50000012;stroke-linecap:butt;stroke-linejoin:miter;stroke-miterlimit:4;stroke-dasharray:none;stroke-dashoffset:0;stroke-opacity:1;paint-order:fill markers stroke"
       id="circle2460"
       cx="77.078766"
       cy="137.17183" />
    <ellipse
       ry="2.2048929"
       rx="2.0816364"
       style="display:inline;opacity:1;vector-effect:none;fill:#8955c5;fill-opacity:1;stroke:none;stroke-width:1.50000012;stroke-linecap:butt;stroke-linejoin:miter;stroke-miterlimit:4;stroke-dasharray:none;stroke-dashoffset:0;stroke-opacity:1;paint-order:fill markers stroke"
       id="circle2462"
       cx="82.163406"
       cy="136.41277" />
    <ellipse
       ry="2.024164"
       rx="1.9110105"
       style="display:inline;opacity:1;vector-effect:none;fill:#8955c5;fill-opacity:1;stroke:none;stroke-width:1.50000012;stroke-linecap:butt;stroke-linejoin:miter;stroke-miterlimit:4;stroke-dasharray:none;stroke-dashoffset:0;stroke-opacity:1;paint-order:fill markers stroke"
       id="circle2464"
       cx="79.467529"
       cy="133.34038" />
    <ellipse
       ry="1.9518723"
       rx="1.8427601"
       style="display:inline;opacity:1;vector-effect:none;fill:#8955c5;fill-opacity:1;stroke:none;stroke-width:1.50000012;stroke-linecap:butt;stroke-linejoin:miter;stroke-miterlimit:4;stroke-dasharray:none;stroke-dashoffset:0;stroke-opacity:1;paint-order:fill markers stroke"
       id="circle2466"
       cx="80.764297"
       cy="131.02702" />
    <ellipse
       ry="2.0964553"
       rx="1.9792608"
       style="display:inline;opacity:1;vector-effect:none;fill:#8955c5;fill-opacity:1;stroke:none;stroke-width:1.50000012;stroke-linecap:butt;stroke-linejoin:miter;stroke-miterlimit:4;stroke-dasharray:none;stroke-dashoffset:0;stroke-opacity:1;paint-order:fill markers stroke"
       id="circle2468"
       cx="84.108551"
       cy="134.42473" />
    <ellipse
       ry="1.988018"
       rx="1.8768853"
       style="display:inline;opacity:1;vector-effect:none;fill:#c3a9e2;fill-opacity:1;stroke:none;stroke-width:1.50000012;stroke-linecap:butt;stroke-linejoin:miter;stroke-miterlimit:4;stroke-dasharray:none;stroke-dashoffset:0;stroke-opacity:1;paint-order:fill markers stroke"
       id="circle2470"
       cx="83.221298"
       cy="131.56923" />
    <ellipse
       ry="1.9518723"
       rx="1.8427601"
       cy="131.67766"
       cx="78.61441"
       id="circle2472"
       style="display:inline;opacity:1;vector-effect:none;fill:#8955c5;fill-opacity:1;stroke:none;stroke-width:1.50000012;stroke-linecap:butt;stroke-linejoin:miter;stroke-miterlimit:4;stroke-dasharray:none;stroke-dashoffset:0;stroke-opacity:1;paint-order:fill markers stroke" />
    <ellipse
       ry="1.879581"
       rx="1.7745099"
       style="display:inline;opacity:1;vector-effect:none;fill:#a67fd3;fill-opacity:1;stroke:none;stroke-width:1.50000012;stroke-linecap:butt;stroke-linejoin:miter;stroke-miterlimit:4;stroke-dasharray:none;stroke-dashoffset:0;stroke-opacity:1;paint-order:fill markers stroke"
       id="circle2474"
       cx="80.866653"
       cy="133.5211" />
    <ellipse
       ry="1.879581"
       rx="1.7745099"
       cy="135.87056"
       cx="81.549149"
       id="circle2476"
       style="display:inline;opacity:1;vector-effect:none;fill:#a67fd3;fill-opacity:1;stroke:none;stroke-width:1.50000012;stroke-linecap:butt;stroke-linejoin:miter;stroke-miterlimit:4;stroke-dasharray:none;stroke-dashoffset:0;stroke-opacity:1;paint-order:fill markers stroke" />
    <ellipse
       ry="1.481977"
       rx="1.3991325"
       cy="137.714"
       cx="78.000122"
       id="circle2478"
       style="display:inline;opacity:1;vector-effect:none;fill:#a67fd3;fill-opacity:1;stroke:none;stroke-width:1.50000012;stroke-linecap:butt;stroke-linejoin:miter;stroke-miterlimit:4;stroke-dasharray:none;stroke-dashoffset:0;stroke-opacity:1;paint-order:fill markers stroke" />
    <ellipse
       ry="1.8976536"
       rx="1.7915722"
       cy="136.43083"
       cx="80.132965"
       id="circle2480"
       style="display:inline;opacity:1;vector-effect:none;fill:#c3a9e2;fill-opacity:1;stroke:none;stroke-width:1.50000012;stroke-linecap:butt;stroke-linejoin:miter;stroke-miterlimit:4;stroke-dasharray:none;stroke-dashoffset:0;stroke-opacity:1;paint-order:fill markers stroke" />
    <ellipse
       cy="132.14757"
       cx="80.013535"
       id="ellipse2482"
       style="display:inline;opacity:1;vector-effect:none;fill:#a67fd3;fill-opacity:1;stroke:none;stroke-width:1.50000012;stroke-linecap:butt;stroke-linejoin:miter;stroke-miterlimit:4;stroke-dasharray:none;stroke-dashoffset:0;stroke-opacity:1;paint-order:fill markers stroke"
       rx="1.3650076"
       ry="1.3735399" />
    <path
       sodipodi:nodetypes="cscccscccccsccccccsccc"
       inkscape:connector-curvature="0"
       id="path2486"
       d="m 102.55401,131.15607 c 10e-4,2.6e-4 0.002,7.9e-4 0.003,0.001 0.5618,0.18979 1.1012,0.55899 1.44018,1.12743 0.33897,0.56843 0.47308,1.33584 0.22924,2.3023 -0.68308,2.71036 -2.46319,3.63733 -3.19863,3.90884 -0.19627,0.0724 -0.41218,0.0685 -0.63887,-0.008 -0.52182,-0.17629 -0.9484,-0.68216 -0.97611,-0.71538 l -0.0021,-0.002 -7.93e-4,-0.002 c -5.3e-4,-7.9e-4 -2.12e-4,5e-5 -0.006,-0.005 -0.005,-0.005 -0.01349,-0.0131 -0.02479,-0.0218 -0.0226,-0.0174 -0.0567,-0.0387 -0.10314,-0.0544 -0.0616,-0.0208 -0.131752,-0.0268 -0.20861,-0.0162 -0.099,0.0246 -0.648902,0.15091 -1.133592,-0.0126 -0.226698,-0.0766 -0.409779,-0.20742 -0.54002,-0.39016 -0.394837,-0.55346 -1.281128,-2.07532 -1.01636,-4.27397 l 0.0387,-0.32096 c 0.39941,-1.6958 0.791692,-2.44441 1.98488,-2.63353 0.377611,-0.0601 0.793182,-0.0176 1.20332,0.12095 0.416165,0.14059 0.773155,0.38918 1.028585,0.64763 0.69243,0.70723 1.27066,-0.13005 1.92011,0.34762 z"
       style="color:#000000;font-style:normal;font-variant:normal;font-weight:normal;font-stretch:normal;font-size:medium;line-height:normal;font-family:sans-serif;font-variant-ligatures:normal;font-variant-position:normal;font-variant-caps:normal;font-variant-numeric:normal;font-variant-alternates:normal;font-feature-settings:normal;text-indent:0;text-align:start;text-decoration:none;text-decoration-line:none;text-decoration-style:solid;text-decoration-color:#000000;letter-spacing:normal;word-spacing:normal;text-transform:none;writing-mode:lr-tb;direction:ltr;text-orientation:mixed;dominant-baseline:auto;baseline-shift:baseline;text-anchor:start;white-space:normal;shape-padding:0;clip-rule:nonzero;display:inline;overflow:visible;visibility:visible;opacity:1;isolation:auto;mix-blend-mode:normal;color-interpolation:sRGB;color-interpolation-filters:linearRGB;solid-color:#000000;solid-opacity:1;vector-effect:none;fill:#af8cd7;fill-opacity:1;fill-rule:nonzero;stroke:none;stroke-width:0.26458329;stroke-linecap:butt;stroke-linejoin:miter;stroke-miterlimit:4;stroke-dasharray:none;stroke-dashoffset:0;stroke-opacity:1;color-rendering:auto;image-rendering:auto;shape-rendering:auto;text-rendering:auto;enable-background:accumulate" />
    <path
       inkscape:connector-curvature="0"
       id="path2488"
       d="m 103.36052,127.87491 c 0.20131,3.19768 -1.54883,3.71796 -2.8255,3.6639 -0.18281,-2.61393 2.11478,-3.60827 2.8255,-3.6639 z"
       style="display:inline;opacity:1;vector-effect:none;fill:#8f5dc8;fill-opacity:1;stroke:none;stroke-width:1.49999988;stroke-linecap:butt;stroke-linejoin:miter;stroke-miterlimit:4;stroke-dasharray:none;stroke-dashoffset:0;stroke-opacity:1;paint-order:fill markers stroke" />
    <ellipse
       ry="2.0964553"
       rx="1.9792608"
       transform="scale(-1,1)"
       style="display:inline;opacity:1;vector-effect:none;fill:#8955c5;fill-opacity:1;stroke:none;stroke-width:1.50000012;stroke-linecap:butt;stroke-linejoin:miter;stroke-miterlimit:4;stroke-dasharray:none;stroke-dashoffset:0;stroke-opacity:1;paint-order:fill markers stroke"
       id="circle2492"
       cx="-77.847672"
       cy="143.94328" />
    <path
       inkscape:connector-curvature="0"
       id="path2494"
       d="m 81.422337,137.91481 c 0.20049,-2.41593 -0.0802,-3.47016 -1.644,-4.43654 -1.5638,-0.96637 -0.64155,2.15238 -0.64155,2.15238 0,0 -1.40341,-2.81127 -3.04742,-2.41593 -1.64398,0.39533 0.76186,3.8655 0.76186,3.8655 0,0 -1.28311,-0.92245 -2.52614,-0.79067 -1.24302,0.13177 0.64156,3.25053 1.92468,3.68979 1.28312,0.43926 4.17014,0.65889 4.08993,0.48319 -0.0802,-0.1757 1.08264,-2.54772 1.08264,-2.54772 z"
       style="display:inline;opacity:1;vector-effect:none;fill:#6837a1;fill-opacity:1;stroke:none;stroke-width:1.50000012;stroke-linecap:butt;stroke-linejoin:miter;stroke-miterlimit:4;stroke-dasharray:none;stroke-dashoffset:0;stroke-opacity:1;paint-order:fill markers stroke" />
    <ellipse
       ry="1.8072892"
       rx="1.7062594"
       transform="scale(-1,1)"
       cy="147.08797"
       cx="-85.286942"
       id="circle2496"
       style="display:inline;opacity:1;vector-effect:none;fill:#8955c5;fill-opacity:1;stroke:none;stroke-width:1.50000012;stroke-linecap:butt;stroke-linejoin:miter;stroke-miterlimit:4;stroke-dasharray:none;stroke-dashoffset:0;stroke-opacity:1;paint-order:fill markers stroke" />
    <ellipse
       ry="2.1687474"
       rx="2.0475113"
       transform="scale(-1,1)"
       cy="146.00359"
       cx="-82.522812"
       id="circle2498"
       style="display:inline;opacity:1;vector-effect:none;fill:#8955c5;fill-opacity:1;stroke:none;stroke-width:1.50000012;stroke-linecap:butt;stroke-linejoin:miter;stroke-miterlimit:4;stroke-dasharray:none;stroke-dashoffset:0;stroke-opacity:1;paint-order:fill markers stroke" />
    <ellipse
       ry="2.2771845"
       rx="2.1498868"
       transform="scale(-1,1)"
       cy="142.64204"
       cx="-83.375946"
       id="circle2500"
       style="display:inline;opacity:1;vector-effect:none;fill:#8955c5;fill-opacity:1;stroke:none;stroke-width:1.50000012;stroke-linecap:butt;stroke-linejoin:miter;stroke-miterlimit:4;stroke-dasharray:none;stroke-dashoffset:0;stroke-opacity:1;paint-order:fill markers stroke" />
    <ellipse
       ry="1.6988518"
       rx="1.6038837"
       transform="scale(-1,1)"
       cy="144.63005"
       cx="-85.594086"
       id="circle2502"
       style="display:inline;opacity:1;vector-effect:none;fill:#8955c5;fill-opacity:1;stroke:none;stroke-width:1.50000012;stroke-linecap:butt;stroke-linejoin:miter;stroke-miterlimit:4;stroke-dasharray:none;stroke-dashoffset:0;stroke-opacity:1;paint-order:fill markers stroke" />
    <ellipse
       ry="2.2048929"
       rx="2.0816364"
       transform="scale(-1,1)"
       cy="143.87099"
       cx="-80.509445"
       id="circle2504"
       style="display:inline;opacity:1;vector-effect:none;fill:#8955c5;fill-opacity:1;stroke:none;stroke-width:1.50000012;stroke-linecap:butt;stroke-linejoin:miter;stroke-miterlimit:4;stroke-dasharray:none;stroke-dashoffset:0;stroke-opacity:1;paint-order:fill markers stroke" />
    <ellipse
       ry="2.024164"
       rx="1.9110105"
       transform="scale(-1,1)"
       cy="140.7986"
       cx="-83.205307"
       id="circle2506"
       style="display:inline;opacity:1;vector-effect:none;fill:#8955c5;fill-opacity:1;stroke:none;stroke-width:1.50000012;stroke-linecap:butt;stroke-linejoin:miter;stroke-miterlimit:4;stroke-dasharray:none;stroke-dashoffset:0;stroke-opacity:1;paint-order:fill markers stroke" />
    <ellipse
       ry="1.9518723"
       rx="1.8427601"
       transform="scale(-1,1)"
       cy="138.48528"
       cx="-81.908539"
       id="circle2508"
       style="display:inline;opacity:1;vector-effect:none;fill:#8955c5;fill-opacity:1;stroke:none;stroke-width:1.50000012;stroke-linecap:butt;stroke-linejoin:miter;stroke-miterlimit:4;stroke-dasharray:none;stroke-dashoffset:0;stroke-opacity:1;paint-order:fill markers stroke" />
    <ellipse
       ry="2.0964553"
       rx="1.9792608"
       transform="scale(-1,1)"
       cy="141.88298"
       cx="-78.564285"
       id="circle2510"
       style="display:inline;opacity:1;vector-effect:none;fill:#8955c5;fill-opacity:1;stroke:none;stroke-width:1.50000012;stroke-linecap:butt;stroke-linejoin:miter;stroke-miterlimit:4;stroke-dasharray:none;stroke-dashoffset:0;stroke-opacity:1;paint-order:fill markers stroke" />
    <ellipse
       ry="1.988018"
       rx="1.8768853"
       transform="scale(-1,1)"
       cy="139.02745"
       cx="-79.451538"
       id="circle2512"
       style="display:inline;opacity:1;vector-effect:none;fill:#c3a9e2;fill-opacity:1;stroke:none;stroke-width:1.50000012;stroke-linecap:butt;stroke-linejoin:miter;stroke-miterlimit:4;stroke-dasharray:none;stroke-dashoffset:0;stroke-opacity:1;paint-order:fill markers stroke" />
    <ellipse
       ry="1.9518723"
       rx="1.8427601"
       transform="scale(-1,1)"
       style="display:inline;opacity:1;vector-effect:none;fill:#8955c5;fill-opacity:1;stroke:none;stroke-width:1.50000012;stroke-linecap:butt;stroke-linejoin:miter;stroke-miterlimit:4;stroke-dasharray:none;stroke-dashoffset:0;stroke-opacity:1;paint-order:fill markers stroke"
       id="circle2514"
       cx="-84.058441"
       cy="139.13588" />
    <ellipse
       ry="1.879581"
       rx="1.7745099"
       transform="scale(-1,1)"
       cy="140.97932"
       cx="-81.806183"
       id="circle2516"
       style="display:inline;opacity:1;vector-effect:none;fill:#a67fd3;fill-opacity:1;stroke:none;stroke-width:1.50000012;stroke-linecap:butt;stroke-linejoin:miter;stroke-miterlimit:4;stroke-dasharray:none;stroke-dashoffset:0;stroke-opacity:1;paint-order:fill markers stroke" />
    <ellipse
       ry="1.879581"
       rx="1.7745099"
       transform="scale(-1,1)"
       style="display:inline;opacity:1;vector-effect:none;fill:#a67fd3;fill-opacity:1;stroke:none;stroke-width:1.50000012;stroke-linecap:butt;stroke-linejoin:miter;stroke-miterlimit:4;stroke-dasharray:none;stroke-dashoffset:0;stroke-opacity:1;paint-order:fill markers stroke"
       id="circle2518"
       cx="-81.123688"
       cy="143.32881" />
    <ellipse
       ry="1.481977"
       rx="1.3991325"
       transform="scale(-1,1)"
       style="display:inline;opacity:1;vector-effect:none;fill:#a67fd3;fill-opacity:1;stroke:none;stroke-width:1.50000012;stroke-linecap:butt;stroke-linejoin:miter;stroke-miterlimit:4;stroke-dasharray:none;stroke-dashoffset:0;stroke-opacity:1;paint-order:fill markers stroke"
       id="circle2520"
       cx="-84.672729"
       cy="145.17223" />
    <ellipse
       ry="1.8976536"
       rx="1.7915722"
       transform="scale(-1,1)"
       style="display:inline;opacity:1;vector-effect:none;fill:#c3a9e2;fill-opacity:1;stroke:none;stroke-width:1.50000012;stroke-linecap:butt;stroke-linejoin:miter;stroke-miterlimit:4;stroke-dasharray:none;stroke-dashoffset:0;stroke-opacity:1;paint-order:fill markers stroke"
       id="circle2522"
       cx="-82.539886"
       cy="143.88905" />
    <ellipse
       transform="scale(-1,1)"
       ry="1.3735399"
       rx="1.3650076"
       style="display:inline;opacity:1;vector-effect:none;fill:#a67fd3;fill-opacity:1;stroke:none;stroke-width:1.50000012;stroke-linecap:butt;stroke-linejoin:miter;stroke-miterlimit:4;stroke-dasharray:none;stroke-dashoffset:0;stroke-opacity:1;paint-order:fill markers stroke"
       id="ellipse2524"
       cx="-82.659317"
       cy="139.60579" />
    <path
       sodipodi:nodetypes="cscccscccccsccccccsccc"
       inkscape:connector-curvature="0"
       id="path2528"
       d="m 90.638927,132.92404 c -10e-4,2.6e-4 -0.003,5.3e-4 -0.004,0.001 -0.73022,0.17282 -1.44546,0.5596 -1.920351,1.20005 -0.47488,0.64044 -0.70373,1.53464 -0.466019,2.69849 0.66572,3.2639 2.86407,4.52158 3.780719,4.90951 0.244621,0.10351 0.520051,0.11857 0.81471,0.0488 0.678251,-0.16052 1.260061,-0.71906 1.297871,-0.75576 l 0.003,-0.002 0.001,-0.002 c 8.21e-4,-7.9e-4 2.65e-4,7e-5 0.007,-0.006 0.007,-0.006 0.0182,-0.0143 0.0332,-0.0235 0.03,-0.0185 0.0752,-0.0405 0.13553,-0.0548 0.0801,-0.019 0.16991,-0.0196 0.26706,-5e-5 0.12429,0.0381 0.81547,0.23757 1.445459,0.0888 0.294661,-0.0697 0.537839,-0.20753 0.7176,-0.41148 0.544941,-0.61764 1.789271,-2.33422 1.617951,-4.95546 l -0.025,-0.38264 c -0.380871,-2.03958 -0.824201,-2.95969 -2.330382,-3.29216 -0.476627,-0.10553 -1.009387,-0.0933 -1.542497,0.0328 -0.54092,0.12802 -1.0146,0.38902 -1.35961,0.67094 -0.93578,0.77208 -1.60936,-0.26977 -2.47302,0.23507 z"
       style="color:#000000;font-style:normal;font-variant:normal;font-weight:normal;font-stretch:normal;font-size:medium;line-height:normal;font-family:sans-serif;font-variant-ligatures:normal;font-variant-position:normal;font-variant-caps:normal;font-variant-numeric:normal;font-variant-alternates:normal;font-feature-settings:normal;text-indent:0;text-align:start;text-decoration:none;text-decoration-line:none;text-decoration-style:solid;text-decoration-color:#000000;letter-spacing:normal;word-spacing:normal;text-transform:none;writing-mode:lr-tb;direction:ltr;text-orientation:mixed;dominant-baseline:auto;baseline-shift:baseline;text-anchor:start;white-space:normal;shape-padding:0;clip-rule:nonzero;display:inline;overflow:visible;visibility:visible;opacity:1;isolation:auto;mix-blend-mode:normal;color-interpolation:sRGB;color-interpolation-filters:linearRGB;solid-color:#000000;solid-opacity:1;vector-effect:none;fill:#d6c5ea;fill-opacity:1;fill-rule:nonzero;stroke:none;stroke-width:0.26458338;stroke-linecap:butt;stroke-linejoin:miter;stroke-miterlimit:4;stroke-dasharray:none;stroke-dashoffset:0;stroke-opacity:1;color-rendering:auto;image-rendering:auto;shape-rendering:auto;text-rendering:auto;enable-background:accumulate" />
    <path
       inkscape:connector-curvature="0"
       id="path2530"
       d="m 89.859027,128.97463 c -0.49804,3.75867 1.69282,4.53322 3.32374,4.58608 0.43039,-3.07084 -2.42229,-4.45539 -3.32374,-4.58608 z"
       style="display:inline;opacity:1;vector-effect:none;fill:#8f5dc8;fill-opacity:1;stroke:none;stroke-width:1.49999988;stroke-linecap:butt;stroke-linejoin:miter;stroke-miterlimit:4;stroke-dasharray:none;stroke-dashoffset:0;stroke-opacity:1;paint-order:fill markers stroke" />
    <path
       style="display:inline;opacity:1;vector-effect:none;fill:#e3d8f1;fill-opacity:1;stroke:none;stroke-width:1.50000024;stroke-linecap:butt;stroke-linejoin:miter;stroke-miterlimit:4;stroke-dasharray:none;stroke-dashoffset:0;stroke-opacity:1;paint-order:fill markers stroke"
       d="m 111.01689,134.24287 a 0.87308293,1.0306239 25.061423 0 1 0.14884,1.37807 0.87308293,1.0306239 25.061423 0 1 -0.04,0.0576 3.6538908,4.3827255 25.911404 0 1 -0.17327,5.03663 3.6538908,4.3827255 25.911404 0 1 -4.93635,1.74391 0.9167568,1.0830052 25.105979 0 1 -0.0214,0.0367 0.9167568,1.0830052 25.105979 0 1 -1.33278,0.3607 0.9167568,1.0830052 25.105979 0 1 -0.15581,-1.44768 0.9167568,1.0830052 25.105979 0 1 0.18921,-0.22604 3.6538908,4.3827255 25.911404 0 1 0.32696,-4.79781 3.6538908,4.3827255 25.911404 0 1 4.75027,-1.83362 0.87308293,1.0306239 25.061423 0 1 1.24463,-0.30824 z"
       id="path2534"
       inkscape:connector-curvature="0" />
    <path
       inkscape:connector-curvature="0"
       id="path2536"
       d="m 110.50606,127.79342 a 1.0261308,0.87690582 60.692205 0 1 1.29357,0.21584 1.0261308,0.87690582 60.692205 0 1 0.0418,0.0562 4.3631898,3.6702505 59.697243 0 1 4.53636,1.52102 4.3631898,3.6702505 59.697243 0 1 0.26932,5.50441 1.0782781,0.92077577 60.639868 0 1 0.0276,0.0316 1.0782781,0.92077577 60.639868 0 1 -0.0275,1.45676 1.0782781,0.92077577 60.639868 0 1 -1.35876,-0.2273 1.0782781,0.92077577 60.639868 0 1 -0.15518,-0.25347 4.3631898,3.6702505 59.697243 0 1 -4.27805,-1.61417 4.3631898,3.6702505 59.697243 0 1 -0.4006,-5.3384 1.0261308,0.87690582 60.692205 0 1 0.0517,-1.35278 z"
       style="display:inline;opacity:1;vector-effect:none;fill:#e3d8f1;fill-opacity:1;stroke:none;stroke-width:1.50000024;stroke-linecap:butt;stroke-linejoin:miter;stroke-miterlimit:4;stroke-dasharray:none;stroke-dashoffset:0;stroke-opacity:1;paint-order:fill markers stroke" />
    <path
       style="color:#000000;font-style:normal;font-variant:normal;font-weight:normal;font-stretch:normal;font-size:medium;line-height:normal;font-family:sans-serif;font-variant-ligatures:normal;font-variant-position:normal;font-variant-caps:normal;font-variant-numeric:normal;font-variant-alternates:normal;font-feature-settings:normal;text-indent:0;text-align:start;text-decoration:none;text-decoration-line:none;text-decoration-style:solid;text-decoration-color:#000000;letter-spacing:normal;word-spacing:normal;text-transform:none;writing-mode:lr-tb;direction:ltr;text-orientation:mixed;dominant-baseline:auto;baseline-shift:baseline;text-anchor:start;white-space:normal;shape-padding:0;clip-rule:nonzero;display:inline;overflow:visible;visibility:visible;opacity:1;isolation:auto;mix-blend-mode:normal;color-interpolation:sRGB;color-interpolation-filters:linearRGB;solid-color:#000000;solid-opacity:1;vector-effect:none;fill:#e3d8f1;fill-opacity:1;fill-rule:nonzero;stroke:none;stroke-width:0.26458338;stroke-linecap:butt;stroke-linejoin:miter;stroke-miterlimit:4;stroke-dasharray:none;stroke-dashoffset:0;stroke-opacity:1;color-rendering:auto;image-rendering:auto;shape-rendering:auto;text-rendering:auto;enable-background:accumulate"
       d="m 100.77351,139.20391 c 0.001,-4e-5 0.003,-7e-5 0.005,-1.2e-4 0.74802,-0.0184 1.53012,0.17471 2.13656,0.67528 0.60643,0.50058 1.03172,1.31016 1.06542,2.5004 0.0954,3.33767 -1.7526,5.11875 -2.55418,5.72894 -0.21391,0.16282 -0.47782,0.24765 -0.77966,0.25507 -0.694801,0.0171 -1.386401,-0.37673 -1.431441,-0.40272 l -0.003,-0.001 -0.0021,-0.002 c -0.0011,-5.3e-4 -2.41e-4,1.4e-4 -0.008,-0.004 -0.008,-0.004 -0.0209,-0.009 -0.0376,-0.0144 -0.0334,-0.0103 -0.0822,-0.0201 -0.143999,-0.0186 -0.0821,0.002 -0.169378,0.0242 -0.25922,0.068 -0.11198,0.0687 -0.737529,0.43846 -1.382819,0.45459 -0.301842,0.007 -0.569179,-0.0643 -0.79,-0.21647 -0.66925,-0.46058 -2.267021,-1.80953 -2.696281,-4.3974 l -0.0626,-0.37779 c -0.0937,-2.07672 0.12754,-3.08279 1.51392,-3.78942 0.43865,-0.22392 0.95853,-0.34787 1.50463,-0.3613 0.554109,-0.0136 1.073171,0.11897 1.472099,0.30466 1.083691,0.51085 1.500762,-0.67207 2.453741,-0.40221 z"
       id="path2538"
       inkscape:connector-curvature="0"
       sodipodi:nodetypes="cscccscccccsccccccsccc" />
    <path
       style="display:inline;opacity:1;vector-effect:none;fill:#8f5dc8;fill-opacity:1;stroke:none;stroke-width:1.49999988;stroke-linecap:butt;stroke-linejoin:miter;stroke-miterlimit:4;stroke-dasharray:none;stroke-dashoffset:0;stroke-opacity:1;paint-order:fill markers stroke"
       d="m 100.63318,135.17178 c 1.33737,3.52125 -0.61312,4.83149 -2.184113,5.29852 -1.11543,-2.87089 1.338839,-4.9419 2.184113,-5.29852 z"
       id="path2540"
       inkscape:connector-curvature="0" />
    <path
       inkscape:connector-curvature="0"
       id="path2544"
       d="m 112.27318,138.38644 a 1.0311003,0.87267952 65.406753 0 1 1.26541,0.35698 1.0311003,0.87267952 65.406753 0 1 0.0361,0.0605 4.3848009,3.6521612 64.572884 0 1 4.36271,2.01184 4.3848009,3.6521612 64.572884 0 1 -0.27187,5.50426 1.0835064,0.91633265 65.363056 0 1 0.0245,0.0345 1.0835064,0.91633265 65.363056 0 1 -0.17019,1.44585 1.0835064,0.91633265 65.363056 0 1 -1.32913,-0.37555 1.0835064,0.91633265 65.363056 0 1 -0.12948,-0.26917 4.3848009,3.6521612 64.572884 0 1 -4.09665,-2.07607 4.3848009,3.6521612 64.572884 0 1 0.12501,-5.35359 1.0311003,0.87267952 65.406753 0 1 0.18407,-1.33978 z"
       style="display:inline;opacity:1;vector-effect:none;fill:#e3d8f1;fill-opacity:1;stroke:none;stroke-width:1.50000024;stroke-linecap:butt;stroke-linejoin:miter;stroke-miterlimit:4;stroke-dasharray:none;stroke-dashoffset:0;stroke-opacity:1;paint-order:fill markers stroke" />
    <path
       sodipodi:nodetypes="csscscscscscscscscscscscscscssccccccccccccccc"
       inkscape:connector-curvature="0"
       id="path2546"
       d="m 150.89805,109.9205 v 2.37881 c 0,1.96442 -1.27968,3.54589 -2.86925,3.54589 -1.58958,0 -2.86926,-1.58147 -2.86926,-3.54589 0,1.96442 -1.27969,3.54589 -2.86927,3.54589 -1.58955,0 -2.86925,-1.58147 -2.86925,-3.54589 0,1.96442 -1.27969,3.54589 -2.86927,3.54589 -1.58958,0 -2.86927,-1.58147 -2.86927,-3.54589 0,1.96442 -1.27967,3.54589 -2.86926,3.54589 -1.58955,0 -2.86925,-1.58147 -2.86925,-3.54589 0,1.96442 -1.27968,3.54589 -2.86926,3.54589 -1.58957,0 -2.86926,-1.58147 -2.86926,-3.54589 0,1.96442 -1.27968,3.54589 -2.86927,3.54589 -1.58957,0 -2.86926,-1.58147 -2.86926,-3.54589 0,1.96442 -1.27969,3.54589 -2.86926,3.54589 -1.58957,0 -2.86926,-1.58147 -2.86926,-3.54589 0,1.96442 -1.27967,3.54589 -2.86926,3.54589 -1.58957,0 -2.86927,-1.58147 -2.86927,-3.54589 0,1.96442 -1.27968,3.54589 -2.86925,3.54589 -1.58958,0 -2.869273,-1.58147 -2.869273,-3.54589 0,1.96442 -1.279681,3.54589 -2.869261,3.54589 -1.589579,0 -2.869259,-1.58147 -2.869259,-3.54589 0,1.96442 -1.27968,3.54589 -2.86926,3.54589 -1.58957,0 -2.86926,-1.58147 -2.86926,-3.54589 0,1.96442 -1.27969,3.54589 -2.86926,3.54589 -1.58958,0 -2.86927,-1.58147 -2.86927,-3.54589 0,1.96442 -1.27967,3.54589 -2.86926,3.54589 -1.58956,0 -2.86926,-1.58147 -2.86926,-3.54589 0,1.96442 -1.27969,3.54589 -2.86925,3.54589 -1.58958,0 -2.86927,-1.58147 -2.86927,-3.54589 v -2.37881 h 5.73852 5.73852 5.73853 5.73852 5.73852 5.738523 5.73853 5.73852 5.73853 5.73852 5.73851 5.73854 5.73852 z"
       style="display:inline;opacity:1;vector-effect:none;fill:#af8cd7;fill-opacity:1;stroke:none;stroke-width:1.00000012;stroke-linecap:butt;stroke-linejoin:miter;stroke-miterlimit:4;stroke-dasharray:none;stroke-dashoffset:0;stroke-opacity:1;paint-order:fill markers stroke" />
    <path
       sodipodi:nodetypes="ccccc"
       inkscape:connector-curvature="0"
       id="path2548"
       d="m 150.42141,100.45203 -78.719873,-0.44411 -1.0482,9.9924 80.187353,0.11102 z"
       style="display:inline;opacity:1;vector-effect:none;fill:#cab3e5;fill-opacity:1;stroke:none;stroke-width:1.50000024;stroke-linecap:butt;stroke-linejoin:miter;stroke-miterlimit:4;stroke-dasharray:none;stroke-dashoffset:0;stroke-opacity:1;paint-order:fill markers stroke" />
    <path
       style="display:inline;fill:#ff3699;fill-opacity:1;fill-rule:nonzero;stroke:none;stroke-width:0.03527777"
       d="m 83.663247,179.78485 c 0.009,0.17919 0.10915,0.36297 0.30077,0.51298 1.92115,1.50397 3.33356,2.14972 5.73701,2.72204 0.32029,0.0762 0.75421,0.0742 0.97797,-0.21097 0.26032,-0.33169 -0.0668,-0.77071 -0.40035,-0.89729 -1.03446,-0.39135 -1.79442,-0.47057 -2.70401,-1.06631 2.0173,0.23203 9.0626,-0.12888 11.24477,-0.0798 -0.97291,0.52264 -1.85933,0.84799 -2.711389,1.54225 -0.328611,0.42737 0.3093,1.40736 0.91467,1.00275 1.534099,-0.98164 2.409618,-1.96996 4.112332,-2.37958 0.8677,-0.20873 1.7336,-0.69518 0.57863,-1.4291 -2.404573,-1.52795 -2.736094,-1.7554 -4.614503,-2.41411 -0.85154,-0.29858 -0.623351,0.97998 -0.170331,1.16564 1.530631,0.62718 1.663361,0.76825 2.353382,1.08128 -2.56584,0.44601 -9.621441,0.41146 -12.163271,0.30414 0.31564,-0.13593 0.63104,-0.27176 0.94709,-0.40663 1.07386,-0.52449 0.93268,-0.30997 1.80747,-0.9643 0.76603,-0.58576 -0.53706,-1.08278 -0.80044,-0.99798 -1.35425,1.19848 -3.16687,1.52959 -4.99224,1.92896 -0.28945,0.13304 -0.42867,0.35546 -0.41711,0.58579 z"
       id="path165"
       inkscape:connector-curvature="0"
       sodipodi:nodetypes="cccccccccssssccccccc" />
    <path
       sodipodi:nodetypes="cccccccccssssccccccc"
       inkscape:connector-curvature="0"
       id="path2564"
       d="m 119.6855,179.78485 c 0.009,0.17919 0.10915,0.36297 0.30078,0.51298 1.92114,1.50397 3.33355,2.14972 5.73702,2.72204 0.32027,0.0762 0.75421,0.0742 0.97795,-0.21097 0.26032,-0.33169 -0.0668,-0.77071 -0.40035,-0.89729 -1.03444,-0.39135 -1.7944,-0.47057 -2.70399,-1.06631 2.0173,0.23203 9.06258,-0.12888 11.24475,-0.0798 -0.9729,0.52264 -1.85933,0.84799 -2.71139,1.54225 -0.32859,0.42737 0.3093,1.40736 0.91467,1.00275 1.5341,-0.98164 2.40964,-1.96996 4.11235,-2.37958 0.86768,-0.20873 1.73358,-0.69518 0.57863,-1.4291 -2.40459,-1.52795 -2.73612,-1.7554 -4.61451,-2.41411 -0.85153,-0.29858 -0.62335,0.97998 -0.17032,1.16564 1.53061,0.62718 1.66334,0.76825 2.35336,1.08128 -2.56584,0.44601 -9.62144,0.41146 -12.16327,0.30414 0.31564,-0.13593 0.63105,-0.27176 0.94709,-0.40663 1.07386,-0.52449 0.93268,-0.30997 1.80747,-0.9643 0.76603,-0.58576 -0.53704,-1.08278 -0.80042,-0.99798 -1.35425,1.19848 -3.16687,1.52959 -4.99224,1.92896 -0.28946,0.13304 -0.42869,0.35546 -0.41713,0.58579 z"
       style="display:inline;fill:#ff3699;fill-opacity:1;fill-rule:nonzero;stroke:none;stroke-width:0.03527777" />
  </g>
</svg>
