<?xml version="1.0" encoding="UTF-8" standalone="no"?>
<svg
   xmlns:dc="http://purl.org/dc/elements/1.1/"
   xmlns:cc="http://creativecommons.org/ns#"
   xmlns:rdf="http://www.w3.org/1999/02/22-rdf-syntax-ns#"
   xmlns:svg="http://www.w3.org/2000/svg"
   xmlns="http://www.w3.org/2000/svg"
   id="svg45066"
   version="1.1"
   viewBox="0 0 80.339309 92.526253"
   height="92.526253mm"
   width="80.33931mm">
  <defs
     id="defs45060" />
  <metadata
     id="metadata45063">
    <rdf:RDF>
      <cc:Work
         rdf:about="">
        <dc:format>image/svg+xml</dc:format>
        <dc:type
           rdf:resource="http://purl.org/dc/dcmitype/StillImage" />
        <dc:title></dc:title>
      </cc:Work>
    </rdf:RDF>
  </metadata>
  <g
     transform="translate(207.23513,-105.59402)"
     id="layer1">
    <rect
       style="display:inline;opacity:1;vector-effect:none;fill:#763eb8;fill-opacity:1;stroke:none;stroke-width:1.49999976;stroke-linecap:butt;stroke-linejoin:miter;stroke-miterlimit:4;stroke-dasharray:none;stroke-dashoffset:0;stroke-opacity:1;paint-order:fill markers stroke"
       id="rect2422"
       width="47.880863"
       height="38.704285"
       x="156.83931"
       y="116.2212"
       transform="scale(-1,1)" />
    <path
       style="display:inline;opacity:1;vector-effect:none;fill:#6837a3;fill-opacity:1;stroke:none;stroke-width:1.50000024;stroke-linecap:butt;stroke-linejoin:miter;stroke-miterlimit:4;stroke-dasharray:none;stroke-dashoffset:0;stroke-opacity:1;paint-order:fill markers stroke"
       d="m -165.65948,137.10424 c 2.96477,-4.39643 3.40948,-6.67316 2.07534,-7.53674 -1.33414,-0.86358 -3.40947,0.47105 -4.37302,1.88418 -0.96354,1.41314 -1.26003,2.04121 -1.26003,2.04121 0,0 1.03767,-1.9627 0.22237,-3.92539 -0.81532,-1.96269 -2.74241,-1.57015 -3.78007,-0.23552 -1.03767,1.33463 -1.48239,4.63195 -1.48239,5.73106 0,1.09911 0.74119,-2.19822 -0.74118,-3.45434 -1.48238,-1.25612 -2.83994,-1.52501 -3.92831,-0.54955 -1.92377,1.72418 -1.63062,3.37583 -0.22235,5.88807 1.40825,2.51225 2.96475,4.94599 2.96475,4.94599 l 10.22842,-3.61136 0.51883,-1.57015 z"
       id="path2424" />
    <path
       style="display:inline;opacity:1;vector-effect:none;fill:#8b57c6;fill-opacity:1;stroke:none;stroke-width:1.50000024;stroke-linecap:butt;stroke-linejoin:miter;stroke-miterlimit:4;stroke-dasharray:none;stroke-dashoffset:0;stroke-opacity:1;paint-order:fill markers stroke"
       d="m -159.72996,146.13262 0.14824,-8.79286 h -17.41796 l -0.22236,9.42092 z"
       id="path2426" />
    <rect
       style="display:inline;opacity:1;vector-effect:none;fill:#c0a3e0;fill-opacity:1;stroke:none;stroke-width:1.50000024;stroke-linecap:butt;stroke-linejoin:miter;stroke-miterlimit:4;stroke-dasharray:none;stroke-dashoffset:0;stroke-opacity:1;paint-order:fill markers stroke"
       id="rect2428"
       width="75.527245"
       height="9.1853971"
       x="129.48941"
       y="106.87878"
       transform="scale(-1,1)" />
    <rect
       style="display:inline;opacity:1;vector-effect:none;fill:#9669cb;fill-opacity:1;stroke:none;stroke-width:1.50000024;stroke-linecap:butt;stroke-linejoin:miter;stroke-miterlimit:4;stroke-dasharray:none;stroke-dashoffset:0;stroke-opacity:1;paint-order:fill markers stroke"
       id="rect2430"
       width="26.831074"
       height="47.261612"
       x="129.63766"
       y="116.14268"
       transform="scale(-1,1)" />
    <rect
       style="display:inline;opacity:1;vector-effect:none;fill:#c3a8e1;fill-opacity:1;stroke:none;stroke-width:1.50000024;stroke-linecap:butt;stroke-linejoin:miter;stroke-miterlimit:4;stroke-dasharray:none;stroke-dashoffset:0;stroke-opacity:1;paint-order:fill markers stroke"
       id="rect2432"
       width="47.584385"
       height="7.9292746"
       x="156.7652"
       y="155.2395"
       transform="scale(-1,1)" />
    <rect
       transform="scale(-1,1)"
       y="163.63983"
       x="129.93413"
       height="2.8262761"
       width="74.415459"
       id="rect2434"
       style="display:inline;opacity:1;vector-effect:none;fill:#ffffff;fill-opacity:1;stroke:none;stroke-width:1.50000024;stroke-linecap:butt;stroke-linejoin:miter;stroke-miterlimit:4;stroke-dasharray:none;stroke-dashoffset:0;stroke-opacity:1;paint-order:fill markers stroke" />
    <path
       style="color:#000000;font-style:normal;font-variant:normal;font-weight:normal;font-stretch:normal;font-size:medium;line-height:normal;font-family:sans-serif;font-variant-ligatures:normal;font-variant-position:normal;font-variant-caps:normal;font-variant-numeric:normal;font-variant-alternates:normal;font-feature-settings:normal;text-indent:0;text-align:start;text-decoration:none;text-decoration-line:none;text-decoration-style:solid;text-decoration-color:#000000;letter-spacing:normal;word-spacing:normal;text-transform:none;writing-mode:lr-tb;direction:ltr;text-orientation:mixed;dominant-baseline:auto;baseline-shift:baseline;text-anchor:start;white-space:normal;shape-padding:0;clip-rule:nonzero;display:inline;overflow:visible;visibility:visible;opacity:1;isolation:auto;mix-blend-mode:normal;color-interpolation:sRGB;color-interpolation-filters:linearRGB;solid-color:#000000;solid-opacity:1;vector-effect:none;fill:#e2d5f0;fill-opacity:1;fill-rule:nonzero;stroke:none;stroke-width:2.64583373;stroke-linecap:butt;stroke-linejoin:miter;stroke-miterlimit:4;stroke-dasharray:none;stroke-dashoffset:0;stroke-opacity:1;paint-order:fill markers stroke;color-rendering:auto;image-rendering:auto;shape-rendering:auto;text-rendering:auto;enable-background:accumulate"
       d="m -128.76791,106.06948 0.41928,62.61756 -76.94863,-0.88821 -0.83856,-60.63479 1.0482,-1.42764 z m -1.2303,1.52296 h -74.17411 l 0.10482,7.60136 h 73.75483 z m -0.62892,9.56843 h -24.27048 l -0.41928,45.49656 24.68976,-0.22206 z m -26.96773,0 h -45.84372 l -0.41928,36.37223 46.68228,0.44411 z m 0,38.56136 -45.94853,-0.11103 -0.10483,6.38007 h 46.15818 z m 26.96773,8.56919 h -72.81145 v 1.42931 h 72.81145 z"
       id="path2439" />
    <path
       style="display:inline;opacity:1;vector-effect:none;fill:#9669cb;fill-opacity:1;stroke:none;stroke-width:1.50000024;stroke-linecap:butt;stroke-linejoin:miter;stroke-miterlimit:4;stroke-dasharray:none;stroke-dashoffset:0;stroke-opacity:1;paint-order:fill markers stroke"
       d="m -188.414,143.54187 c -0.29648,0.31402 -0.66707,11.06958 -0.66707,11.06958 l -15.04616,-0.23553 0.0741,-12.16869 z"
       id="path2441" />
    <path
       style="display:inline;opacity:1;vector-effect:none;fill:#ac88d5;fill-opacity:1;stroke:none;stroke-width:1.50000024;stroke-linecap:butt;stroke-linejoin:miter;stroke-miterlimit:4;stroke-dasharray:none;stroke-dashoffset:0;stroke-opacity:1;paint-order:fill markers stroke"
       d="m -156.98755,145.66157 0.14824,8.63584 h -16.08382 l -0.59295,-9.02838 z"
       id="path2443" />
    <path
       style="display:inline;opacity:1;vector-effect:none;fill:#c6ade3;fill-opacity:1;stroke:none;stroke-width:1.50000024;stroke-linecap:butt;stroke-linejoin:miter;stroke-miterlimit:4;stroke-dasharray:none;stroke-dashoffset:0;stroke-opacity:1;paint-order:fill markers stroke"
       d="m -172.55254,142.05022 -0.0741,12.63974 -16.60265,-0.23553 -0.22235,-12.3257 z"
       id="path2446" />
    <path
       style="display:inline;opacity:1;vector-effect:none;fill:#d5c1ea;fill-opacity:1;stroke:none;stroke-width:1.50000024;stroke-linecap:butt;stroke-linejoin:miter;stroke-miterlimit:4;stroke-dasharray:none;stroke-dashoffset:0;stroke-opacity:1;paint-order:fill markers stroke"
       d="m -133.38596,123.25503 v 36.55981 l -19.01853,-0.10686 -0.32653,-36.66307 z"
       id="path2448" />
    <ellipse
       style="display:inline;opacity:1;vector-effect:none;fill:#8955c5;fill-opacity:1;stroke:none;stroke-width:1.50000012;stroke-linecap:butt;stroke-linejoin:miter;stroke-miterlimit:4;stroke-dasharray:none;stroke-dashoffset:0;stroke-opacity:1;paint-order:fill markers stroke"
       id="circle2450"
       cx="-192.96869"
       cy="142.07114"
       rx="1.9792608"
       ry="2.0964553" />
    <path
       id="path2452"
       d="m -196.54336,136.04268 c -0.20049,-2.41593 0.0802,-3.47016 1.644,-4.43654 1.5638,-0.96637 0.64155,2.15238 0.64155,2.15238 0,0 1.40341,-2.81127 3.04741,-2.41593 1.64399,0.39533 -0.76185,3.8655 -0.76185,3.8655 0,0 1.28311,-0.92245 2.52613,-0.79067 1.24303,0.13177 -0.64155,3.25053 -1.92467,3.68979 -1.28312,0.43926 -4.17014,0.65889 -4.08994,0.48319 0.0802,-0.1757 -1.08263,-2.54772 -1.08263,-2.54772 z"
       style="display:inline;opacity:1;vector-effect:none;fill:#6938a4;fill-opacity:1;stroke:none;stroke-width:1.50000012;stroke-linecap:butt;stroke-linejoin:miter;stroke-miterlimit:4;stroke-dasharray:none;stroke-dashoffset:0;stroke-opacity:1;paint-order:fill markers stroke" />
    <ellipse
       cy="145.21582"
       cx="-200.40797"
       id="circle2454"
       style="display:inline;opacity:1;vector-effect:none;fill:#8955c5;fill-opacity:1;stroke:none;stroke-width:1.50000012;stroke-linecap:butt;stroke-linejoin:miter;stroke-miterlimit:4;stroke-dasharray:none;stroke-dashoffset:0;stroke-opacity:1;paint-order:fill markers stroke"
       rx="1.7062594"
       ry="1.8072892" />
    <ellipse
       cy="144.13144"
       cx="-197.64383"
       id="circle2456"
       style="display:inline;opacity:1;vector-effect:none;fill:#8955c5;fill-opacity:1;stroke:none;stroke-width:1.50000012;stroke-linecap:butt;stroke-linejoin:miter;stroke-miterlimit:4;stroke-dasharray:none;stroke-dashoffset:0;stroke-opacity:1;paint-order:fill markers stroke"
       rx="2.0475113"
       ry="2.1687474" />
    <ellipse
       cy="140.76987"
       cx="-198.49696"
       id="circle2458"
       style="display:inline;opacity:1;vector-effect:none;fill:#8955c5;fill-opacity:1;stroke:none;stroke-width:1.50000012;stroke-linecap:butt;stroke-linejoin:miter;stroke-miterlimit:4;stroke-dasharray:none;stroke-dashoffset:0;stroke-opacity:1;paint-order:fill markers stroke"
       rx="2.1498868"
       ry="2.2771845" />
    <ellipse
       cy="142.7579"
       cx="-200.7151"
       id="circle2460"
       style="display:inline;opacity:1;vector-effect:none;fill:#8955c5;fill-opacity:1;stroke:none;stroke-width:1.50000012;stroke-linecap:butt;stroke-linejoin:miter;stroke-miterlimit:4;stroke-dasharray:none;stroke-dashoffset:0;stroke-opacity:1;paint-order:fill markers stroke"
       rx="1.6038837"
       ry="1.6988518" />
    <ellipse
       cy="141.99884"
       cx="-195.63046"
       id="circle2462"
       style="display:inline;opacity:1;vector-effect:none;fill:#8955c5;fill-opacity:1;stroke:none;stroke-width:1.50000012;stroke-linecap:butt;stroke-linejoin:miter;stroke-miterlimit:4;stroke-dasharray:none;stroke-dashoffset:0;stroke-opacity:1;paint-order:fill markers stroke"
       rx="2.0816364"
       ry="2.2048929" />
    <ellipse
       cy="138.92645"
       cx="-198.32634"
       id="circle2464"
       style="display:inline;opacity:1;vector-effect:none;fill:#8955c5;fill-opacity:1;stroke:none;stroke-width:1.50000012;stroke-linecap:butt;stroke-linejoin:miter;stroke-miterlimit:4;stroke-dasharray:none;stroke-dashoffset:0;stroke-opacity:1;paint-order:fill markers stroke"
       rx="1.9110105"
       ry="2.024164" />
    <ellipse
       cy="136.6131"
       cx="-197.02957"
       id="circle2466"
       style="display:inline;opacity:1;vector-effect:none;fill:#8955c5;fill-opacity:1;stroke:none;stroke-width:1.50000012;stroke-linecap:butt;stroke-linejoin:miter;stroke-miterlimit:4;stroke-dasharray:none;stroke-dashoffset:0;stroke-opacity:1;paint-order:fill markers stroke"
       rx="1.8427601"
       ry="1.9518723" />
    <ellipse
       cy="140.0108"
       cx="-193.68532"
       id="circle2468"
       style="display:inline;opacity:1;vector-effect:none;fill:#8955c5;fill-opacity:1;stroke:none;stroke-width:1.50000012;stroke-linecap:butt;stroke-linejoin:miter;stroke-miterlimit:4;stroke-dasharray:none;stroke-dashoffset:0;stroke-opacity:1;paint-order:fill markers stroke"
       rx="1.9792608"
       ry="2.0964553" />
    <ellipse
       cy="137.1553"
       cx="-194.57257"
       id="circle2470"
       style="display:inline;opacity:1;vector-effect:none;fill:#c3a9e2;fill-opacity:1;stroke:none;stroke-width:1.50000012;stroke-linecap:butt;stroke-linejoin:miter;stroke-miterlimit:4;stroke-dasharray:none;stroke-dashoffset:0;stroke-opacity:1;paint-order:fill markers stroke"
       rx="1.8768853"
       ry="1.988018" />
    <ellipse
       style="display:inline;opacity:1;vector-effect:none;fill:#8955c5;fill-opacity:1;stroke:none;stroke-width:1.50000012;stroke-linecap:butt;stroke-linejoin:miter;stroke-miterlimit:4;stroke-dasharray:none;stroke-dashoffset:0;stroke-opacity:1;paint-order:fill markers stroke"
       id="circle2472"
       cx="-199.17946"
       cy="137.26373"
       rx="1.8427601"
       ry="1.9518723" />
    <ellipse
       cy="139.10718"
       cx="-196.92722"
       id="circle2474"
       style="display:inline;opacity:1;vector-effect:none;fill:#a67fd3;fill-opacity:1;stroke:none;stroke-width:1.50000012;stroke-linecap:butt;stroke-linejoin:miter;stroke-miterlimit:4;stroke-dasharray:none;stroke-dashoffset:0;stroke-opacity:1;paint-order:fill markers stroke"
       rx="1.7745099"
       ry="1.879581" />
    <ellipse
       style="display:inline;opacity:1;vector-effect:none;fill:#a67fd3;fill-opacity:1;stroke:none;stroke-width:1.50000012;stroke-linecap:butt;stroke-linejoin:miter;stroke-miterlimit:4;stroke-dasharray:none;stroke-dashoffset:0;stroke-opacity:1;paint-order:fill markers stroke"
       id="circle2476"
       cx="-196.24472"
       cy="141.45663"
       rx="1.7745099"
       ry="1.879581" />
    <ellipse
       style="display:inline;opacity:1;vector-effect:none;fill:#a67fd3;fill-opacity:1;stroke:none;stroke-width:1.50000012;stroke-linecap:butt;stroke-linejoin:miter;stroke-miterlimit:4;stroke-dasharray:none;stroke-dashoffset:0;stroke-opacity:1;paint-order:fill markers stroke"
       id="circle2478"
       cx="-199.79375"
       cy="143.30008"
       rx="1.3991325"
       ry="1.481977" />
    <ellipse
       style="display:inline;opacity:1;vector-effect:none;fill:#c3a9e2;fill-opacity:1;stroke:none;stroke-width:1.50000012;stroke-linecap:butt;stroke-linejoin:miter;stroke-miterlimit:4;stroke-dasharray:none;stroke-dashoffset:0;stroke-opacity:1;paint-order:fill markers stroke"
       id="circle2480"
       cx="-197.6609"
       cy="142.01691"
       rx="1.7915722"
       ry="1.8976536" />
    <ellipse
       ry="1.3735399"
       rx="1.3650076"
       style="display:inline;opacity:1;vector-effect:none;fill:#a67fd3;fill-opacity:1;stroke:none;stroke-width:1.50000012;stroke-linecap:butt;stroke-linejoin:miter;stroke-miterlimit:4;stroke-dasharray:none;stroke-dashoffset:0;stroke-opacity:1;paint-order:fill markers stroke"
       id="ellipse2482"
       cx="-197.78033"
       cy="137.73364" />
    <path
       style="color:#000000;font-style:normal;font-variant:normal;font-weight:normal;font-stretch:normal;font-size:medium;line-height:normal;font-family:sans-serif;font-variant-ligatures:normal;font-variant-position:normal;font-variant-caps:normal;font-variant-numeric:normal;font-variant-alternates:normal;font-feature-settings:normal;text-indent:0;text-align:start;text-decoration:none;text-decoration-line:none;text-decoration-style:solid;text-decoration-color:#000000;letter-spacing:normal;word-spacing:normal;text-transform:none;writing-mode:lr-tb;direction:ltr;text-orientation:mixed;dominant-baseline:auto;baseline-shift:baseline;text-anchor:start;white-space:normal;shape-padding:0;clip-rule:nonzero;display:inline;overflow:visible;visibility:visible;opacity:1;isolation:auto;mix-blend-mode:normal;color-interpolation:sRGB;color-interpolation-filters:linearRGB;solid-color:#000000;solid-opacity:1;vector-effect:none;fill:#af8cd7;fill-opacity:1;fill-rule:nonzero;stroke:none;stroke-width:0.26458329;stroke-linecap:butt;stroke-linejoin:miter;stroke-miterlimit:4;stroke-dasharray:none;stroke-dashoffset:0;stroke-opacity:1;color-rendering:auto;image-rendering:auto;shape-rendering:auto;text-rendering:auto;enable-background:accumulate"
       d="m -175.23986,136.74217 c 0.001,2.6e-4 0.002,7.9e-4 0.003,0.001 0.5618,0.18979 1.1012,0.55899 1.44018,1.12743 0.33897,0.56843 0.47308,1.33584 0.22924,2.3023 -0.68308,2.71036 -2.46319,3.63733 -3.19863,3.90884 -0.19627,0.0724 -0.41218,0.0685 -0.63887,-0.008 -0.52182,-0.17629 -0.9484,-0.68216 -0.97611,-0.71538 l -0.002,-0.002 -7.9e-4,-0.002 c -5.3e-4,-8e-4 -2.1e-4,5e-5 -0.006,-0.005 -0.005,-0.005 -0.0135,-0.0131 -0.0248,-0.0218 -0.0226,-0.0174 -0.0567,-0.0387 -0.10314,-0.0544 -0.0616,-0.0208 -0.13175,-0.0268 -0.20861,-0.0162 -0.099,0.0246 -0.6489,0.15091 -1.13359,-0.0126 -0.2267,-0.0766 -0.40978,-0.20742 -0.54002,-0.39016 -0.39484,-0.55346 -1.28113,-2.07532 -1.01636,-4.27397 l 0.0387,-0.32096 c 0.39941,-1.6958 0.79169,-2.44441 1.98488,-2.63353 0.37761,-0.0601 0.79318,-0.0176 1.20332,0.12095 0.41616,0.14059 0.77315,0.38918 1.02858,0.64763 0.69245,0.70723 1.27066,-0.13005 1.92012,0.34762 z"
       id="path2486" />
    <path
       style="display:inline;opacity:1;vector-effect:none;fill:#8f5dc8;fill-opacity:1;stroke:none;stroke-width:1.49999988;stroke-linecap:butt;stroke-linejoin:miter;stroke-miterlimit:4;stroke-dasharray:none;stroke-dashoffset:0;stroke-opacity:1;paint-order:fill markers stroke"
       d="m -174.43335,133.46101 c 0.20131,3.19768 -1.54883,3.71796 -2.8255,3.6639 -0.18281,-2.61393 2.11478,-3.60827 2.8255,-3.6639 z"
       id="path2488" />
    <ellipse
       cy="149.52936"
       cx="199.9462"
       id="circle2492"
       style="display:inline;opacity:1;vector-effect:none;fill:#8955c5;fill-opacity:1;stroke:none;stroke-width:1.50000012;stroke-linecap:butt;stroke-linejoin:miter;stroke-miterlimit:4;stroke-dasharray:none;stroke-dashoffset:0;stroke-opacity:1;paint-order:fill markers stroke"
       transform="scale(-1,1)"
       rx="1.9792608"
       ry="2.0964553" />
    <path
       style="display:inline;opacity:1;vector-effect:none;fill:#6837a1;fill-opacity:1;stroke:none;stroke-width:1.50000012;stroke-linecap:butt;stroke-linejoin:miter;stroke-miterlimit:4;stroke-dasharray:none;stroke-dashoffset:0;stroke-opacity:1;paint-order:fill markers stroke"
       d="m -196.37153,143.50091 c 0.20049,-2.41593 -0.0802,-3.47016 -1.644,-4.43654 -1.5638,-0.96637 -0.64155,2.15238 -0.64155,2.15238 0,0 -1.40341,-2.81127 -3.04742,-2.41593 -1.64398,0.39533 0.76186,3.8655 0.76186,3.8655 0,0 -1.28311,-0.92245 -2.52614,-0.79067 -1.24302,0.13177 0.64156,3.25053 1.92468,3.68979 1.28312,0.43926 4.17014,0.65889 4.08993,0.48319 -0.0802,-0.1757 1.08264,-2.54772 1.08264,-2.54772 z"
       id="path2494" />
    <ellipse
       style="display:inline;opacity:1;vector-effect:none;fill:#8955c5;fill-opacity:1;stroke:none;stroke-width:1.50000012;stroke-linecap:butt;stroke-linejoin:miter;stroke-miterlimit:4;stroke-dasharray:none;stroke-dashoffset:0;stroke-opacity:1;paint-order:fill markers stroke"
       id="circle2496"
       cx="192.50693"
       cy="152.67404"
       transform="scale(-1,1)"
       rx="1.7062594"
       ry="1.8072892" />
    <ellipse
       style="display:inline;opacity:1;vector-effect:none;fill:#8955c5;fill-opacity:1;stroke:none;stroke-width:1.50000012;stroke-linecap:butt;stroke-linejoin:miter;stroke-miterlimit:4;stroke-dasharray:none;stroke-dashoffset:0;stroke-opacity:1;paint-order:fill markers stroke"
       id="circle2498"
       cx="195.27106"
       cy="151.58966"
       transform="scale(-1,1)"
       rx="2.0475113"
       ry="2.1687474" />
    <ellipse
       style="display:inline;opacity:1;vector-effect:none;fill:#8955c5;fill-opacity:1;stroke:none;stroke-width:1.50000012;stroke-linecap:butt;stroke-linejoin:miter;stroke-miterlimit:4;stroke-dasharray:none;stroke-dashoffset:0;stroke-opacity:1;paint-order:fill markers stroke"
       id="circle2500"
       cx="194.41792"
       cy="148.22812"
       transform="scale(-1,1)"
       rx="2.1498868"
       ry="2.2771845" />
    <ellipse
       style="display:inline;opacity:1;vector-effect:none;fill:#8955c5;fill-opacity:1;stroke:none;stroke-width:1.50000012;stroke-linecap:butt;stroke-linejoin:miter;stroke-miterlimit:4;stroke-dasharray:none;stroke-dashoffset:0;stroke-opacity:1;paint-order:fill markers stroke"
       id="circle2502"
       cx="192.19978"
       cy="150.21613"
       transform="scale(-1,1)"
       rx="1.6038837"
       ry="1.6988518" />
    <ellipse
       style="display:inline;opacity:1;vector-effect:none;fill:#8955c5;fill-opacity:1;stroke:none;stroke-width:1.50000012;stroke-linecap:butt;stroke-linejoin:miter;stroke-miterlimit:4;stroke-dasharray:none;stroke-dashoffset:0;stroke-opacity:1;paint-order:fill markers stroke"
       id="circle2504"
       cx="197.28442"
       cy="149.45706"
       transform="scale(-1,1)"
       rx="2.0816364"
       ry="2.2048929" />
    <ellipse
       style="display:inline;opacity:1;vector-effect:none;fill:#8955c5;fill-opacity:1;stroke:none;stroke-width:1.50000012;stroke-linecap:butt;stroke-linejoin:miter;stroke-miterlimit:4;stroke-dasharray:none;stroke-dashoffset:0;stroke-opacity:1;paint-order:fill markers stroke"
       id="circle2506"
       cx="194.58856"
       cy="146.38467"
       transform="scale(-1,1)"
       rx="1.9110105"
       ry="2.024164" />
    <ellipse
       style="display:inline;opacity:1;vector-effect:none;fill:#8955c5;fill-opacity:1;stroke:none;stroke-width:1.50000012;stroke-linecap:butt;stroke-linejoin:miter;stroke-miterlimit:4;stroke-dasharray:none;stroke-dashoffset:0;stroke-opacity:1;paint-order:fill markers stroke"
       id="circle2508"
       cx="195.88533"
       cy="144.07135"
       transform="scale(-1,1)"
       rx="1.8427601"
       ry="1.9518723" />
    <ellipse
       style="display:inline;opacity:1;vector-effect:none;fill:#8955c5;fill-opacity:1;stroke:none;stroke-width:1.50000012;stroke-linecap:butt;stroke-linejoin:miter;stroke-miterlimit:4;stroke-dasharray:none;stroke-dashoffset:0;stroke-opacity:1;paint-order:fill markers stroke"
       id="circle2510"
       cx="199.22958"
       cy="147.46906"
       transform="scale(-1,1)"
       rx="1.9792608"
       ry="2.0964553" />
    <ellipse
       style="display:inline;opacity:1;vector-effect:none;fill:#c3a9e2;fill-opacity:1;stroke:none;stroke-width:1.50000012;stroke-linecap:butt;stroke-linejoin:miter;stroke-miterlimit:4;stroke-dasharray:none;stroke-dashoffset:0;stroke-opacity:1;paint-order:fill markers stroke"
       id="circle2512"
       cx="198.34233"
       cy="144.61353"
       transform="scale(-1,1)"
       rx="1.8768853"
       ry="1.988018" />
    <ellipse
       cy="144.72195"
       cx="193.73543"
       id="circle2514"
       style="display:inline;opacity:1;vector-effect:none;fill:#8955c5;fill-opacity:1;stroke:none;stroke-width:1.50000012;stroke-linecap:butt;stroke-linejoin:miter;stroke-miterlimit:4;stroke-dasharray:none;stroke-dashoffset:0;stroke-opacity:1;paint-order:fill markers stroke"
       transform="scale(-1,1)"
       rx="1.8427601"
       ry="1.9518723" />
    <ellipse
       style="display:inline;opacity:1;vector-effect:none;fill:#a67fd3;fill-opacity:1;stroke:none;stroke-width:1.50000012;stroke-linecap:butt;stroke-linejoin:miter;stroke-miterlimit:4;stroke-dasharray:none;stroke-dashoffset:0;stroke-opacity:1;paint-order:fill markers stroke"
       id="circle2516"
       cx="195.98769"
       cy="146.5654"
       transform="scale(-1,1)"
       rx="1.7745099"
       ry="1.879581" />
    <ellipse
       cy="148.91489"
       cx="196.67018"
       id="circle2518"
       style="display:inline;opacity:1;vector-effect:none;fill:#a67fd3;fill-opacity:1;stroke:none;stroke-width:1.50000012;stroke-linecap:butt;stroke-linejoin:miter;stroke-miterlimit:4;stroke-dasharray:none;stroke-dashoffset:0;stroke-opacity:1;paint-order:fill markers stroke"
       transform="scale(-1,1)"
       rx="1.7745099"
       ry="1.879581" />
    <ellipse
       cy="150.7583"
       cx="193.12114"
       id="circle2520"
       style="display:inline;opacity:1;vector-effect:none;fill:#a67fd3;fill-opacity:1;stroke:none;stroke-width:1.50000012;stroke-linecap:butt;stroke-linejoin:miter;stroke-miterlimit:4;stroke-dasharray:none;stroke-dashoffset:0;stroke-opacity:1;paint-order:fill markers stroke"
       transform="scale(-1,1)"
       rx="1.3991325"
       ry="1.481977" />
    <ellipse
       cy="149.47513"
       cx="195.25398"
       id="circle2522"
       style="display:inline;opacity:1;vector-effect:none;fill:#c3a9e2;fill-opacity:1;stroke:none;stroke-width:1.50000012;stroke-linecap:butt;stroke-linejoin:miter;stroke-miterlimit:4;stroke-dasharray:none;stroke-dashoffset:0;stroke-opacity:1;paint-order:fill markers stroke"
       transform="scale(-1,1)"
       rx="1.7915722"
       ry="1.8976536" />
    <ellipse
       cy="145.19186"
       cx="195.13455"
       id="ellipse2524"
       style="display:inline;opacity:1;vector-effect:none;fill:#a67fd3;fill-opacity:1;stroke:none;stroke-width:1.50000012;stroke-linecap:butt;stroke-linejoin:miter;stroke-miterlimit:4;stroke-dasharray:none;stroke-dashoffset:0;stroke-opacity:1;paint-order:fill markers stroke"
       rx="1.3650076"
       ry="1.3735399"
       transform="scale(-1,1)" />
    <path
       style="color:#000000;font-style:normal;font-variant:normal;font-weight:normal;font-stretch:normal;font-size:medium;line-height:normal;font-family:sans-serif;font-variant-ligatures:normal;font-variant-position:normal;font-variant-caps:normal;font-variant-numeric:normal;font-variant-alternates:normal;font-feature-settings:normal;text-indent:0;text-align:start;text-decoration:none;text-decoration-line:none;text-decoration-style:solid;text-decoration-color:#000000;letter-spacing:normal;word-spacing:normal;text-transform:none;writing-mode:lr-tb;direction:ltr;text-orientation:mixed;dominant-baseline:auto;baseline-shift:baseline;text-anchor:start;white-space:normal;shape-padding:0;clip-rule:nonzero;display:inline;overflow:visible;visibility:visible;opacity:1;isolation:auto;mix-blend-mode:normal;color-interpolation:sRGB;color-interpolation-filters:linearRGB;solid-color:#000000;solid-opacity:1;vector-effect:none;fill:#d6c5ea;fill-opacity:1;fill-rule:nonzero;stroke:none;stroke-width:0.26458338;stroke-linecap:butt;stroke-linejoin:miter;stroke-miterlimit:4;stroke-dasharray:none;stroke-dashoffset:0;stroke-opacity:1;color-rendering:auto;image-rendering:auto;shape-rendering:auto;text-rendering:auto;enable-background:accumulate"
       d="m -187.15494,138.51014 c -10e-4,2.6e-4 -0.003,5.3e-4 -0.004,0.001 -0.73022,0.17282 -1.44546,0.5596 -1.92035,1.20005 -0.47488,0.64044 -0.70373,1.53464 -0.46602,2.69849 0.66572,3.2639 2.86407,4.52158 3.78072,4.90951 0.24462,0.10351 0.52005,0.11857 0.81471,0.0488 0.67825,-0.16052 1.26006,-0.71906 1.29787,-0.75576 l 0.003,-0.002 0.001,-0.002 c 8.2e-4,-8e-4 2.6e-4,6e-5 0.007,-0.006 0.007,-0.006 0.0182,-0.0143 0.0332,-0.0235 0.03,-0.0185 0.0752,-0.0405 0.13553,-0.0548 0.0801,-0.019 0.16991,-0.0196 0.26706,-4e-5 0.12429,0.0381 0.81547,0.23757 1.44546,0.0888 0.29466,-0.0697 0.53784,-0.20753 0.7176,-0.41148 0.54494,-0.61764 1.78927,-2.33422 1.61795,-4.95546 l -0.025,-0.38264 c -0.38087,-2.03958 -0.8242,-2.95969 -2.33038,-3.29216 -0.47663,-0.10553 -1.00939,-0.0933 -1.5425,0.0328 -0.54092,0.12802 -1.0146,0.38902 -1.35961,0.67094 -0.93578,0.77207 -1.60936,-0.26978 -2.47302,0.23507 z"
       id="path2528" />
    <path
       style="display:inline;opacity:1;vector-effect:none;fill:#8f5dc8;fill-opacity:1;stroke:none;stroke-width:1.49999988;stroke-linecap:butt;stroke-linejoin:miter;stroke-miterlimit:4;stroke-dasharray:none;stroke-dashoffset:0;stroke-opacity:1;paint-order:fill markers stroke"
       d="m -187.93484,134.56073 c -0.49804,3.75867 1.69282,4.53322 3.32374,4.58608 0.43039,-3.07084 -2.42229,-4.45539 -3.32374,-4.58608 z"
       id="path2530" />
    <path
       id="path2534"
       d="m -166.77698,139.82897 a 0.87308293,1.0306239 25.061423 0 1 0.14884,1.37807 0.87308293,1.0306239 25.061423 0 1 -0.04,0.0576 3.6538908,4.3827255 25.911404 0 1 -0.17327,5.03663 3.6538908,4.3827255 25.911404 0 1 -4.93635,1.74391 0.9167568,1.0830052 25.105979 0 1 -0.0214,0.0367 0.9167568,1.0830052 25.105979 0 1 -1.33278,0.3607 0.9167568,1.0830052 25.105979 0 1 -0.15581,-1.44768 0.9167568,1.0830052 25.105979 0 1 0.18921,-0.22604 3.6538908,4.3827255 25.911404 0 1 0.32696,-4.79781 3.6538908,4.3827255 25.911404 0 1 4.75026,-1.83362 0.87308293,1.0306239 25.061423 0 1 1.24464,-0.30824 z"
       style="display:inline;opacity:1;vector-effect:none;fill:#e3d8f1;fill-opacity:1;stroke:none;stroke-width:1.50000024;stroke-linecap:butt;stroke-linejoin:miter;stroke-miterlimit:4;stroke-dasharray:none;stroke-dashoffset:0;stroke-opacity:1;paint-order:fill markers stroke" />
    <path
       style="display:inline;opacity:1;vector-effect:none;fill:#e3d8f1;fill-opacity:1;stroke:none;stroke-width:1.50000024;stroke-linecap:butt;stroke-linejoin:miter;stroke-miterlimit:4;stroke-dasharray:none;stroke-dashoffset:0;stroke-opacity:1;paint-order:fill markers stroke"
       d="m -167.28781,133.37952 a 1.0261308,0.87690582 60.692205 0 1 1.29357,0.21584 1.0261308,0.87690582 60.692205 0 1 0.0418,0.0562 4.3631898,3.6702505 59.697243 0 1 4.53637,1.52102 4.3631898,3.6702505 59.697243 0 1 0.26932,5.50441 1.0782781,0.92077577 60.639868 0 1 0.0276,0.0316 1.0782781,0.92077577 60.639868 0 1 -0.0275,1.45676 1.0782781,0.92077577 60.639868 0 1 -1.35876,-0.2273 1.0782781,0.92077577 60.639868 0 1 -0.15518,-0.25347 4.3631898,3.6702505 59.697243 0 1 -4.27806,-1.61417 4.3631898,3.6702505 59.697243 0 1 -0.4006,-5.3384 1.0261308,0.87690582 60.692205 0 1 0.0517,-1.35278 z"
       id="path2536" />
    <path
       id="path2538"
       d="m -177.02036,144.79001 c 0.001,-4e-5 0.003,-7e-5 0.005,-1.2e-4 0.74802,-0.0184 1.53013,0.17471 2.13656,0.67528 0.60643,0.50058 1.03172,1.31016 1.06542,2.5004 0.0954,3.33767 -1.7526,5.11875 -2.55418,5.72894 -0.21391,0.16282 -0.47782,0.24765 -0.77966,0.25507 -0.6948,0.0171 -1.3864,-0.37673 -1.43144,-0.40272 l -0.003,-0.001 -0.002,-0.002 c -0.001,-5.2e-4 -2.4e-4,1.5e-4 -0.008,-0.004 -0.008,-0.004 -0.0209,-0.009 -0.0376,-0.0144 -0.0334,-0.0103 -0.0822,-0.0201 -0.144,-0.0186 -0.0821,0.002 -0.16938,0.0242 -0.25922,0.068 -0.11198,0.0687 -0.73753,0.43846 -1.38282,0.45459 -0.30184,0.007 -0.56918,-0.0643 -0.79,-0.21647 -0.66925,-0.46058 -2.26702,-1.80953 -2.69628,-4.3974 l -0.0626,-0.37779 c -0.0937,-2.07672 0.12754,-3.08279 1.51392,-3.78942 0.43865,-0.22392 0.95853,-0.34787 1.50463,-0.3613 0.55411,-0.0136 1.07317,0.11897 1.4721,0.30466 1.08369,0.51085 1.50076,-0.67207 2.45374,-0.40221 z"
       style="color:#000000;font-style:normal;font-variant:normal;font-weight:normal;font-stretch:normal;font-size:medium;line-height:normal;font-family:sans-serif;font-variant-ligatures:normal;font-variant-position:normal;font-variant-caps:normal;font-variant-numeric:normal;font-variant-alternates:normal;font-feature-settings:normal;text-indent:0;text-align:start;text-decoration:none;text-decoration-line:none;text-decoration-style:solid;text-decoration-color:#000000;letter-spacing:normal;word-spacing:normal;text-transform:none;writing-mode:lr-tb;direction:ltr;text-orientation:mixed;dominant-baseline:auto;baseline-shift:baseline;text-anchor:start;white-space:normal;shape-padding:0;clip-rule:nonzero;display:inline;overflow:visible;visibility:visible;opacity:1;isolation:auto;mix-blend-mode:normal;color-interpolation:sRGB;color-interpolation-filters:linearRGB;solid-color:#000000;solid-opacity:1;vector-effect:none;fill:#e3d8f1;fill-opacity:1;fill-rule:nonzero;stroke:none;stroke-width:0.26458338;stroke-linecap:butt;stroke-linejoin:miter;stroke-miterlimit:4;stroke-dasharray:none;stroke-dashoffset:0;stroke-opacity:1;color-rendering:auto;image-rendering:auto;shape-rendering:auto;text-rendering:auto;enable-background:accumulate" />
    <path
       id="path2540"
       d="m -177.16069,140.75788 c 1.33737,3.52125 -0.61312,4.83149 -2.18411,5.29852 -1.11543,-2.87089 1.33884,-4.9419 2.18411,-5.29852 z"
       style="display:inline;opacity:1;vector-effect:none;fill:#8f5dc8;fill-opacity:1;stroke:none;stroke-width:1.49999988;stroke-linecap:butt;stroke-linejoin:miter;stroke-miterlimit:4;stroke-dasharray:none;stroke-dashoffset:0;stroke-opacity:1;paint-order:fill markers stroke" />
    <path
       style="display:inline;opacity:1;vector-effect:none;fill:#e3d8f1;fill-opacity:1;stroke:none;stroke-width:1.50000024;stroke-linecap:butt;stroke-linejoin:miter;stroke-miterlimit:4;stroke-dasharray:none;stroke-dashoffset:0;stroke-opacity:1;paint-order:fill markers stroke"
       d="m -165.52069,143.97254 a 1.0311003,0.87267952 65.406753 0 1 1.26541,0.35698 1.0311003,0.87267952 65.406753 0 1 0.0361,0.0605 4.3848009,3.6521612 64.572884 0 1 4.36271,2.01184 4.3848009,3.6521612 64.572884 0 1 -0.27187,5.50426 1.0835064,0.91633265 65.363056 0 1 0.0245,0.0345 1.0835064,0.91633265 65.363056 0 1 -0.17019,1.44585 1.0835064,0.91633265 65.363056 0 1 -1.32913,-0.37555 1.0835064,0.91633265 65.363056 0 1 -0.12948,-0.26917 4.3848009,3.6521612 64.572884 0 1 -4.09665,-2.07607 4.3848009,3.6521612 64.572884 0 1 0.12501,-5.35359 1.0311003,0.87267952 65.406753 0 1 0.18407,-1.33978 z"
       id="path2544" />
    <path
       style="display:inline;opacity:1;vector-effect:none;fill:#af8cd7;fill-opacity:1;stroke:none;stroke-width:1.00000012;stroke-linecap:butt;stroke-linejoin:miter;stroke-miterlimit:4;stroke-dasharray:none;stroke-dashoffset:0;stroke-opacity:1;paint-order:fill markers stroke"
       d="m -126.89582,115.5066 v 2.37881 c 0,1.96442 -1.27967,3.54589 -2.86925,3.54589 -1.58957,0 -2.86926,-1.58147 -2.86926,-3.54589 0,1.96442 -1.27969,3.54589 -2.86926,3.54589 -1.58956,0 -2.86926,-1.58147 -2.86926,-3.54589 0,1.96442 -1.27968,3.54589 -2.86927,3.54589 -1.58957,0 -2.86926,-1.58147 -2.86926,-3.54589 0,1.96442 -1.27968,3.54589 -2.86927,3.54589 -1.58955,0 -2.86925,-1.58147 -2.86925,-3.54589 0,1.96442 -1.27968,3.54589 -2.86926,3.54589 -1.58957,0 -2.86926,-1.58147 -2.86926,-3.54589 0,1.96442 -1.27968,3.54589 -2.86927,3.54589 -1.58957,0 -2.86926,-1.58147 -2.86926,-3.54589 0,1.96442 -1.27969,3.54589 -2.86926,3.54589 -1.58957,0 -2.86926,-1.58147 -2.86926,-3.54589 0,1.96442 -1.27967,3.54589 -2.86926,3.54589 -1.58957,0 -2.86927,-1.58147 -2.86927,-3.54589 0,1.96442 -1.27968,3.54589 -2.86925,3.54589 -1.58958,0 -2.86927,-1.58147 -2.86927,-3.54589 0,1.96442 -1.27968,3.54589 -2.86926,3.54589 -1.58958,0 -2.86926,-1.58147 -2.86926,-3.54589 0,1.96442 -1.27968,3.54589 -2.86926,3.54589 -1.58957,0 -2.86926,-1.58147 -2.86926,-3.54589 0,1.96442 -1.27969,3.54589 -2.86926,3.54589 -1.58958,0 -2.86927,-1.58147 -2.86927,-3.54589 0,1.96442 -1.27967,3.54589 -2.86926,3.54589 -1.58956,0 -2.86926,-1.58147 -2.86926,-3.54589 0,1.96442 -1.27969,3.54589 -2.86925,3.54589 -1.58958,0 -2.86927,-1.58147 -2.86927,-3.54589 v -2.37881 h 5.73852 5.73852 5.73853 5.73852 5.73852 5.73852 5.73853 5.73852 5.73853 5.73852 5.73852 5.73853 5.73852 z"
       id="path2546" />
    <path
       style="display:inline;opacity:1;vector-effect:none;fill:#cab3e5;fill-opacity:1;stroke:none;stroke-width:1.50000024;stroke-linecap:butt;stroke-linejoin:miter;stroke-miterlimit:4;stroke-dasharray:none;stroke-dashoffset:0;stroke-opacity:1;paint-order:fill markers stroke"
       d="m -127.37246,106.03813 -78.71987,-0.44411 -1.0482,9.9924 80.18735,0.11102 z"
       id="path2548" />
    <path
       id="path2480"
       d="m -190.38409,182.51896 a 0.20002002,0.20002002 0 0 0 -0.0217,0.002 0.20002002,0.20002002 0 0 0 -0.11679,0.0589 l -2.21692,2.17144 a 0.20002002,0.20002002 0 0 0 0,0.28525 l 2.21692,2.17403 a 0.20027521,0.20027521 0 1 0 0.27905,-0.28732 l -2.07016,-2.02933 2.07016,-2.02933 a 0.20002002,0.20002002 0 0 0 -0.14056,-0.3452 z m 11.30732,5.3e-4 a 0.20002002,0.20002002 0 0 0 -0.0202,0.001 0.20002002,0.20002002 0 0 0 -0.11731,0.34365 l 2.07016,2.02933 -2.07016,2.02933 a 0.20098635,0.20098635 0 1 0 0.28112,0.28732 l 2.21693,-2.17403 a 0.20002002,0.20002002 0 0 0 0,-0.28525 l -2.21693,-2.17144 a 0.20002002,0.20002002 0 0 0 -0.14366,-0.0599 z m -12.16463,2.17506 a 0.20048966,0.20048966 0 0 0 0.0196,0.4005 h 12.98628 a 0.20025,0.20025 0 0 0 0,-0.4005 h -12.98628 a 0.20002,0.20002 0 0 0 -0.0196,0 z"
       style="color:#000000;font-style:normal;font-variant:normal;font-weight:normal;font-stretch:normal;font-size:medium;line-height:normal;font-family:sans-serif;font-variant-ligatures:normal;font-variant-position:normal;font-variant-caps:normal;font-variant-numeric:normal;font-variant-alternates:normal;font-feature-settings:normal;text-indent:0;text-align:start;text-decoration:none;text-decoration-line:none;text-decoration-style:solid;text-decoration-color:#000000;letter-spacing:normal;word-spacing:normal;text-transform:none;writing-mode:lr-tb;direction:ltr;text-orientation:mixed;dominant-baseline:auto;baseline-shift:baseline;text-anchor:start;white-space:normal;shape-padding:0;clip-rule:nonzero;display:inline;overflow:visible;visibility:visible;opacity:1;isolation:auto;mix-blend-mode:normal;color-interpolation:sRGB;color-interpolation-filters:linearRGB;solid-color:#000000;solid-opacity:1;vector-effect:none;fill:#ff3699;fill-opacity:1;fill-rule:nonzero;stroke:none;stroke-width:0.40000001;stroke-linecap:round;stroke-linejoin:round;stroke-miterlimit:4;stroke-dasharray:none;stroke-dashoffset:0;stroke-opacity:1;paint-order:fill markers stroke;color-rendering:auto;image-rendering:auto;shape-rendering:auto;text-rendering:auto;enable-background:accumulate" />
    <path
       d="m -201.00903,177.55826 c -1.63706,0.0423 -3.13614,1.4794 -3.28874,2.20024 l -1.48301,7.00595 c -0.0822,0.51005 0.2392,0.99082 0.72075,1.07781 0.48154,0.087 0.93544,-0.25338 1.01757,-0.76343 l 0.59629,-3.70333 -0.20329,13.46023 c 0,0.60104 0.48405,1.08454 1.08509,1.08454 0.60104,0 1.04102,-0.48351 1.04439,-1.08454 l 0.0407,-7.27071 c -0.002,-0.67521 1.10496,-0.73192 1.15395,0 l 0.0407,7.27071 c 0.003,0.60103 0.44333,1.08454 1.04437,1.08454 0.60104,0 1.08455,-0.4835 1.08455,-1.08454 l -0.29786,-13.44005 0.55316,3.5243 c 0.0822,0.51006 0.53602,0.85045 1.01757,0.76343 0.48153,-0.087 0.8029,-0.56776 0.72075,-1.0778 l -1.46152,-6.98266 c -0.1446,-0.69084 -1.77735,-2.10628 -3.38545,-2.06469 z m 1.97662,-2.72563 c -1e-5,1.07088 -0.86813,1.939 -1.93901,1.939 -1.07088,0 -1.939,-0.86812 -1.939,-1.939 -1e-5,-1.07088 0.86812,-1.93901 1.939,-1.939 1.07089,-1e-5 1.93901,0.86812 1.93901,1.939 z"
       style="display:inline;opacity:1;vector-effect:none;fill:none;fill-opacity:1;stroke:#7d14a6;stroke-width:0.40000001;stroke-linecap:round;stroke-linejoin:round;stroke-miterlimit:4;stroke-dasharray:none;stroke-dashoffset:0;stroke-opacity:1;paint-order:fill markers stroke"
       id="rect2507" />
    <path
       id="path2524"
       style="display:inline;opacity:1;vector-effect:none;fill:none;fill-opacity:1;stroke:#7d14a6;stroke-width:0.40000001;stroke-linecap:round;stroke-linejoin:round;stroke-miterlimit:4;stroke-dasharray:none;stroke-dashoffset:0;stroke-opacity:1;paint-order:fill markers stroke"
       d="m -167.85011,177.55826 c -1.63706,0.0423 -3.13614,1.4794 -3.28874,2.20024 l -1.48301,7.00595 c -0.0822,0.51005 0.2392,0.99082 0.72075,1.07781 0.48154,0.087 0.93544,-0.25338 1.01757,-0.76343 l 0.59629,-3.70333 -0.20329,13.46023 c 0,0.60104 0.48405,1.08454 1.08509,1.08454 0.60104,0 1.04102,-0.48351 1.04439,-1.08454 l 0.0407,-7.27071 c -0.002,-0.67521 1.10496,-0.73192 1.15395,0 l 0.0407,7.27071 c 0.003,0.60103 0.44333,1.08454 1.04437,1.08454 0.60104,0 1.08455,-0.4835 1.08455,-1.08454 l -0.29786,-13.44005 0.55316,3.5243 c 0.0822,0.51006 0.53602,0.85045 1.01757,0.76343 0.48153,-0.087 0.8029,-0.56776 0.72075,-1.0778 l -1.46152,-6.98266 c -0.1446,-0.69084 -1.77735,-2.10628 -3.38545,-2.06469 z m 1.97662,-2.72563 c -1e-5,1.07088 -0.86813,1.939 -1.93901,1.939 -1.07088,0 -1.939,-0.86812 -1.939,-1.939 -1e-5,-1.07088 0.86812,-1.93901 1.939,-1.939 1.07089,-1e-5 1.93901,0.86812 1.93901,1.939 z" />
    <path
       style="color:#000000;font-style:normal;font-variant:normal;font-weight:normal;font-stretch:normal;font-size:medium;line-height:normal;font-family:sans-serif;font-variant-ligatures:normal;font-variant-position:normal;font-variant-caps:normal;font-variant-numeric:normal;font-variant-alternates:normal;font-feature-settings:normal;text-indent:0;text-align:start;text-decoration:none;text-decoration-line:none;text-decoration-style:solid;text-decoration-color:#000000;letter-spacing:normal;word-spacing:normal;text-transform:none;writing-mode:lr-tb;direction:ltr;text-orientation:mixed;dominant-baseline:auto;baseline-shift:baseline;text-anchor:start;white-space:normal;shape-padding:0;clip-rule:nonzero;display:inline;overflow:visible;visibility:visible;opacity:1;isolation:auto;mix-blend-mode:normal;color-interpolation:sRGB;color-interpolation-filters:linearRGB;solid-color:#000000;solid-opacity:1;vector-effect:none;fill:#ff3699;fill-opacity:1;fill-rule:nonzero;stroke:none;stroke-width:0.40000001;stroke-linecap:round;stroke-linejoin:round;stroke-miterlimit:4;stroke-dasharray:none;stroke-dashoffset:0;stroke-opacity:1;paint-order:fill markers stroke;color-rendering:auto;image-rendering:auto;shape-rendering:auto;text-rendering:auto;enable-background:accumulate"
       d="m -156.00272,182.51896 a 0.20002002,0.20002002 0 0 0 -0.0217,0.002 0.20002002,0.20002002 0 0 0 -0.11679,0.0589 l -2.21692,2.17144 a 0.20002002,0.20002002 0 0 0 0,0.28525 l 2.21692,2.17403 a 0.20027521,0.20027521 0 1 0 0.27905,-0.28732 l -2.07016,-2.02933 2.07016,-2.02933 a 0.20002002,0.20002002 0 0 0 -0.14056,-0.3452 z m 11.30733,5.3e-4 a 0.20002002,0.20002002 0 0 0 -0.0202,0.001 0.20002002,0.20002002 0 0 0 -0.11731,0.34365 l 2.07016,2.02933 -2.07016,2.02933 a 0.20098635,0.20098635 0 1 0 0.28112,0.28732 l 2.21692,-2.17403 a 0.20002002,0.20002002 0 0 0 0,-0.28525 l -2.21692,-2.17144 a 0.20002002,0.20002002 0 0 0 -0.14366,-0.0599 z m -12.16464,2.17506 a 0.20048969,0.20048969 0 0 0 0.0196,0.4005 h 12.98628 a 0.20025,0.20025 0 0 0 0,-0.4005 h -12.98628 a 0.20002,0.20002 0 0 0 -0.0196,0 z"
       id="path2526" />
    <path
       d="m -133.46873,177.55826 c -1.63707,0.0423 -3.13615,1.4794 -3.28875,2.20024 l -1.483,7.00595 c -0.0822,0.51005 0.23919,0.99082 0.72074,1.07781 0.48155,0.087 0.93544,-0.25338 1.01758,-0.76343 l 0.59628,-3.70333 -0.20329,13.46023 c 0,0.60104 0.48405,1.08454 1.0851,1.08454 0.60104,0 1.04101,-0.48351 1.04439,-1.08454 l 0.0407,-7.27071 c -0.002,-0.67521 1.10495,-0.73192 1.15394,0 l 0.0407,7.27071 c 0.003,0.60103 0.44333,1.08454 1.04436,1.08454 0.60104,0 1.08455,-0.4835 1.08455,-1.08454 l -0.29786,-13.44005 0.55316,3.5243 c 0.0822,0.51006 0.53603,0.85045 1.01758,0.76343 0.48152,-0.087 0.80289,-0.56776 0.72074,-1.0778 l -1.46151,-6.98266 c -0.1446,-0.69084 -1.77736,-2.10628 -3.38546,-2.06469 z m 1.97662,-2.72563 c -2e-5,1.07088 -0.86813,1.939 -1.93901,1.939 -1.07088,0 -1.93901,-0.86812 -1.93901,-1.939 -1e-5,-1.07088 0.86813,-1.93901 1.93901,-1.939 1.07088,-1e-5 1.93901,0.86812 1.93901,1.939 z"
       style="display:inline;opacity:1;vector-effect:none;fill:none;fill-opacity:1;stroke:#7d14a6;stroke-width:0.40000001;stroke-linecap:round;stroke-linejoin:round;stroke-miterlimit:4;stroke-dasharray:none;stroke-dashoffset:0;stroke-opacity:1;paint-order:fill markers stroke"
       id="path2532" />
  </g>
</svg>
