<?xml version="1.0" encoding="UTF-8" standalone="no"?>
<!-- Created with Inkscape (http://www.inkscape.org/) -->

<svg
   xmlns:dc="http://purl.org/dc/elements/1.1/"
   xmlns:cc="http://creativecommons.org/ns#"
   xmlns:rdf="http://www.w3.org/1999/02/22-rdf-syntax-ns#"
   xmlns:svg="http://www.w3.org/2000/svg"
   xmlns="http://www.w3.org/2000/svg"
   xmlns:sodipodi="http://sodipodi.sourceforge.net/DTD/sodipodi-0.dtd"
   xmlns:inkscape="http://www.inkscape.org/namespaces/inkscape"
   width="36.934757mm"
   height="36.808453mm"
   viewBox="0 0 36.934757 36.808453"
   version="1.1"
   id="svg4014"
   inkscape:version="0.92.5 (0.92.5+68)"
   sodipodi:docname="beacon.svg">
  <defs
     id="defs4008" />
  <sodipodi:namedview
     id="base"
     pagecolor="#ffffff"
     bordercolor="#666666"
     borderopacity="1.0"
     inkscape:pageopacity="0.0"
     inkscape:pageshadow="2"
     inkscape:zoom="0.35"
     inkscape:cx="-491.63065"
     inkscape:cy="95.273591"
     inkscape:document-units="mm"
     inkscape:current-layer="layer1"
     showgrid="false"
     fit-margin-top="0"
     fit-margin-left="0"
     fit-margin-right="0"
     fit-margin-bottom="0"
     inkscape:window-width="1920"
     inkscape:window-height="1053"
     inkscape:window-x="0"
     inkscape:window-y="0"
     inkscape:window-maximized="1" />
  <metadata
     id="metadata4011">
    <rdf:RDF>
      <cc:Work
         rdf:about="">
        <dc:format>image/svg+xml</dc:format>
        <dc:type
           rdf:resource="http://purl.org/dc/dcmitype/StillImage" />
        <dc:title></dc:title>
      </cc:Work>
    </rdf:RDF>
  </metadata>
  <g
     inkscape:label="Livello 1"
     inkscape:groupmode="layer"
     id="layer1"
     transform="translate(-97.949299,-137.23268)">
    <rect
       transform="rotate(11.870145)"
       ry="4.3073735"
       y="112.20992"
       x="129.70653"
       height="32.305298"
       width="32.468708"
       id="rect2627"
       style="display:inline;opacity:1;vector-effect:none;fill:#ececec;fill-opacity:1;stroke:#000000;stroke-width:0.10000001;stroke-linecap:butt;stroke-linejoin:miter;stroke-miterlimit:4;stroke-dasharray:none;stroke-dashoffset:0;stroke-opacity:1;paint-order:fill markers stroke" />
    <rect
       transform="rotate(11.870145)"
       style="display:inline;opacity:1;vector-effect:none;fill:#f9f9f9;fill-opacity:1;stroke:#b3b3b3;stroke-width:0.09999999;stroke-linecap:butt;stroke-linejoin:miter;stroke-miterlimit:4;stroke-dasharray:none;stroke-dashoffset:0;stroke-opacity:1;paint-order:fill markers stroke"
       id="rect2629"
       width="27.43606"
       height="27.110476"
       x="132.14171"
       y="114.48269"
       ry="3.6147306" />
    <path
       sodipodi:nodetypes="sccsccccccccccsccssccsccsccsccs"
       inkscape:connector-curvature="0"
       id="path2777"
       d="m 106.68414,160.81373 c -0.33333,-0.0701 -0.64728,-0.0637 -0.9419,0.0191 -0.29461,0.0828 -0.54318,0.23242 -0.7457,0.4486 -0.20192,0.21319 -0.33539,0.47461 -0.4005,0.78434 -0.0551,0.26254 -0.0515,0.51445 0.012,0.7557 0.0662,0.24182 0.18225,0.45878 0.34827,0.65078 0.16664,0.189 0.37421,0.3374 0.62263,0.44505 0.0962,0.5168 0.41606,1.01491 1.13383,1.16925 l -5.3e-4,0.003 0.98183,0.20637 0.15281,-0.72684 -0.89011,-0.1871 c -0.10262,-0.0348 -0.27718,-0.11827 -0.33005,-0.31553 0.40145,0.006 0.77083,-0.19856 1.00535,-0.42033 0.23512,-0.2247 0.3884,-0.50669 0.4597,-0.84592 0.0651,-0.30971 0.0486,-0.60271 -0.0508,-0.87921 -0.0984,-0.2794 -0.26568,-0.51639 -0.50202,-0.71083 -0.23636,-0.19444 -0.52129,-0.32672 -0.85464,-0.39679 z m -0.17769,0.84517 c 0.12977,0.0272 0.23949,0.0841 0.32908,0.17084 0.0932,0.0842 0.15834,0.19204 0.19551,0.32298 0.0378,0.12809 0.0402,0.27023 0.007,0.42658 -0.0329,0.15631 -0.0927,0.28707 -0.17947,0.39202 -0.0861,0.10204 -0.18915,0.17435 -0.309,0.21694 -0.11624,0.0403 -0.23929,0.0468 -0.36908,0.0195 -0.12977,-0.0273 -0.24119,-0.083 -0.33434,-0.16736 -0.0895,-0.0867 -0.15342,-0.19399 -0.19116,-0.32207 -0.0371,-0.13109 -0.0391,-0.2747 -0.006,-0.43104 0.0329,-0.15631 0.0922,-0.28552 0.17833,-0.38753 0.0868,-0.10506 0.18835,-0.17765 0.30466,-0.21786 0.11986,-0.0427 0.24454,-0.0503 0.37434,-0.023 z"
       style="font-style:normal;font-variant:normal;font-weight:normal;font-stretch:normal;font-size:13.16180897px;line-height:1.25;font-family:'Montserrat Black';-inkscape-font-specification:'Montserrat Black, ';font-variant-ligatures:normal;font-variant-caps:normal;font-variant-numeric:normal;font-feature-settings:normal;text-align:start;letter-spacing:0px;word-spacing:-3.57425427px;writing-mode:lr-tb;text-anchor:start;display:inline;fill:#1d7eff;fill-opacity:0.98278186;stroke:none;stroke-width:0.26458332" />
    <path
       d="m 110.77439,163.16876 q 0.23207,0.14628 0.33256,0.35391 0.10044,0.20761 0.0475,0.45929 -0.0785,0.37348 -0.43056,0.51564 -0.35116,0.13813 -0.93574,0.0152 l -1.59946,-0.33618 0.59727,-2.84159 1.51827,0.31912 q 0.56833,0.11941 0.81391,0.38302 0.24962,0.2644 0.1788,0.60134 -0.0418,0.19891 -0.17655,0.33591 -0.13065,0.13785 -0.34605,0.1943 z m -1.18732,-0.96589 -0.0888,0.42216 0.44654,0.0938 q 0.31259,0.0657 0.35697,-0.14538 0.0444,-0.21109 -0.26823,-0.27678 z m 0.26075,1.62313 q 0.31663,0.0666 0.36355,-0.15671 0.0469,-0.22327 -0.26969,-0.28984 l -0.57646,-0.12115 -0.0938,0.44654 z"
       style="font-style:normal;font-variant:normal;font-weight:normal;font-stretch:normal;font-size:13.16180897px;line-height:1.25;font-family:'Montserrat Black';-inkscape-font-specification:'Montserrat Black, ';font-variant-ligatures:normal;font-variant-caps:normal;font-variant-numeric:normal;font-feature-settings:normal;text-align:start;letter-spacing:0px;word-spacing:-3.57425427px;writing-mode:lr-tb;text-anchor:start;display:inline;fill:#1d7eff;fill-opacity:0.98278186;stroke:none;stroke-width:0.26458332"
       id="path2779"
       inkscape:connector-curvature="0" />
    <path
       d="m 113.8966,164.21497 q -0.004,0.0202 -0.0579,0.21251 l -1.54262,-0.32424 q 0.0222,0.13604 0.12144,0.22898 0.1,0.0889 0.27051,0.12467 0.1462,0.0308 0.25119,0.0151 0.10915,-0.0151 0.24567,-0.0797 l 0.37748,0.58374 q -0.39985,0.28898 -1.04531,0.15331 -0.4019,-0.0845 -0.67563,-0.29468 -0.2729,-0.21414 -0.38388,-0.51303 -0.11098,-0.29884 -0.0418,-0.62764 0.07,-0.33288 0.28693,-0.55855 0.22193,-0.22888 0.53682,-0.31528 0.31893,-0.0856 0.67617,-0.0105 0.33695,0.0709 0.58486,0.26271 0.25194,0.19291 0.35974,0.48678 0.11182,0.29478 0.0359,0.65607 z m -1.10374,-0.77878 q -0.1421,-0.0299 -0.25168,0.0276 -0.10956,0.0575 -0.16778,0.19363 l 0.71449,0.15017 q 5.3e-4,-0.14395 -0.0765,-0.24074 -0.0763,-0.10092 -0.21837,-0.13081 z"
       style="font-style:normal;font-variant:normal;font-weight:normal;font-stretch:normal;font-size:13.16180897px;line-height:1.25;font-family:'Montserrat Black';-inkscape-font-specification:'Montserrat Black, ';font-variant-ligatures:normal;font-variant-caps:normal;font-variant-numeric:normal;font-feature-settings:normal;text-align:start;letter-spacing:0px;word-spacing:-3.57425427px;writing-mode:lr-tb;text-anchor:start;display:inline;fill:#1d7eff;fill-opacity:0.98278186;stroke:none;stroke-width:0.26458332"
       id="path2781"
       inkscape:connector-curvature="0" />
    <path
       d="m 115.35478,163.32193 q 0.58458,0.12292 0.83764,0.45158 0.25391,0.32463 0.13958,0.86859 l -0.25086,1.19347 -0.85249,-0.17919 0.0614,-0.29228 q -0.22827,0.29961 -0.69919,0.20061 -0.26388,-0.0555 -0.43183,-0.18405 -0.16306,-0.13176 -0.22806,-0.30649 -0.0601,-0.17794 -0.0191,-0.37279 0.0691,-0.32881 0.35662,-0.44641 0.28754,-0.1176 0.79904,-0.01 l 0.36943,0.0777 q 0.01,-0.2692 -0.36354,-0.34767 -0.15015,-0.0315 -0.31469,-0.0154 -0.16367,0.0123 -0.29031,0.0703 l -0.16516,-0.66627 q 0.21555,-0.0776 0.49712,-0.0863 0.28653,-0.0119 0.55447,0.0441 z m -0.37265,1.74856 q 0.0973,0.0204 0.18565,-0.016 0.0883,-0.0365 0.14691,-0.13442 l 0.0324,-0.15428 -0.22733,-0.0478 q -0.28012,-0.0589 -0.31937,0.12785 -0.0162,0.0771 0.0297,0.1419 0.0507,0.0615 0.15213,0.0828 z"
       style="font-style:normal;font-variant:normal;font-weight:normal;font-stretch:normal;font-size:13.16180897px;line-height:1.25;font-family:'Montserrat Black';-inkscape-font-specification:'Montserrat Black, ';font-variant-ligatures:normal;font-variant-caps:normal;font-variant-numeric:normal;font-feature-settings:normal;text-align:start;letter-spacing:0px;word-spacing:-3.57425427px;writing-mode:lr-tb;text-anchor:start;display:inline;fill:#1d7eff;fill-opacity:0.98278186;stroke:none;stroke-width:0.26458332"
       id="path2783"
       inkscape:connector-curvature="0" />
    <path
       d="m 117.70228,166.21871 q -0.37755,-0.0793 -0.64723,-0.2887 -0.26561,-0.20849 -0.38066,-0.50812 -0.11099,-0.29884 -0.041,-0.63173 0.07,-0.33286 0.29103,-0.55767 0.22595,-0.22803 0.55302,-0.31188 0.33113,-0.0831 0.70868,-0.004 0.40595,0.0854 0.65749,0.32046 0.25153,0.23514 0.29629,0.56669 l -0.78379,0.19979 q -0.0685,-0.31959 -0.32423,-0.37334 -0.16238,-0.0342 -0.29588,0.0565 -0.12947,0.0915 -0.17299,0.2985 -0.0444,0.21109 0.0373,0.34694 0.0858,0.13669 0.24812,0.17081 0.25575,0.0537 0.4471,-0.21122 l 0.63702,0.49844 q -0.17438,0.28547 -0.49936,0.39945 -0.32491,0.11396 -0.73087,0.0287 z"
       style="font-style:normal;font-variant:normal;font-weight:normal;font-stretch:normal;font-size:13.16180897px;line-height:1.25;font-family:'Montserrat Black';-inkscape-font-specification:'Montserrat Black, ';font-variant-ligatures:normal;font-variant-caps:normal;font-variant-numeric:normal;font-feature-settings:normal;text-align:start;letter-spacing:0px;word-spacing:-3.57425427px;writing-mode:lr-tb;text-anchor:start;display:inline;fill:#1d7eff;fill-opacity:0.98278186;stroke:none;stroke-width:0.26458332"
       id="path2785"
       inkscape:connector-curvature="0" />
    <path
       d="m 120.15575,166.73439 q -0.3694,-0.078 -0.63505,-0.28612 -0.2607,-0.21159 -0.37255,-0.50642 -0.11096,-0.29885 -0.041,-0.63173 0.07,-0.33287 0.29101,-0.55767 0.22191,-0.22888 0.5449,-0.31359 0.3271,-0.0839 0.69649,-0.006 0.37348,0.0785 0.63506,0.28615 0.26561,0.20849 0.37254,0.50642 0.11183,0.29477 0.0418,0.62763 -0.07,0.33288 -0.29187,0.56177 -0.21699,0.22566 -0.5449,0.31356 -0.32303,0.085 -0.6965,0.01 z m 0.15017,-0.71444 q 0.15832,0.0333 0.28369,-0.059 0.12623,-0.0964 0.16973,-0.30344 0.0435,-0.20702 -0.034,-0.34199 -0.0776,-0.13499 -0.23593,-0.16828 -0.15832,-0.0333 -0.2837,0.0591 -0.12536,0.0923 -0.16887,0.29936 -0.0435,0.20705 0.0332,0.34608 0.0776,0.13498 0.23592,0.16827 z"
       style="font-style:normal;font-variant:normal;font-weight:normal;font-stretch:normal;font-size:13.16180897px;line-height:1.25;font-family:'Montserrat Black';-inkscape-font-specification:'Montserrat Black, ';font-variant-ligatures:normal;font-variant-caps:normal;font-variant-numeric:normal;font-feature-settings:normal;text-align:start;letter-spacing:0px;word-spacing:-3.57425427px;writing-mode:lr-tb;text-anchor:start;display:inline;fill:#1d7eff;fill-opacity:0.98278186;stroke:none;stroke-width:0.26458332"
       id="path2787"
       inkscape:connector-curvature="0" />
    <path
       d="m 123.76026,165.08867 q 0.41,0.0861 0.60557,0.38583 0.19966,0.30053 0.0947,0.79983 l -0.2662,1.26656 -0.91746,-0.1929 0.23294,-1.10818 q 0.0802,-0.38159 -0.19178,-0.43875 -0.15428,-0.0324 -0.27471,0.0566 -0.11566,0.0859 -0.16428,0.31727 l -0.21928,1.04326 -0.91746,-0.1928 0.46672,-2.22052 0.87281,0.18347 -0.046,0.21921 q 0.15723,-0.10264 0.34136,-0.13171 0.18416,-0.0291 0.38308,0.0126 z"
       style="font-style:normal;font-variant:normal;font-weight:normal;font-stretch:normal;font-size:13.16180897px;line-height:1.25;font-family:'Montserrat Black';-inkscape-font-specification:'Montserrat Black, ';font-variant-ligatures:normal;font-variant-caps:normal;font-variant-numeric:normal;font-feature-settings:normal;text-align:start;letter-spacing:0px;word-spacing:-3.57425427px;writing-mode:lr-tb;text-anchor:start;display:inline;fill:#1d7eff;fill-opacity:0.98278186;stroke:none;stroke-width:0.26458332"
       id="path2789"
       inkscape:connector-curvature="0" />
    <path
       inkscape:connector-curvature="0"
       id="path2791"
       d="m 108.16272,164.60839 0.73635,0.15478 -0.15835,0.75319 -0.73635,-0.1548 z"
       style="display:inline;opacity:1;vector-effect:none;fill:#1d7eff;fill-opacity:0.98278186;stroke:none;stroke-width:0.08819444;stroke-linecap:butt;stroke-linejoin:miter;stroke-miterlimit:4;stroke-dasharray:none;stroke-dashoffset:0;stroke-opacity:1;paint-order:fill markers stroke" />
    <path
       style="display:inline;opacity:1;vector-effect:none;fill:#1d7eff;fill-opacity:0.98278186;stroke:none;stroke-width:0.08819444;stroke-linecap:butt;stroke-linejoin:miter;stroke-miterlimit:4;stroke-dasharray:none;stroke-dashoffset:0;stroke-opacity:1;paint-order:fill markers stroke"
       d="m 109.26862,164.84082 0.73636,0.15479 -0.15836,0.75319 -0.73635,-0.1548 z"
       id="path2793"
       inkscape:connector-curvature="0" />
    <path
       inkscape:connector-curvature="0"
       id="path2795"
       d="m 110.37452,165.07326 0.73635,0.15481 -0.15835,0.75318 -0.73637,-0.1548 z"
       style="display:inline;opacity:1;vector-effect:none;fill:#1d7eff;fill-opacity:0.98278186;stroke:none;stroke-width:0.08819444;stroke-linecap:butt;stroke-linejoin:miter;stroke-miterlimit:4;stroke-dasharray:none;stroke-dashoffset:0;stroke-opacity:1;paint-order:fill markers stroke" />
    <path
       style="display:inline;opacity:1;vector-effect:none;fill:#1d7eff;fill-opacity:0.98278186;stroke:none;stroke-width:0.08819444;stroke-linecap:butt;stroke-linejoin:miter;stroke-miterlimit:4;stroke-dasharray:none;stroke-dashoffset:0;stroke-opacity:1;paint-order:fill markers stroke"
       d="m 111.48043,165.30572 0.73633,0.1548 -0.15825,0.75319 -0.73635,-0.15479 z"
       id="path2797"
       inkscape:connector-curvature="0" />
    <path
       inkscape:connector-curvature="0"
       id="path2799"
       d="m 112.58632,165.53817 0.73636,0.1548 -0.15826,0.75318 -0.73636,-0.15478 z"
       style="display:inline;opacity:1;vector-effect:none;fill:#1d7eff;fill-opacity:0.98278186;stroke:none;stroke-width:0.08819444;stroke-linecap:butt;stroke-linejoin:miter;stroke-miterlimit:4;stroke-dasharray:none;stroke-dashoffset:0;stroke-opacity:1;paint-order:fill markers stroke" />
    <path
       style="display:inline;opacity:1;vector-effect:none;fill:#1d7eff;fill-opacity:0.98278186;stroke:none;stroke-width:0.08819444;stroke-linecap:butt;stroke-linejoin:miter;stroke-miterlimit:4;stroke-dasharray:none;stroke-dashoffset:0;stroke-opacity:1;paint-order:fill markers stroke"
       d="m 112.58632,165.53817 0.73636,0.1548 -0.15826,0.75318 -0.73636,-0.15478 z"
       id="path2801"
       inkscape:connector-curvature="0" />
  </g>
</svg>
