<?xml version="1.0" encoding="UTF-8" standalone="no"?>
<svg
   xmlns:dc="http://purl.org/dc/elements/1.1/"
   xmlns:cc="http://creativecommons.org/ns#"
   xmlns:rdf="http://www.w3.org/1999/02/22-rdf-syntax-ns#"
   xmlns:svg="http://www.w3.org/2000/svg"
   xmlns="http://www.w3.org/2000/svg"
   id="svg3390"
   version="1.1"
   viewBox="0 0 11.193301 30.307995"
   height="30.307995mm"
   width="11.193301mm">
  <defs
     id="defs3384" />
  <metadata
     id="metadata3387">
    <rdf:RDF>
      <cc:Work
         rdf:about="">
        <dc:format>image/svg+xml</dc:format>
        <dc:type
           rdf:resource="http://purl.org/dc/dcmitype/StillImage" />
        <dc:title></dc:title>
      </cc:Work>
    </rdf:RDF>
  </metadata>
  <g
     transform="translate(-122.91525,-78.494813)"
     id="layer1">
    <path
       style="display:inline;fill:#93b926;fill-opacity:1;stroke-width:0.99999994"
       d="m 128.53294,78.494917 c -1.64992,-0.0159 -2.49951,1.80035 -2.61991,2.830469 -0.1331,1.139511 0.78107,2.336411 2.599,2.327451 1.71585,-0.008 2.64872,-1.1839 2.57763,-2.25558 -0.0686,-1.03359 -1.0959,-2.88824 -2.55672,-2.90234 z m 0.009,6.32635 c -1.33965,0 -2.7484,1.34649 -3.63414,2.73951 -1.205,1.89521 -2.54521,8.90315 -1.75617,9.73917 0.28151,0.29826 1.04781,0.73505 1.14496,0.30895 0.15328,-0.67187 0.0884,-1.0356 0.41958,-1.01819 0.1345,0.007 0.24254,0.39736 0.30652,1.21597 0.0364,0.46628 0.16269,2.770203 0.16269,5.341943 0,2.90924 0.16128,4.75079 0.4476,5.11214 0.59976,0.75692 1.39502,0.71478 1.63876,-0.0867 0.1089,-0.35839 0.31349,-2.84717 0.45449,-5.5305 0.20382,-3.879122 0.26636,-4.610892 0.71116,-4.610892 0.44656,0 0.71886,0.76991 0.93589,4.876052 0.13651,2.582 0.28036,4.17544 0.51123,5.04321 0.25429,0.95573 1.20839,0.81916 1.55076,0.22057 0.26406,-0.46169 0.29619,-1.01179 0.38258,-4.85899 0.0638,-2.83792 0.0838,-5.178182 0.11851,-5.614552 0.0528,-0.6606 0.18435,-1.11229 0.40396,-1.10009 0.4464,0.0248 0.28992,0.34428 0.45932,1.01308 0.10595,0.41834 0.95222,-0.0405 1.13256,-0.31189 0.71866,-1.08124 -0.93828,-8.12235 -1.75618,-9.51585 -0.83175,-1.417151 -2.29446,-2.962841 -3.63412,-2.962841 z"
       id="path2859" />
  </g>
</svg>
