<?xml version="1.0" encoding="UTF-8" standalone="no"?>
<svg
   xmlns:dc="http://purl.org/dc/elements/1.1/"
   xmlns:cc="http://creativecommons.org/ns#"
   xmlns:rdf="http://www.w3.org/1999/02/22-rdf-syntax-ns#"
   xmlns:svg="http://www.w3.org/2000/svg"
   xmlns="http://www.w3.org/2000/svg"
   id="svg2537"
   version="1.1"
   viewBox="0 0 80.33931 99.028024"
   height="99.028023mm"
   width="80.33931mm">
  <defs
     id="defs2531" />
  <metadata
     id="metadata2534">
    <rdf:RDF>
      <cc:Work
         rdf:about="">
        <dc:format>image/svg+xml</dc:format>
        <dc:type
           rdf:resource="http://purl.org/dc/dcmitype/StillImage" />
        <dc:title></dc:title>
      </cc:Work>
    </rdf:RDF>
  </metadata>
  <g
     transform="translate(-27.761882,-179.19944)"
     id="layer1">
    <g
       id="g2547"
       transform="matrix(-0.76152478,0,0,0.7451121,123.27841,130.17256)"
       style="display:inline;opacity:1;stroke-width:1.32753861">
      <g
         style="display:inline;stroke-width:0.95331252"
         transform="matrix(1.3384107,0,0,1.4488867,367.8208,8.3959412)"
         id="g2545">
        <rect
           style="opacity:1;vector-effect:none;fill:#86863e;fill-opacity:1;stroke:none;stroke-width:1.42996848;stroke-linecap:butt;stroke-linejoin:miter;stroke-miterlimit:4;stroke-dasharray:none;stroke-dashoffset:0;stroke-opacity:1;paint-order:fill markers stroke"
           id="rect2415"
           width="46.977352"
           height="35.851139"
           x="-230.5498"
           y="49.461815" />
        <path
           style="opacity:1;vector-effect:none;fill:#799a1f;fill-opacity:1;stroke:none;stroke-width:1.42996895;stroke-linecap:butt;stroke-linejoin:miter;stroke-miterlimit:4;stroke-dasharray:none;stroke-dashoffset:0;stroke-opacity:1;paint-order:fill markers stroke"
           d="m -221.89607,68.805434 c -2.90882,-4.07234 -3.34514,-6.181231 -2.03617,-6.981153 1.30896,-0.799926 3.34513,0.436321 4.2905,1.745287 0.94536,1.308967 1.23625,1.890731 1.23625,1.890731 0,0 -1.01809,-1.818011 -0.21817,-3.636018 0.79993,-1.818011 2.69066,-1.454407 3.70874,-0.218162 1.01809,1.236247 1.45441,4.290501 1.45441,5.308586 0,1.018085 -0.7272,-2.03617 0.7272,-3.199696 1.45441,-1.163526 2.78635,-1.41259 3.85418,-0.509043 1.88747,1.597086 1.59985,3.126976 0.21816,5.454029 -1.38168,2.32705 -2.90881,4.581382 -2.90881,4.581382 l -10.03541,-3.345138 -0.50904,-1.454406 z"
           id="path2417" />
        <path
           style="opacity:1;vector-effect:none;fill:#a27a4a;fill-opacity:1;stroke:none;stroke-width:1.42996895;stroke-linecap:butt;stroke-linejoin:miter;stroke-miterlimit:4;stroke-dasharray:none;stroke-dashoffset:0;stroke-opacity:1;paint-order:fill markers stroke"
           d="m -227.7137,77.168276 -0.14544,-8.144679 h 17.08929 l 0.21816,8.726442 z"
           id="path2419" />
        <rect
           style="opacity:1;vector-effect:none;fill:#efdf63;fill-opacity:1;stroke:none;stroke-width:1.42996895;stroke-linecap:butt;stroke-linejoin:miter;stroke-miterlimit:4;stroke-dasharray:none;stroke-dashoffset:0;stroke-opacity:1;paint-order:fill markers stroke"
           id="rect2421"
           width="74.102051"
           height="8.5082827"
           x="-257.38361"
           y="40.808094" />
        <rect
           style="opacity:1;vector-effect:none;fill:#b0b053;fill-opacity:1;stroke:none;stroke-width:1.42996895;stroke-linecap:butt;stroke-linejoin:miter;stroke-miterlimit:4;stroke-dasharray:none;stroke-dashoffset:0;stroke-opacity:1;paint-order:fill markers stroke"
           id="rect2423"
           width="26.324772"
           height="43.777657"
           x="-257.23816"
           y="49.389099" />
        <rect
           style="opacity:1;vector-effect:none;fill:#a27a4a;fill-opacity:1;stroke:none;stroke-width:1.42996895;stroke-linecap:butt;stroke-linejoin:miter;stroke-miterlimit:4;stroke-dasharray:none;stroke-dashoffset:0;stroke-opacity:1;paint-order:fill markers stroke"
           id="rect2425"
           width="46.68647"
           height="7.3447566"
           x="-230.62251"
           y="85.603836" />
        <rect
           style="opacity:1;vector-effect:none;fill:#9e9a4b;fill-opacity:1;stroke:none;stroke-width:1.42996895;stroke-linecap:butt;stroke-linejoin:miter;stroke-miterlimit:4;stroke-dasharray:none;stroke-dashoffset:0;stroke-opacity:1;paint-order:fill markers stroke"
           id="rect2427"
           width="73.011238"
           height="2.617933"
           x="-256.9473"
           y="93.384918" />
        <path
           style="color:#000000;font-style:normal;font-variant:normal;font-weight:normal;font-stretch:normal;font-size:medium;line-height:normal;font-family:sans-serif;font-variant-ligatures:normal;font-variant-position:normal;font-variant-caps:normal;font-variant-numeric:normal;font-variant-alternates:normal;font-feature-settings:normal;text-indent:0;text-align:start;text-decoration:none;text-decoration-line:none;text-decoration-style:solid;text-decoration-color:#000000;letter-spacing:normal;word-spacing:normal;text-transform:none;writing-mode:lr-tb;direction:ltr;text-orientation:mixed;dominant-baseline:auto;baseline-shift:baseline;text-anchor:start;white-space:normal;shape-padding:0;clip-rule:nonzero;display:inline;overflow:visible;visibility:visible;opacity:1;isolation:auto;mix-blend-mode:normal;color-interpolation:sRGB;color-interpolation-filters:linearRGB;solid-color:#000000;solid-opacity:1;vector-effect:none;fill:#7a7a38;fill-opacity:1;fill-rule:nonzero;stroke:none;stroke-width:9.53312588;stroke-linecap:butt;stroke-linejoin:miter;stroke-miterlimit:4;stroke-dasharray:none;stroke-dashoffset:0;stroke-opacity:1;paint-order:fill markers stroke;color-rendering:auto;image-rendering:auto;shape-rendering:auto;text-rendering:auto;enable-background:accumulate"
           d="M 28.107604,330.16803 26.552826,549.38674 311.89435,546.27719 315.00391,334 l -3.88695,-4.99805 z m 4.562181,5.33177 H 307.72281 l -0.38869,26.61171 H 33.835869 Z m 2.332168,33.49825 h 89.999997 l 1.55478,159.27954 -91.554777,-0.77739 z m 100.001957,0 h 169.99804 l 1.55478,127.33607 -173.1076,1.55478 z m 0,135 170.38673,-0.3887 0.3887,22.33607 H 134.61521 Z m -100.001957,30 H 305.00195 v 5.0039 H 35.001953 Z"
           transform="matrix(0.26458333,0,0,0.26458333,-265.52829,-47.298512)"
           id="path2429" />
        <path
           style="opacity:1;vector-effect:none;fill:#af8653;fill-opacity:1;stroke:none;stroke-width:1.42996895;stroke-linecap:butt;stroke-linejoin:miter;stroke-miterlimit:4;stroke-dasharray:none;stroke-dashoffset:0;stroke-opacity:1;paint-order:fill markers stroke"
           d="m -199.57092,74.768504 c 0.29088,0.29088 0.65448,10.25357 0.65448,10.25357 l 14.76224,-0.21816 -0.0727,-11.271657 z"
           id="path2431" />
        <path
           style="opacity:1;vector-effect:none;fill:#bd9a70;fill-opacity:1;stroke:none;stroke-width:1.42996895;stroke-linecap:butt;stroke-linejoin:miter;stroke-miterlimit:4;stroke-dasharray:none;stroke-dashoffset:0;stroke-opacity:1;paint-order:fill markers stroke"
           d="m -230.40436,76.731954 -0.14544,7.999238 h 15.78032 l 0.58176,-8.362841 z"
           id="path2433" />
        <path
           style="opacity:1;vector-effect:none;fill:#cdb292;fill-opacity:1;stroke:none;stroke-width:1.42996895;stroke-linecap:butt;stroke-linejoin:miter;stroke-miterlimit:4;stroke-dasharray:none;stroke-dashoffset:0;stroke-opacity:1;paint-order:fill markers stroke"
           d="m -215.13308,73.386817 0.0727,11.70798 16.28936,-0.218163 0.21816,-11.417096 z"
           id="path2435" />
        <path
           style="opacity:1;vector-effect:none;fill:#b6ce6f;fill-opacity:1;stroke:none;stroke-width:1.42996895;stroke-linecap:butt;stroke-linejoin:miter;stroke-miterlimit:4;stroke-dasharray:none;stroke-dashoffset:0;stroke-opacity:1;paint-order:fill markers stroke"
           d="m -253.56058,55.977138 v 33.864751 l 18.65965,-0.09898 0.32036,-33.960396 z"
           id="path2437" />
        <g
           style="stroke-width:1.46411335"
           transform="matrix(-0.65111933,0,0,0.65111933,-374.18682,57.798158)"
           id="g2477">
          <circle
             r="2.9824214"
             cy="23.971081"
             cx="-275.0412"
             id="circle2443"
             style="opacity:1;vector-effect:none;fill:#806875;fill-opacity:1;stroke:none;stroke-width:2.19617009;stroke-linecap:butt;stroke-linejoin:miter;stroke-miterlimit:4;stroke-dasharray:none;stroke-dashoffset:0;stroke-opacity:1;paint-order:fill markers stroke" />
          <path
             style="opacity:1;vector-effect:none;fill:#93b926;fill-opacity:1;stroke:none;stroke-width:2.19617009;stroke-linecap:butt;stroke-linejoin:miter;stroke-miterlimit:4;stroke-dasharray:none;stroke-dashoffset:0;stroke-opacity:1;paint-order:fill markers stroke"
             d="m -280.42764,15.394989 c -0.30211,-3.436915 0.12084,-4.936658 2.47723,-6.3114276 2.35639,-1.3747665 0.96672,3.0619796 0.96672,3.0619796 0,0 2.11471,-3.9993204 4.59195,-3.4369142 2.47722,0.562405 -1.14799,5.4990642 -1.14799,5.4990642 0,0 1.93344,-1.312276 3.80647,-1.124809 1.87304,0.187468 -0.96672,4.624214 -2.90017,5.24911 -1.93345,0.624894 -6.28371,0.937341 -6.16286,0.687383 0.12083,-0.249957 -1.63135,-3.624386 -1.63135,-3.624386 z"
             id="path2445" />
          <circle
             style="opacity:1;vector-effect:none;fill:#806875;fill-opacity:1;stroke:none;stroke-width:2.19617009;stroke-linecap:butt;stroke-linejoin:miter;stroke-miterlimit:4;stroke-dasharray:none;stroke-dashoffset:0;stroke-opacity:1;paint-order:fill markers stroke"
             id="circle2447"
             cx="-286.25098"
             cy="28.444715"
             r="2.571053" />
          <circle
             style="opacity:1;vector-effect:none;fill:#806875;fill-opacity:1;stroke:none;stroke-width:2.19617009;stroke-linecap:butt;stroke-linejoin:miter;stroke-miterlimit:4;stroke-dasharray:none;stroke-dashoffset:0;stroke-opacity:1;paint-order:fill markers stroke"
             id="circle2449"
             cx="-282.08588"
             cy="26.902086"
             r="3.0852637" />
          <circle
             style="opacity:1;vector-effect:none;fill:#806875;fill-opacity:1;stroke:none;stroke-width:2.19617009;stroke-linecap:butt;stroke-linejoin:miter;stroke-miterlimit:4;stroke-dasharray:none;stroke-dashoffset:0;stroke-opacity:1;paint-order:fill markers stroke"
             id="circle2451"
             cx="-283.3714"
             cy="22.119925"
             r="3.2395267" />
          <circle
             style="opacity:1;vector-effect:none;fill:#806875;fill-opacity:1;stroke:none;stroke-width:2.19617009;stroke-linecap:butt;stroke-linejoin:miter;stroke-miterlimit:4;stroke-dasharray:none;stroke-dashoffset:0;stroke-opacity:1;paint-order:fill markers stroke"
             id="circle2453"
             cx="-286.71378"
             cy="24.948078"
             r="2.4167898" />
          <circle
             style="opacity:1;vector-effect:none;fill:#806875;fill-opacity:1;stroke:none;stroke-width:2.19617009;stroke-linecap:butt;stroke-linejoin:miter;stroke-miterlimit:4;stroke-dasharray:none;stroke-dashoffset:0;stroke-opacity:1;paint-order:fill markers stroke"
             id="circle2455"
             cx="-279.05206"
             cy="23.868238"
             r="3.1366847" />
          <circle
             style="opacity:1;vector-effect:none;fill:#806875;fill-opacity:1;stroke:none;stroke-width:2.19617009;stroke-linecap:butt;stroke-linejoin:miter;stroke-miterlimit:4;stroke-dasharray:none;stroke-dashoffset:0;stroke-opacity:1;paint-order:fill markers stroke"
             id="circle2457"
             cx="-283.11429"
             cy="19.49745"
             r="2.8795793" />
          <circle
             style="opacity:1;vector-effect:none;fill:#806875;fill-opacity:1;stroke:none;stroke-width:2.19617009;stroke-linecap:butt;stroke-linejoin:miter;stroke-miterlimit:4;stroke-dasharray:none;stroke-dashoffset:0;stroke-opacity:1;paint-order:fill markers stroke"
             id="circle2459"
             cx="-281.16028"
             cy="16.206501"
             r="2.7767372" />
          <circle
             style="opacity:1;vector-effect:none;fill:#806875;fill-opacity:1;stroke:none;stroke-width:2.19617009;stroke-linecap:butt;stroke-linejoin:miter;stroke-miterlimit:4;stroke-dasharray:none;stroke-dashoffset:0;stroke-opacity:1;paint-order:fill markers stroke"
             id="circle2461"
             cx="-276.12103"
             cy="21.040081"
             r="2.9824214" />
          <circle
             style="opacity:1;vector-effect:none;fill:#baa1b6;fill-opacity:1;stroke:none;stroke-width:2.19617009;stroke-linecap:butt;stroke-linejoin:miter;stroke-miterlimit:4;stroke-dasharray:none;stroke-dashoffset:0;stroke-opacity:1;paint-order:fill markers stroke"
             id="circle2463"
             cx="-277.45798"
             cy="16.977816"
             r="2.8281581" />
          <circle
             r="2.7767372"
             cy="17.13208"
             cx="-284.39981"
             id="circle2465"
             style="opacity:1;vector-effect:none;fill:#806875;fill-opacity:1;stroke:none;stroke-width:2.19617009;stroke-linecap:butt;stroke-linejoin:miter;stroke-miterlimit:4;stroke-dasharray:none;stroke-dashoffset:0;stroke-opacity:1;paint-order:fill markers stroke" />
          <circle
             style="opacity:1;vector-effect:none;fill:#9f819a;fill-opacity:1;stroke:none;stroke-width:2.19617009;stroke-linecap:butt;stroke-linejoin:miter;stroke-miterlimit:4;stroke-dasharray:none;stroke-dashoffset:0;stroke-opacity:1;paint-order:fill markers stroke"
             id="circle2467"
             cx="-281.00604"
             cy="19.754555"
             r="2.6738954" />
          <circle
             r="2.6738954"
             cy="23.096922"
             cx="-279.97763"
             id="circle2469"
             style="opacity:1;vector-effect:none;fill:#9f819a;fill-opacity:1;stroke:none;stroke-width:2.19617009;stroke-linecap:butt;stroke-linejoin:miter;stroke-miterlimit:4;stroke-dasharray:none;stroke-dashoffset:0;stroke-opacity:1;paint-order:fill markers stroke" />
          <circle
             r="2.1082633"
             cy="25.719397"
             cx="-285.32544"
             id="circle2471"
             style="opacity:1;vector-effect:none;fill:#9f819a;fill-opacity:1;stroke:none;stroke-width:2.19617009;stroke-linecap:butt;stroke-linejoin:miter;stroke-miterlimit:4;stroke-dasharray:none;stroke-dashoffset:0;stroke-opacity:1;paint-order:fill markers stroke" />
          <circle
             r="2.6996055"
             cy="23.89395"
             cx="-282.1116"
             id="circle2473"
             style="opacity:1;vector-effect:none;fill:#baa1b6;fill-opacity:1;stroke:none;stroke-width:2.19617009;stroke-linecap:butt;stroke-linejoin:miter;stroke-miterlimit:4;stroke-dasharray:none;stroke-dashoffset:0;stroke-opacity:1;paint-order:fill markers stroke" />
          <ellipse
             cy="17.800556"
             cx="-282.29156"
             id="ellipse2475"
             style="opacity:1;vector-effect:none;fill:#9f819a;fill-opacity:1;stroke:none;stroke-width:2.19617009;stroke-linecap:butt;stroke-linejoin:miter;stroke-miterlimit:4;stroke-dasharray:none;stroke-dashoffset:0;stroke-opacity:1;paint-order:fill markers stroke"
             rx="2.0568426"
             ry="1.9540005" />
        </g>
        <g
           id="g2483"
           transform="matrix(0.3427615,-0.10932137,0.10133503,0.36977496,-116.01132,8.5260487)"
           style="stroke-width:2.56788111">
          <path
             id="path2479"
             transform="matrix(0.26458333,0,0,0.26458333,-265.52829,-47.298512)"
             d="m -141.4043,452.95898 c -0.0113,-10e-6 -0.022,0 -0.0371,0 -6.07789,0 -12.39479,1.62792 -17.23047,5.58008 -4.83563,3.95216 -8.14523,10.2393 -8.20703,19.3711 -0.18066,25.60744 15.14366,38.91431 21.76172,43.4414 1.76614,1.20803 3.92442,1.8086 6.37696,1.8086 5.64532,0 11.1916,-3.14974 11.55273,-3.35743 l 0.0234,-0.008 0.0137,-0.0156 c 0.008,-0.005 0.002,10e-4 0.0684,-0.0293 0.0665,-0.0306 0.16818,-0.0745 0.30273,-0.11719 0.26911,-0.0853 0.66398,-0.16992 1.16602,-0.16992 0.66693,0 1.37984,0.15389 2.11719,0.47266 0.92163,0.50543 6.06739,3.22254 11.31054,3.22461 2.45258,0 4.61082,-0.60057 6.37696,-1.8086 5.3529,-3.65738 18.087955,-14.30086 21.113278,-34.22265 l 0.441406,-2.90821 c 0.391376,-15.93962 -1.584427,-23.61131 -12.96875,-28.76758 -3.602074,-1.63403 -7.845964,-2.48632 -12.283204,-2.48632 -4.50221,0 -8.6938,1.1144 -11.90039,2.61328 -8.70952,4.12095 -12.30706,-4.86971 -19.99805,-2.6211 z"
             style="color:#000000;font-style:normal;font-variant:normal;font-weight:normal;font-stretch:normal;font-size:medium;line-height:normal;font-family:sans-serif;font-variant-ligatures:normal;font-variant-position:normal;font-variant-caps:normal;font-variant-numeric:normal;font-variant-alternates:normal;font-feature-settings:normal;text-indent:0;text-align:start;text-decoration:none;text-decoration-line:none;text-decoration-style:solid;text-decoration-color:#000000;letter-spacing:normal;word-spacing:normal;text-transform:none;writing-mode:lr-tb;direction:ltr;text-orientation:mixed;dominant-baseline:auto;baseline-shift:baseline;text-anchor:start;white-space:normal;shape-padding:0;clip-rule:nonzero;display:inline;overflow:visible;visibility:visible;opacity:1;isolation:auto;mix-blend-mode:normal;color-interpolation:sRGB;color-interpolation-filters:linearRGB;solid-color:#000000;solid-opacity:1;vector-effect:none;fill:#e26926;fill-opacity:1;fill-rule:nonzero;stroke:none;stroke-width:2.56788063;stroke-linecap:butt;stroke-linejoin:miter;stroke-miterlimit:4;stroke-dasharray:none;stroke-dashoffset:0;stroke-opacity:1;color-rendering:auto;image-rendering:auto;shape-rendering:auto;text-rendering:auto;enable-background:accumulate" />
          <path
             id="path2481"
             d="m -302.82989,64.36061 c -2.7077,7.209651 1.54491,9.770212 4.94238,10.639227 2.26145,-5.879294 -3.10941,-9.957964 -4.94238,-10.639227 z"
             style="opacity:1;vector-effect:none;fill:#93b926;fill-opacity:1;stroke:none;stroke-width:3.85182118;stroke-linecap:butt;stroke-linejoin:miter;stroke-miterlimit:4;stroke-dasharray:none;stroke-dashoffset:0;stroke-opacity:1;paint-order:fill markers stroke" />
        </g>
        <g
           id="g2519"
           transform="matrix(0.65111933,0,0,0.65111933,-9.171689,64.706592)"
           style="stroke-width:1.46411335">
          <circle
             style="opacity:1;vector-effect:none;fill:#806875;fill-opacity:1;stroke:none;stroke-width:2.19617009;stroke-linecap:butt;stroke-linejoin:miter;stroke-miterlimit:4;stroke-dasharray:none;stroke-dashoffset:0;stroke-opacity:1;paint-order:fill markers stroke"
             id="circle2485"
             cx="-275.0412"
             cy="23.971081"
             r="2.9824214" />
          <path
             id="path2487"
             d="m -280.42764,15.394989 c -0.30211,-3.436915 0.12084,-4.936658 2.47723,-6.3114276 2.35639,-1.3747665 0.96672,3.0619796 0.96672,3.0619796 0,0 2.11471,-3.9993204 4.59195,-3.4369142 2.47722,0.562405 -1.14799,5.4990642 -1.14799,5.4990642 0,0 1.93344,-1.312276 3.80647,-1.124809 1.87304,0.187468 -0.96672,4.624214 -2.90017,5.24911 -1.93345,0.624894 -6.28371,0.937341 -6.16286,0.687383 0.12083,-0.249957 -1.63135,-3.624386 -1.63135,-3.624386 z"
             style="opacity:1;vector-effect:none;fill:#93b926;fill-opacity:1;stroke:none;stroke-width:2.19617009;stroke-linecap:butt;stroke-linejoin:miter;stroke-miterlimit:4;stroke-dasharray:none;stroke-dashoffset:0;stroke-opacity:1;paint-order:fill markers stroke" />
          <circle
             r="2.571053"
             cy="28.444715"
             cx="-286.25098"
             id="circle2489"
             style="opacity:1;vector-effect:none;fill:#806875;fill-opacity:1;stroke:none;stroke-width:2.19617009;stroke-linecap:butt;stroke-linejoin:miter;stroke-miterlimit:4;stroke-dasharray:none;stroke-dashoffset:0;stroke-opacity:1;paint-order:fill markers stroke" />
          <circle
             r="3.0852637"
             cy="26.902086"
             cx="-282.08588"
             id="circle2491"
             style="opacity:1;vector-effect:none;fill:#806875;fill-opacity:1;stroke:none;stroke-width:2.19617009;stroke-linecap:butt;stroke-linejoin:miter;stroke-miterlimit:4;stroke-dasharray:none;stroke-dashoffset:0;stroke-opacity:1;paint-order:fill markers stroke" />
          <circle
             r="3.2395267"
             cy="22.119925"
             cx="-283.3714"
             id="circle2493"
             style="opacity:1;vector-effect:none;fill:#806875;fill-opacity:1;stroke:none;stroke-width:2.19617009;stroke-linecap:butt;stroke-linejoin:miter;stroke-miterlimit:4;stroke-dasharray:none;stroke-dashoffset:0;stroke-opacity:1;paint-order:fill markers stroke" />
          <circle
             r="2.4167898"
             cy="24.948078"
             cx="-286.71378"
             id="circle2495"
             style="opacity:1;vector-effect:none;fill:#806875;fill-opacity:1;stroke:none;stroke-width:2.19617009;stroke-linecap:butt;stroke-linejoin:miter;stroke-miterlimit:4;stroke-dasharray:none;stroke-dashoffset:0;stroke-opacity:1;paint-order:fill markers stroke" />
          <circle
             r="3.1366847"
             cy="23.868238"
             cx="-279.05206"
             id="circle2497"
             style="opacity:1;vector-effect:none;fill:#806875;fill-opacity:1;stroke:none;stroke-width:2.19617009;stroke-linecap:butt;stroke-linejoin:miter;stroke-miterlimit:4;stroke-dasharray:none;stroke-dashoffset:0;stroke-opacity:1;paint-order:fill markers stroke" />
          <circle
             r="2.8795793"
             cy="19.49745"
             cx="-283.11429"
             id="circle2499"
             style="opacity:1;vector-effect:none;fill:#806875;fill-opacity:1;stroke:none;stroke-width:2.19617009;stroke-linecap:butt;stroke-linejoin:miter;stroke-miterlimit:4;stroke-dasharray:none;stroke-dashoffset:0;stroke-opacity:1;paint-order:fill markers stroke" />
          <circle
             r="2.7767372"
             cy="16.206501"
             cx="-281.16028"
             id="circle2501"
             style="opacity:1;vector-effect:none;fill:#806875;fill-opacity:1;stroke:none;stroke-width:2.19617009;stroke-linecap:butt;stroke-linejoin:miter;stroke-miterlimit:4;stroke-dasharray:none;stroke-dashoffset:0;stroke-opacity:1;paint-order:fill markers stroke" />
          <circle
             r="2.9824214"
             cy="21.040081"
             cx="-276.12103"
             id="circle2503"
             style="opacity:1;vector-effect:none;fill:#806875;fill-opacity:1;stroke:none;stroke-width:2.19617009;stroke-linecap:butt;stroke-linejoin:miter;stroke-miterlimit:4;stroke-dasharray:none;stroke-dashoffset:0;stroke-opacity:1;paint-order:fill markers stroke" />
          <circle
             r="2.8281581"
             cy="16.977816"
             cx="-277.45798"
             id="circle2505"
             style="opacity:1;vector-effect:none;fill:#baa1b6;fill-opacity:1;stroke:none;stroke-width:2.19617009;stroke-linecap:butt;stroke-linejoin:miter;stroke-miterlimit:4;stroke-dasharray:none;stroke-dashoffset:0;stroke-opacity:1;paint-order:fill markers stroke" />
          <circle
             style="opacity:1;vector-effect:none;fill:#806875;fill-opacity:1;stroke:none;stroke-width:2.19617009;stroke-linecap:butt;stroke-linejoin:miter;stroke-miterlimit:4;stroke-dasharray:none;stroke-dashoffset:0;stroke-opacity:1;paint-order:fill markers stroke"
             id="circle2507"
             cx="-284.39981"
             cy="17.13208"
             r="2.7767372" />
          <circle
             r="2.6738954"
             cy="19.754555"
             cx="-281.00604"
             id="circle2509"
             style="opacity:1;vector-effect:none;fill:#9f819a;fill-opacity:1;stroke:none;stroke-width:2.19617009;stroke-linecap:butt;stroke-linejoin:miter;stroke-miterlimit:4;stroke-dasharray:none;stroke-dashoffset:0;stroke-opacity:1;paint-order:fill markers stroke" />
          <circle
             style="opacity:1;vector-effect:none;fill:#9f819a;fill-opacity:1;stroke:none;stroke-width:2.19617009;stroke-linecap:butt;stroke-linejoin:miter;stroke-miterlimit:4;stroke-dasharray:none;stroke-dashoffset:0;stroke-opacity:1;paint-order:fill markers stroke"
             id="circle2511"
             cx="-279.97763"
             cy="23.096922"
             r="2.6738954" />
          <circle
             style="opacity:1;vector-effect:none;fill:#9f819a;fill-opacity:1;stroke:none;stroke-width:2.19617009;stroke-linecap:butt;stroke-linejoin:miter;stroke-miterlimit:4;stroke-dasharray:none;stroke-dashoffset:0;stroke-opacity:1;paint-order:fill markers stroke"
             id="circle2513"
             cx="-285.32544"
             cy="25.719397"
             r="2.1082633" />
          <circle
             style="opacity:1;vector-effect:none;fill:#baa1b6;fill-opacity:1;stroke:none;stroke-width:2.19617009;stroke-linecap:butt;stroke-linejoin:miter;stroke-miterlimit:4;stroke-dasharray:none;stroke-dashoffset:0;stroke-opacity:1;paint-order:fill markers stroke"
             id="circle2515"
             cx="-282.1116"
             cy="23.89395"
             r="2.6996055" />
          <ellipse
             ry="1.9540005"
             rx="2.0568426"
             style="opacity:1;vector-effect:none;fill:#9f819a;fill-opacity:1;stroke:none;stroke-width:2.19617009;stroke-linecap:butt;stroke-linejoin:miter;stroke-miterlimit:4;stroke-dasharray:none;stroke-dashoffset:0;stroke-opacity:1;paint-order:fill markers stroke"
             id="ellipse2517"
             cx="-282.29156"
             cy="17.800556" />
        </g>
        <g
           id="g2525"
           transform="matrix(-0.44552071,-0.09954568,-0.09954568,0.44552071,-328.55121,7.6300362)"
           style="stroke-width:2.08827877">
          <path
             id="path2521"
             transform="matrix(0.26458333,0,0,0.26458333,-265.52829,-47.298512)"
             d="m -141.4043,452.95898 c -0.0113,-10e-6 -0.022,0 -0.0371,0 -6.07789,0 -12.39479,1.62792 -17.23047,5.58008 -4.83563,3.95216 -8.14523,10.2393 -8.20703,19.3711 -0.18066,25.60744 15.14366,38.91431 21.76172,43.4414 1.76614,1.20803 3.92442,1.8086 6.37696,1.8086 5.64532,0 11.1916,-3.14974 11.55273,-3.35743 l 0.0234,-0.008 0.0137,-0.0156 c 0.008,-0.005 0.002,10e-4 0.0684,-0.0293 0.0665,-0.0306 0.16818,-0.0745 0.30273,-0.11719 0.26911,-0.0853 0.66398,-0.16992 1.16602,-0.16992 0.66693,0 1.37984,0.15389 2.11719,0.47266 0.92163,0.50543 6.06739,3.22254 11.31054,3.22461 2.45258,0 4.61082,-0.60057 6.37696,-1.8086 5.3529,-3.65738 18.087955,-14.30086 21.113278,-34.22265 l 0.441406,-2.90821 c 0.391376,-15.93962 -1.584427,-23.61131 -12.96875,-28.76758 -3.602074,-1.63403 -7.845964,-2.48632 -12.283204,-2.48632 -4.50221,0 -8.6938,1.1144 -11.90039,2.61328 -8.70952,4.12095 -12.30706,-4.86971 -19.99805,-2.6211 z"
             style="color:#000000;font-style:normal;font-variant:normal;font-weight:normal;font-stretch:normal;font-size:medium;line-height:normal;font-family:sans-serif;font-variant-ligatures:normal;font-variant-position:normal;font-variant-caps:normal;font-variant-numeric:normal;font-variant-alternates:normal;font-feature-settings:normal;text-indent:0;text-align:start;text-decoration:none;text-decoration-line:none;text-decoration-style:solid;text-decoration-color:#000000;letter-spacing:normal;word-spacing:normal;text-transform:none;writing-mode:lr-tb;direction:ltr;text-orientation:mixed;dominant-baseline:auto;baseline-shift:baseline;text-anchor:start;white-space:normal;shape-padding:0;clip-rule:nonzero;display:inline;overflow:visible;visibility:visible;opacity:1;isolation:auto;mix-blend-mode:normal;color-interpolation:sRGB;color-interpolation-filters:linearRGB;solid-color:#000000;solid-opacity:1;vector-effect:none;fill:#e26926;fill-opacity:1;fill-rule:nonzero;stroke:none;stroke-width:2.08827877;stroke-linecap:butt;stroke-linejoin:miter;stroke-miterlimit:4;stroke-dasharray:none;stroke-dashoffset:0;stroke-opacity:1;color-rendering:auto;image-rendering:auto;shape-rendering:auto;text-rendering:auto;enable-background:accumulate" />
          <path
             id="path2523"
             d="m -302.82989,64.36061 c -2.7077,7.209651 1.54491,9.770212 4.94238,10.639227 2.26145,-5.879294 -3.10941,-9.957964 -4.94238,-10.639227 z"
             style="opacity:1;vector-effect:none;fill:#93b926;fill-opacity:1;stroke:none;stroke-width:3.13241768;stroke-linecap:butt;stroke-linejoin:miter;stroke-miterlimit:4;stroke-dasharray:none;stroke-dashoffset:0;stroke-opacity:1;paint-order:fill markers stroke" />
        </g>
        <path
           style="opacity:1;vector-effect:none;fill:#e7dc39;fill-opacity:1;stroke:none;stroke-width:1.42996895;stroke-linecap:butt;stroke-linejoin:miter;stroke-miterlimit:4;stroke-dasharray:none;stroke-dashoffset:0;stroke-opacity:1;paint-order:fill markers stroke"
           d="m -220.79965,71.329309 a 0.96813455,0.84467666 55.418118 0 0 -0.14603,1.276482 0.96813455,0.84467666 55.418118 0 0 0.0392,0.05339 4.1186739,3.5335638 55.418118 0 0 0.17,4.665349 4.1186739,3.5335638 55.418118 0 0 4.8432,1.615354 1.0173617,0.88691051 55.418118 0 0 0.021,0.03397 1.0173617,0.88691051 55.418118 0 0 1.30763,0.33411 1.0173617,0.88691051 55.418118 0 0 0.15287,-1.340958 1.0173617,0.88691051 55.418118 0 0 -0.18564,-0.209383 4.1186739,3.5335638 55.418118 0 0 -0.32079,-4.44413 4.1186739,3.5335638 55.418118 0 0 -4.66063,-1.69845 0.96813455,0.84467666 55.418118 0 0 -1.22115,-0.285522 z"
           id="path2527" />
        <path
           id="path2529"
           d="m -220.29846,65.355293 a 0.84467666,0.96813455 39.939758 0 0 -1.26916,0.199927 0.84467666,0.96813455 39.939758 0 0 -0.041,0.05203 3.5335638,4.1186739 39.939758 0 0 -4.45077,1.408896 3.5335638,4.1186739 39.939758 0 0 -0.26424,5.09864 0.88691051,1.0173617 39.939758 0 0 -0.0271,0.0293 0.88691051,1.0173617 39.939758 0 0 0.027,1.34937 0.88691051,1.0173617 39.939758 0 0 1.33312,-0.210542 0.88691051,1.0173617 39.939758 0 0 0.15225,-0.234786 3.5335638,4.1186739 39.939758 0 0 4.19734,-1.49518 3.5335638,4.1186739 39.939758 0 0 0.39304,-4.944868 0.84467666,0.96813455 39.939758 0 0 -0.0507,-1.253059 z"
           style="opacity:1;vector-effect:none;fill:#e7dc39;fill-opacity:1;stroke:none;stroke-width:1.42996895;stroke-linecap:butt;stroke-linejoin:miter;stroke-miterlimit:4;stroke-dasharray:none;stroke-dashoffset:0;stroke-opacity:1;paint-order:fill markers stroke" />
        <g
           style="stroke-width:2.08827877"
           transform="matrix(0.45638337,0.01059538,-0.01059538,0.45638337,-71.723429,46.025226)"
           id="g2535">
          <path
             style="color:#000000;font-style:normal;font-variant:normal;font-weight:normal;font-stretch:normal;font-size:medium;line-height:normal;font-family:sans-serif;font-variant-ligatures:normal;font-variant-position:normal;font-variant-caps:normal;font-variant-numeric:normal;font-variant-alternates:normal;font-feature-settings:normal;text-indent:0;text-align:start;text-decoration:none;text-decoration-line:none;text-decoration-style:solid;text-decoration-color:#000000;letter-spacing:normal;word-spacing:normal;text-transform:none;writing-mode:lr-tb;direction:ltr;text-orientation:mixed;dominant-baseline:auto;baseline-shift:baseline;text-anchor:start;white-space:normal;shape-padding:0;clip-rule:nonzero;display:inline;overflow:visible;visibility:visible;opacity:1;isolation:auto;mix-blend-mode:normal;color-interpolation:sRGB;color-interpolation-filters:linearRGB;solid-color:#000000;solid-opacity:1;vector-effect:none;fill:#e26926;fill-opacity:1;fill-rule:nonzero;stroke:none;stroke-width:2.08827877;stroke-linecap:butt;stroke-linejoin:miter;stroke-miterlimit:4;stroke-dasharray:none;stroke-dashoffset:0;stroke-opacity:1;color-rendering:auto;image-rendering:auto;shape-rendering:auto;text-rendering:auto;enable-background:accumulate"
             d="m -141.4043,452.95898 c -0.0113,-10e-6 -0.022,0 -0.0371,0 -6.07789,0 -12.39479,1.62792 -17.23047,5.58008 -4.83563,3.95216 -8.14523,10.2393 -8.20703,19.3711 -0.18066,25.60744 15.14366,38.91431 21.76172,43.4414 1.76614,1.20803 3.92442,1.8086 6.37696,1.8086 5.64532,0 11.1916,-3.14974 11.55273,-3.35743 l 0.0234,-0.008 0.0137,-0.0156 c 0.008,-0.005 0.002,10e-4 0.0684,-0.0293 0.0665,-0.0306 0.16818,-0.0745 0.30273,-0.11719 0.26911,-0.0853 0.66398,-0.16992 1.16602,-0.16992 0.66693,0 1.37984,0.15389 2.11719,0.47266 0.92163,0.50543 6.06739,3.22254 11.31054,3.22461 2.45258,0 4.61082,-0.60057 6.37696,-1.8086 5.3529,-3.65738 18.087955,-14.30086 21.113278,-34.22265 l 0.441406,-2.90821 c 0.391376,-15.93962 -1.584427,-23.61131 -12.96875,-28.76758 -3.602074,-1.63403 -7.845964,-2.48632 -12.283204,-2.48632 -4.50221,0 -8.6938,1.1144 -11.90039,2.61328 -8.70952,4.12095 -12.30706,-4.86971 -19.99805,-2.6211 z"
             transform="matrix(0.26458333,0,0,0.26458333,-265.52829,-47.298512)"
             id="path2531" />
          <path
             style="opacity:1;vector-effect:none;fill:#93b926;fill-opacity:1;stroke:none;stroke-width:3.13241768;stroke-linecap:butt;stroke-linejoin:miter;stroke-miterlimit:4;stroke-dasharray:none;stroke-dashoffset:0;stroke-opacity:1;paint-order:fill markers stroke"
             d="m -302.82989,64.36061 c -2.7077,7.209651 1.54491,9.770212 4.94238,10.639227 2.26145,-5.879294 -3.10941,-9.957964 -4.94238,-10.639227 z"
             id="path2533" />
        </g>
        <path
           id="path2537"
           d="m -222.03224,75.167435 a 0.84467666,0.96813455 33.978254 0 0 -1.24153,0.33066 0.84467666,0.96813455 33.978254 0 0 -0.0354,0.056 3.5335638,4.1186739 33.978254 0 0 -4.28038,1.863535 3.5335638,4.1186739 33.978254 0 0 0.26674,5.098511 0.88691051,1.0173617 33.978254 0 0 -0.024,0.03196 0.88691051,1.0173617 33.978254 0 0 0.16698,1.33927 0.88691051,1.0173617 33.978254 0 0 1.30405,-0.347861 0.88691051,1.0173617 33.978254 0 0 0.12703,-0.249329 3.5335638,4.1186739 33.978254 0 0 4.01935,-1.92303 3.5335638,4.1186739 33.978254 0 0 -0.12265,-4.958948 0.84467666,0.96813455 33.978254 0 0 -0.1806,-1.241013 z"
           style="opacity:1;vector-effect:none;fill:#e7dc39;fill-opacity:1;stroke:none;stroke-width:1.42996895;stroke-linecap:butt;stroke-linejoin:miter;stroke-miterlimit:4;stroke-dasharray:none;stroke-dashoffset:0;stroke-opacity:1;paint-order:fill markers stroke" />
        <path
           style="opacity:1;vector-effect:none;fill:#799a1f;fill-opacity:1;stroke:none;stroke-width:0.95331252;stroke-linecap:butt;stroke-linejoin:miter;stroke-miterlimit:4;stroke-dasharray:none;stroke-dashoffset:0;stroke-opacity:1;paint-order:fill markers stroke"
           d="m -259.92826,48.799901 v 2.203446 c 0,1.819613 1.25553,3.284501 2.81511,3.284501 1.55958,0 2.81512,-1.464888 2.81512,-3.284501 0,1.819613 1.25554,3.284501 2.81512,3.284501 1.55956,0 2.81511,-1.464888 2.81511,-3.284501 0,1.819613 1.25554,3.284501 2.81513,3.284501 1.55958,0 2.81512,-1.464888 2.81512,-3.284501 0,1.819613 1.25553,3.284501 2.81512,3.284501 1.55956,0 2.81511,-1.464888 2.81511,-3.284501 0,1.819613 1.25553,3.284501 2.81512,3.284501 1.55957,0 2.81512,-1.464888 2.81512,-3.284501 0,1.819613 1.25553,3.284501 2.81512,3.284501 1.55958,0 2.81512,-1.464888 2.81512,-3.284501 0,1.819613 1.25554,3.284501 2.81512,3.284501 1.55957,0 2.81511,-1.464888 2.81511,-3.284501 0,1.819613 1.25553,3.284501 2.81512,3.284501 1.55958,0 2.81513,-1.464888 2.81513,-3.284501 0,1.819613 1.25553,3.284501 2.81511,3.284501 1.55958,0 2.81512,-1.464888 2.81512,-3.284501 0,1.819613 1.25553,3.284501 2.81512,3.284501 1.55958,0 2.81512,-1.464888 2.81512,-3.284501 0,1.819613 1.25553,3.284501 2.81511,3.284501 1.55958,0 2.81512,-1.464888 2.81512,-3.284501 0,1.819613 1.25554,3.284501 2.81512,3.284501 1.55958,0 2.81512,-1.464888 2.81512,-3.284501 0,1.819613 1.25553,3.284501 2.81512,3.284501 1.55957,0 2.81512,-1.464888 2.81512,-3.284501 0,1.819613 1.25554,3.284501 2.81511,3.284501 1.55958,0 2.81512,-1.464888 2.81512,-3.284501 v -2.203446 h -5.63023 -5.63024 -5.63024 -5.63023 -5.63024 -5.63023 -5.63025 -5.63023 -5.63024 -5.63024 -5.63023 -5.63025 -5.63023 z"
           id="path2541" />
        <path
           style="opacity:1;vector-effect:none;fill:#93b926;fill-opacity:1;stroke:none;stroke-width:1.42996895;stroke-linecap:butt;stroke-linejoin:miter;stroke-miterlimit:4;stroke-dasharray:none;stroke-dashoffset:0;stroke-opacity:1;paint-order:fill markers stroke"
           d="m -259.46061,40.029407 77.23443,-0.411368 1.02842,9.255791 -78.67422,0.102842 z"
           id="path2543" />
      </g>
    </g>
    <path
       id="path2436"
       d="m 62.608557,184.2053 c -0.257402,-0.006 -0.541491,0.008 -0.9648,0.0393 -2.454138,0.18295 -2.623542,0.21979 -3.902086,0.83923 -1.267388,0.61404 -2.066475,1.37001 -2.176613,2.05879 -0.03296,0.20601 -0.165658,0.40948 -0.524515,0.80408 -0.837449,0.92082 -1.070026,1.31283 -1.63711,2.76314 -0.557654,1.4262 -0.647991,1.83375 -0.641302,2.89543 0.0069,1.09267 0.3131,3.02269 0.542084,3.4184 0.07606,0.13144 0.13839,0.29393 0.138493,0.36121 7.4e-5,0.0672 0.215244,0.64258 0.478007,1.27848 1.011092,2.44689 1.268037,3.36347 1.26814,4.51652 3.4e-5,0.37757 -0.01093,0.75147 -0.02429,0.83096 -0.02053,0.12181 0.01011,0.14057 0.192754,0.1204 0.302292,-0.0334 0.514522,-0.18623 0.77773,-0.55965 l 0.226343,-0.32091 0.158131,0.43614 c 0.161851,0.44699 0.493501,1.01028 0.594794,1.01028 0.100571,0 0.22996,-0.16963 0.22996,-0.30127 0,-0.11308 0.0305,-0.10719 0.263035,0.0506 0.144648,0.0982 0.294804,0.17828 0.333312,0.17828 0.108246,0 0.0031,0.32142 -0.316775,0.96945 l -0.290939,0.59015 -0.482142,0.0765 c -0.352766,0.0556 -0.768223,0.21651 -1.550294,0.60151 -1.155208,0.56867 -1.182775,0.59442 -1.356506,1.28468 -0.06246,0.24815 -0.14084,0.3937 -0.227375,0.42116 -0.07266,0.0231 -0.31501,0.27489 -0.538985,0.56017 -0.584745,0.74479 -0.826768,0.98974 -1.758551,1.77767 -1.01686,0.85988 -1.570738,1.27027 -2.341459,1.73581 -1.131432,0.68342 -1.680985,1.33308 -2.021581,2.389 -0.372216,1.15398 -0.872508,2.31089 -1.534789,3.55069 -2.671851,5.00169 -4.991981,10.96141 -5.772771,14.82804 -0.13516,0.66933 -0.28654,1.26642 -0.33642,1.32653 -0.12223,0.14727 -0.16937,1.3525 -0.0677,1.72961 0.34384,1.27545 3.1556,3.9109 6.164483,5.77794 0.759508,0.47128 0.912548,0.59505 0.885219,0.71521 -0.157726,0.6935 -0.453567,3.7415 -0.513149,5.28495 l -0.04806,1.23764 -0.476972,0.0393 c -0.262207,0.0218 -1.517181,0.0363 -2.788981,0.032 -1.27179,-0.004 -2.38247,0.0155 -2.46858,0.0444 -0.0861,0.0289 -0.19223,0.15453 -0.23564,0.27905 -0.10842,0.31102 -0.39767,2.17105 -0.62116,3.99511 -0.10225,0.83462 -0.26407,2.10252 -0.35966,2.81791 -0.0956,0.7154 -0.2418,2.17891 -0.32505,3.252 -0.37992,4.89818 -0.71973,7.93315 -1.12086,10.00818 -0.13445,0.69551 -0.26545,1.33401 -0.29094,1.41903 -0.0414,0.13819 0.006,0.17169 0.44752,0.31781 0.27175,0.0899 1.20974,0.45142 2.08411,0.80305 1.03206,0.41506 1.68677,0.63919 1.86604,0.63924 0.16048,5e-5 0.32584,0.0504 0.39532,0.11989 0.10746,0.10745 0.30283,0.11489 1.92805,0.0729 3.442803,-0.089 4.833135,-0.20385 7.300327,-0.60203 0.506455,-0.0817 0.758555,-0.15669 0.842844,-0.25114 0.113818,-0.12753 0.122131,-0.10704 0.161747,0.38912 0.02302,0.28834 0.07593,0.94731 0.117306,1.46399 0.100047,1.2493 0.244941,2.49446 0.457338,3.90623 h 26.448514 c 0.173958,-2.65153 0.275722,-5.5226 0.300755,-8.56744 0.01717,-2.08655 0.05098,-3.92789 0.07545,-4.09226 0.02445,-0.16436 0.01111,-0.36199 -0.02997,-0.43873 -0.06625,-0.12379 -0.02252,-0.1652 0.388607,-0.36794 0.56496,-0.2786 0.590002,-0.34987 0.439251,-1.2547 -0.09766,-0.58612 -0.227426,-1.8511 -0.373105,-3.6375 -0.02267,-0.27821 -0.103069,-0.97762 -0.1788,-1.55392 -0.202139,-1.53824 -0.347009,-2.92963 -0.432533,-4.15478 -0.272196,-3.89943 -0.827418,-7.78193 -1.261422,-8.82065 -0.0606,-0.14503 -0.222962,-0.41747 -0.360702,-0.60513 -0.301294,-0.41044 -0.384664,-0.61464 -0.505393,-1.24179 l -0.09198,-0.47852 0.242879,-0.38551 c 0.269145,-0.42686 0.290793,-0.61322 0.14056,-1.21233 -0.05626,-0.22431 -0.123431,-0.5418 -0.149344,-0.7059 l -0.04703,-0.29868 0.817523,-0.39326 c 0.872929,-0.42008 1.350311,-0.70243 3.455601,-2.04587 0.735264,-0.46918 1.907297,-1.21397 2.604492,-1.65468 1.217586,-0.76963 1.556763,-1.0039 2.995684,-2.07068 0.357693,-0.26519 0.911929,-0.65699 1.231448,-0.87075 0.728757,-0.48754 1.746797,-1.29556 1.801958,-1.42988 0.02291,-0.056 0.05742,-0.4923 0.07648,-0.96997 0.01902,-0.47767 0.04254,-0.87593 0.05219,-0.8847 0.69826,-0.63525 1.832637,-1.50943 2.232422,-1.72031 0.655942,-0.34602 0.750843,-0.42737 0.997871,-0.85886 0.142544,-0.24899 0.319339,-0.41931 0.638723,-0.61443 1.137536,-0.69494 2.369963,-1.87982 2.582788,-2.48306 0.187606,-0.53172 0.39429,-1.41085 0.39429,-1.67741 0,-0.16823 -0.064,-0.32904 -0.190169,-0.47904 l -0.190169,-0.22583 0.150894,-0.52038 c 0.268772,-0.92731 0.270275,-1.01065 0.02429,-1.29088 -0.212413,-0.24191 -0.217226,-0.26504 -0.209807,-0.97151 0.0067,-0.61363 -0.01759,-0.77492 -0.156062,-1.06092 l -0.163298,-0.33745 0.142627,-0.38085 c 0.212277,-0.56733 1.550363,-3.76714 1.838131,-4.3956 0.137592,-0.30045 0.307547,-0.72329 0.377754,-0.93948 0.07023,-0.21621 0.15635,-0.42424 0.191204,-0.46199 0.150699,-0.16322 0.06502,-0.59208 -0.173633,-0.86816 l -0.237196,-0.27388 -0.973582,-0.0527 c -0.535258,-0.0288 -1.721811,-0.046 -2.63705,-0.0382 -1.612847,0.0137 -1.673492,0.0195 -1.966288,0.1881 -0.354729,0.20416 -0.429209,0.35005 -1.538406,2.99258 -0.717839,1.71015 -1.389113,3.44691 -2.261878,5.85287 -0.410835,1.13254 -0.444958,1.27071 -0.432533,1.76992 0.01243,0.49933 0.02957,0.55433 0.21704,0.70435 0.111821,0.0895 0.242054,0.1631 0.289388,0.1633 0.150755,5.2e-4 0.168839,0.12201 0.05788,0.38757 -0.124008,0.29678 -0.13734,0.81925 -0.03152,1.23817 0.04016,0.15897 0.104269,0.58177 0.14211,0.93948 0.03785,0.35768 0.08765,0.73303 0.111104,0.83405 0.03391,0.14607 -0.02659,0.26832 -0.296622,0.59635 -0.186767,0.22686 -0.370226,0.41238 -0.40721,0.41238 -0.03701,0 -0.186579,-0.0809 -0.332795,-0.18035 -0.146225,-0.0994 -0.337151,-0.18087 -0.424265,-0.18087 -0.08711,0 -0.599966,0.29197 -1.139465,0.64905 -1.260557,0.83436 -1.612601,1.00821 -2.949691,1.45573 -0.606248,0.2029 -1.373619,0.51156 -1.705322,0.68575 -0.3317,0.17415 -0.659366,0.31677 -0.727604,0.31677 -0.06823,0 -0.215625,0.096 -0.328144,0.21343 -0.11252,0.11743 -0.345795,0.2616 -0.518317,0.32039 -0.172524,0.0588 -0.501581,0.24137 -0.730705,0.40566 l -0.416512,0.29869 -0.03979,-0.28784 c -0.04874,-0.34916 -0.176604,-0.51676 -0.393255,-0.51676 -0.139256,0 -0.169,-0.049 -0.208256,-0.34314 -0.03246,-0.24327 -0.129659,-0.45447 -0.334349,-0.7245 -0.158832,-0.20955 -0.364485,-0.50194 -0.456819,-0.65009 -0.186981,-0.3 -0.672227,-1.56924 -0.918289,-2.4014 -0.173607,-0.58713 -1.049132,-2.78829 -1.480013,-3.72122 -0.146852,-0.31795 -0.392208,-0.8751 -0.545188,-1.23817 -0.247496,-0.58741 -1.651804,-3.35158 -2.601907,-5.12113 -0.192056,-0.35769 -0.371623,-0.79629 -0.398944,-0.97514 -0.02731,-0.17884 -0.08189,-0.39026 -0.121438,-0.46974 -0.279427,-0.5616 -1.203436,-1.31004 -2.473751,-2.00401 -0.397436,-0.21713 -0.916504,-0.52189 -1.153417,-0.67696 -0.236916,-0.15508 -0.916654,-0.52565 -1.510504,-0.82372 l -1.079521,-0.54209 -0.193786,-0.55655 c -0.106677,-0.30609 -0.235635,-0.60662 -0.286287,-0.66766 -0.05065,-0.061 -0.283773,-0.18081 -0.517797,-0.26614 -0.23403,-0.0853 -0.425297,-0.16394 -0.425297,-0.17518 0,-0.0113 0.129662,-0.38332 0.288354,-0.82631 0.345014,-0.96313 1.021863,-2.18619 1.346686,-2.43395 0.219493,-0.16743 0.257982,-0.17307 0.649058,-0.10077 0.22874,0.0423 0.714097,0.0765 1.078486,0.0765 0.570214,0 0.697151,-0.0228 0.908474,-0.16485 0.274777,-0.18476 0.415499,-0.50929 0.421677,-0.97048 0.003,-0.23219 0.04022,-0.32352 0.15503,-0.38499 0.19142,-0.10245 0.370252,-0.5249 0.315227,-0.74414 -0.03236,-0.12884 0.02019,-0.23051 0.224793,-0.43512 0.265853,-0.26585 0.266504,-0.26837 0.216005,-0.71468 -0.06279,-0.55496 -0.05819,-0.49496 -0.04806,-0.68006 0.0069,-0.12508 0.06876,-0.1662 0.311611,-0.20723 0.378841,-0.064 0.708811,-0.37226 0.706932,-0.66042 -0.0021,-0.32622 -0.200263,-1.36133 -0.440282,-2.30012 -0.256757,-1.00425 -0.248341,-1.60816 0.02791,-2.05517 0.176914,-0.28626 0.195424,-0.78858 0.07028,-1.88309 -0.05484,-0.47965 -0.04923,-0.63807 0.02379,-0.72296 0.05143,-0.0597 0.213971,-0.36224 0.361217,-0.6723 0.431567,-0.90875 0.425553,-1.6981 -0.01963,-2.63912 -0.24361,-0.51494 -1.479296,-1.75836 -2.731617,-2.74867 -0.516667,-0.40856 -1.053068,-0.84461 -1.192173,-0.96945 -0.139102,-0.12481 -0.350506,-0.28944 -0.469738,-0.36587 -0.119235,-0.0765 -0.346729,-0.25024 -0.505397,-0.38602 -0.188883,-0.16166 -0.337227,-0.23391 -0.429432,-0.20981 -0.08468,0.0222 -0.305297,-0.0632 -0.553452,-0.21394 -0.655953,-0.39848 -0.99037,-0.51825 -1.799892,-0.64337 -0.317481,-0.0491 -0.548233,-0.0751 -0.805635,-0.0811 z m -12.528433,44.64068 c 0.01077,0.0126 0.123364,0.42923 0.250113,0.92605 0.410297,1.60815 1.289338,4.28854 1.81591,5.53764 0.442327,1.04927 1.368393,3.49723 1.36839,3.61683 0,0.0221 -0.07283,-0.0128 -0.162263,-0.0775 -0.08942,-0.0647 -0.498907,-0.31884 -0.909506,-0.56534 -0.473392,-0.28418 -0.784288,-0.52184 -0.850077,-0.64906 -0.128315,-0.24814 -0.493609,-0.44565 -0.718817,-0.38912 -0.209222,0.0525 -1.11673,-0.50147 -1.11673,-0.68161 0,-0.24689 -0.501986,-0.57723 -0.876948,-0.57723 -0.137358,0 -0.394017,-0.096 -0.613399,-0.22893 -0.312984,-0.18968 -0.389266,-0.27763 -0.450618,-0.51934 -0.0701,-0.27618 -0.06127,-0.30574 0.174665,-0.56689 0.136821,-0.15144 0.248563,-0.32722 0.248563,-0.39068 0,-0.0634 -0.113535,-0.2293 -0.252696,-0.36845 l -0.253214,-0.2527 0.327628,-0.36432 c 0.454163,-0.50515 0.787109,-1.13069 1.112595,-2.09031 0.317627,-0.9365 0.87726,-2.3931 0.906404,-2.35903 z m -2.472719,14.75776 c 0.02643,-0.0264 1.276323,0.61749 1.543576,0.7953 0.0045,0.003 -0.01852,0.39589 -0.05168,0.87281 -0.04793,0.68859 -0.115012,1.99617 -0.134358,2.61948 -0.0021,0.061 -0.132686,0.0904 -0.403593,0.0904 -0.577935,0 -0.72454,0.16546 -0.792715,0.89297 l -0.05168,0.55242 h -0.351917 -0.351917 l 0.03669,-0.41547 c 0.02013,-0.22853 0.08518,-0.98449 0.144696,-1.68 0.142893,-1.67016 0.365503,-3.68055 0.412893,-3.72794 z m 2.759006,1.4335 c 0.0091,-0.01 0.152008,0.039 0.317294,0.10852 0.350906,0.14749 0.340055,0.0762 0.225308,1.53531 -0.104923,1.33428 -0.08966,1.28666 -0.411345,1.32033 -0.148878,0.0155 -0.298876,0.0336 -0.333311,0.0403 -0.03445,0.007 -0.04303,-0.19086 -0.01913,-0.43925 0.02397,-0.2484 0.07959,-0.92336 0.124024,-1.49965 0.04444,-0.57629 0.08813,-1.05573 0.09715,-1.06557 z m 1.888773,0.80512 c 0.126817,0.003 0.479385,0.11631 0.561205,0.18965 0.03317,0.0298 -0.01244,0.47321 -0.100769,0.98547 l -0.160197,0.93173 h -0.287319 -0.286806 l 0.04134,-0.36329 c 0.02278,-0.19962 0.06377,-0.66466 0.09095,-1.03352 0.02716,-0.36887 0.07345,-0.68569 0.102838,-0.70384 0.0075,-0.005 0.02064,-0.007 0.03876,-0.006 z"
       style="display:inline;opacity:0.772;fill:#ffffff;stroke-width:0.99999988" />
    <path
       id="path2438"
       d="m 68.240452,201.79422 c 0.262429,0.57774 0.82279,0.9201 1.395703,1.04062 l 0.05834,-0.26209 c -0.520552,-0.0584 -1.191696,-0.5223 -1.400683,-0.85538 -0.02982,-0.0475 -0.08898,0.024 -0.05336,0.0767 z"
       style="color:#000000;font-style:normal;font-variant:normal;font-weight:normal;font-stretch:normal;font-size:medium;line-height:normal;font-family:sans-serif;font-variant-ligatures:normal;font-variant-position:normal;font-variant-caps:normal;font-variant-numeric:normal;font-variant-alternates:normal;font-feature-settings:normal;text-indent:0;text-align:start;text-decoration:none;text-decoration-line:none;text-decoration-style:solid;text-decoration-color:#000000;letter-spacing:normal;word-spacing:normal;text-transform:none;writing-mode:lr-tb;direction:ltr;text-orientation:mixed;dominant-baseline:auto;baseline-shift:baseline;text-anchor:start;white-space:normal;shape-padding:0;clip-rule:nonzero;display:inline;overflow:visible;visibility:visible;opacity:1;isolation:auto;mix-blend-mode:normal;color-interpolation:sRGB;color-interpolation-filters:linearRGB;solid-color:#000000;solid-opacity:1;vector-effect:none;fill:#ffffff;fill-opacity:1;fill-rule:nonzero;stroke:none;stroke-width:0.30000001;stroke-linecap:butt;stroke-linejoin:miter;stroke-miterlimit:4;stroke-dasharray:none;stroke-dashoffset:0;stroke-opacity:1;paint-order:fill markers stroke;color-rendering:auto;image-rendering:auto;shape-rendering:auto;text-rendering:auto;enable-background:accumulate" />
    <path
       style="display:inline;fill:#95c11d;fill-opacity:1;stroke-width:0.26458338"
       d="m 95.766077,213.81401 q 0,-0.0732 -0.04703,-0.11173 l -0.23775,-0.19236 q -0.04964,-0.0407 -0.11757,-0.0286 -0.06792,0.0122 -0.117568,0.0708 l -1.065956,1.2551 -0.590454,-0.48423 q -0.04964,-0.0407 -0.117571,-0.0286 -0.06793,0.0122 -0.117567,0.0708 l -0.237752,0.27792 q -0.04704,0.0556 -0.04704,0.12864 0,0.0706 0.04704,0.1091 l 0.945777,0.77565 q 0.04964,0.0407 0.117567,0.0286 0.07054,-0.0127 0.120182,-0.0713 l 1.418662,-1.67385 q 0.04703,-0.0555 0.04703,-0.12602 z m 0.658387,0.30481 q 0,0.54604 -0.269103,1.05558 -0.269102,0.50955 -0.730231,0.86159 -0.461132,0.35205 -1.007171,0.45028 -0.546044,0.0983 -1.007174,-0.0879 -0.461131,-0.18614 -0.730231,-0.59887 -0.269102,-0.41272 -0.269102,-0.95877 0,-0.54603 0.269102,-1.05557 0.2691,-0.50955 0.730231,-0.86159 0.46113,-0.35205 1.007174,-0.45028 0.546039,-0.0983 1.007171,0.0879 0.461129,0.18615 0.730231,0.59886 0.269103,0.41274 0.269103,0.95878 z"
       id="path2440" />
  </g>
</svg>
