<?xml version="1.0" encoding="UTF-8" standalone="no"?>
<!-- Created with Inkscape (http://www.inkscape.org/) -->

<svg
   xmlns:dc="http://purl.org/dc/elements/1.1/"
   xmlns:cc="http://creativecommons.org/ns#"
   xmlns:rdf="http://www.w3.org/1999/02/22-rdf-syntax-ns#"
   xmlns:svg="http://www.w3.org/2000/svg"
   xmlns="http://www.w3.org/2000/svg"
   xmlns:sodipodi="http://sodipodi.sourceforge.net/DTD/sodipodi-0.dtd"
   xmlns:inkscape="http://www.inkscape.org/namespaces/inkscape"
   width="144.43683mm"
   height="114.69299mm"
   viewBox="0 0 144.43683 114.69299"
   version="1.1"
   id="svg2662"
   inkscape:version="0.92.5 (0.92.5+68)"
   sodipodi:docname="fruttarolo.svg">
  <defs
     id="defs2656" />
  <sodipodi:namedview
     id="base"
     pagecolor="#ffffff"
     bordercolor="#666666"
     borderopacity="1.0"
     inkscape:pageopacity="0.0"
     inkscape:pageshadow="2"
     inkscape:zoom="0.35"
     inkscape:cx="-239.90566"
     inkscape:cy="336.74265"
     inkscape:document-units="mm"
     inkscape:current-layer="layer1"
     showgrid="false"
     fit-margin-top="0"
     fit-margin-left="0"
     fit-margin-right="0"
     fit-margin-bottom="0"
     inkscape:window-width="1920"
     inkscape:window-height="1053"
     inkscape:window-x="0"
     inkscape:window-y="0"
     inkscape:window-maximized="1" />
  <metadata
     id="metadata2659">
    <rdf:RDF>
      <cc:Work
         rdf:about="">
        <dc:format>image/svg+xml</dc:format>
        <dc:type
           rdf:resource="http://purl.org/dc/dcmitype/StillImage" />
        <dc:title></dc:title>
      </cc:Work>
    </rdf:RDF>
  </metadata>
  <g
     inkscape:label="Livello 1"
     inkscape:groupmode="layer"
     id="layer1"
     transform="translate(-31.347062,-123.23684)">
    <g
       style="display:inline;opacity:1;stroke-width:0.75435442"
       transform="matrix(1.3401572,0,0,1.3112736,6.3813724,38.93997)"
       id="g2547">
      <g
         id="g2545"
         transform="matrix(1.3384107,0,0,1.4488867,367.8208,8.3959412)"
         style="display:inline;stroke-width:0.54170591">
        <path
           inkscape:connector-curvature="0"
           id="path2413"
           d="m -260.28334,38.98603 -0.61705,11.415477 0.51421,2.468211 1.43979,1.748316 -0.61706,44.324952 77.44012,-0.61705 0.51421,-44.222114 1.13126,-1.439789 0.10285,-3.702317 -1.33695,-10.387054 z"
           style="opacity:1;vector-effect:none;fill:#617e13;fill-opacity:1;stroke:none;stroke-width:0.81255895;stroke-linecap:butt;stroke-linejoin:miter;stroke-miterlimit:4;stroke-dasharray:none;stroke-dashoffset:0;stroke-opacity:1;paint-order:fill markers stroke" />
        <rect
           y="49.461815"
           x="-230.5498"
           height="35.851139"
           width="46.977352"
           id="rect2415"
           style="opacity:1;vector-effect:none;fill:#63632e;fill-opacity:1;stroke:none;stroke-width:0.81255871;stroke-linecap:butt;stroke-linejoin:miter;stroke-miterlimit:4;stroke-dasharray:none;stroke-dashoffset:0;stroke-opacity:1;paint-order:fill markers stroke" />
        <path
           sodipodi:nodetypes="ccccccscsccccc"
           inkscape:connector-curvature="0"
           id="path2417"
           d="m -221.89607,68.805434 c -2.90882,-4.07234 -3.34514,-6.181231 -2.03617,-6.981153 1.30896,-0.799926 3.34513,0.436321 4.2905,1.745287 0.94536,1.308967 1.23625,1.890731 1.23625,1.890731 0,0 -1.01809,-1.818011 -0.21817,-3.636018 0.79993,-1.818011 2.69066,-1.454407 3.70874,-0.218162 1.01809,1.236247 1.45441,4.290501 1.45441,5.308586 0,1.018085 -0.7272,-2.03617 0.7272,-3.199696 1.45441,-1.163526 2.78635,-1.41259 3.85418,-0.509043 1.88747,1.597086 1.59985,3.126976 0.21816,5.454029 -1.38168,2.32705 -2.90881,4.581382 -2.90881,4.581382 l -10.03541,-3.345138 -0.50904,-1.454406 z"
           style="opacity:1;vector-effect:none;fill:#799a1f;fill-opacity:1;stroke:none;stroke-width:0.81255895;stroke-linecap:butt;stroke-linejoin:miter;stroke-miterlimit:4;stroke-dasharray:none;stroke-dashoffset:0;stroke-opacity:1;paint-order:fill markers stroke" />
        <path
           inkscape:connector-curvature="0"
           id="path2419"
           d="m -227.7137,77.168276 -0.14544,-8.144679 h 17.08929 l 0.21816,8.726442 z"
           style="opacity:1;vector-effect:none;fill:#a27a4a;fill-opacity:1;stroke:none;stroke-width:0.81255895;stroke-linecap:butt;stroke-linejoin:miter;stroke-miterlimit:4;stroke-dasharray:none;stroke-dashoffset:0;stroke-opacity:1;paint-order:fill markers stroke" />
        <rect
           y="40.808094"
           x="-257.38361"
           height="8.5082827"
           width="74.102051"
           id="rect2421"
           style="opacity:1;vector-effect:none;fill:#efdf63;fill-opacity:1;stroke:none;stroke-width:0.81255895;stroke-linecap:butt;stroke-linejoin:miter;stroke-miterlimit:4;stroke-dasharray:none;stroke-dashoffset:0;stroke-opacity:1;paint-order:fill markers stroke" />
        <rect
           y="49.389099"
           x="-257.23816"
           height="43.777657"
           width="26.324772"
           id="rect2423"
           style="opacity:1;vector-effect:none;fill:#b0b053;fill-opacity:1;stroke:none;stroke-width:0.81255895;stroke-linecap:butt;stroke-linejoin:miter;stroke-miterlimit:4;stroke-dasharray:none;stroke-dashoffset:0;stroke-opacity:1;paint-order:fill markers stroke" />
        <rect
           y="85.603836"
           x="-230.62251"
           height="7.3447566"
           width="46.68647"
           id="rect2425"
           style="opacity:1;vector-effect:none;fill:#a27a4a;fill-opacity:1;stroke:none;stroke-width:0.81255895;stroke-linecap:butt;stroke-linejoin:miter;stroke-miterlimit:4;stroke-dasharray:none;stroke-dashoffset:0;stroke-opacity:1;paint-order:fill markers stroke" />
        <rect
           y="93.384918"
           x="-256.9473"
           height="2.617933"
           width="73.011238"
           id="rect2427"
           style="opacity:1;vector-effect:none;fill:#9e9a4b;fill-opacity:1;stroke:none;stroke-width:0.81255895;stroke-linecap:butt;stroke-linejoin:miter;stroke-miterlimit:4;stroke-dasharray:none;stroke-dashoffset:0;stroke-opacity:1;paint-order:fill markers stroke" />
        <path
           sodipodi:nodetypes="ccccccccccccccccccccccccccccccc"
           inkscape:connector-curvature="0"
           id="path2429"
           transform="matrix(0.26458333,0,0,0.26458333,-265.52829,-47.298512)"
           d="M 28.107604,330.16803 26.552826,549.38674 311.89435,546.27719 315.00391,334 l -3.88695,-4.99805 z m 4.562181,5.33177 H 307.72281 l -0.38869,26.61171 H 33.835869 Z m 2.332168,33.49825 h 89.999997 l 1.55478,159.27954 -91.554777,-0.77739 z m 100.001957,0 h 169.99804 l 1.55478,127.33607 -173.1076,1.55478 z m 0,135 170.38673,-0.3887 0.3887,22.33607 H 134.61521 Z m -100.001957,30 H 305.00195 v 5.0039 H 35.001953 Z"
           style="color:#000000;font-style:normal;font-variant:normal;font-weight:normal;font-stretch:normal;font-size:medium;line-height:normal;font-family:sans-serif;font-variant-ligatures:normal;font-variant-position:normal;font-variant-caps:normal;font-variant-numeric:normal;font-variant-alternates:normal;font-feature-settings:normal;text-indent:0;text-align:start;text-decoration:none;text-decoration-line:none;text-decoration-style:solid;text-decoration-color:#000000;letter-spacing:normal;word-spacing:normal;text-transform:none;writing-mode:lr-tb;direction:ltr;text-orientation:mixed;dominant-baseline:auto;baseline-shift:baseline;text-anchor:start;white-space:normal;shape-padding:0;clip-rule:nonzero;display:inline;overflow:visible;visibility:visible;opacity:1;isolation:auto;mix-blend-mode:normal;color-interpolation:sRGB;color-interpolation-filters:linearRGB;solid-color:#000000;solid-opacity:1;vector-effect:none;fill:#41411e;fill-opacity:1;fill-rule:nonzero;stroke:none;stroke-width:5.41705942;stroke-linecap:butt;stroke-linejoin:miter;stroke-miterlimit:4;stroke-dasharray:none;stroke-dashoffset:0;stroke-opacity:1;paint-order:fill markers stroke;color-rendering:auto;image-rendering:auto;shape-rendering:auto;text-rendering:auto;enable-background:accumulate" />
        <path
           inkscape:connector-curvature="0"
           id="path2431"
           d="m -199.57092,74.768504 c 0.29088,0.29088 0.65448,10.25357 0.65448,10.25357 l 14.76224,-0.21816 -0.0727,-11.271657 z"
           style="opacity:1;vector-effect:none;fill:#af8653;fill-opacity:1;stroke:none;stroke-width:0.81255895;stroke-linecap:butt;stroke-linejoin:miter;stroke-miterlimit:4;stroke-dasharray:none;stroke-dashoffset:0;stroke-opacity:1;paint-order:fill markers stroke" />
        <path
           inkscape:connector-curvature="0"
           id="path2433"
           d="m -230.40436,76.731954 -0.14544,7.999238 h 15.78032 l 0.58176,-8.362841 z"
           style="opacity:1;vector-effect:none;fill:#bd9a70;fill-opacity:1;stroke:none;stroke-width:0.81255895;stroke-linecap:butt;stroke-linejoin:miter;stroke-miterlimit:4;stroke-dasharray:none;stroke-dashoffset:0;stroke-opacity:1;paint-order:fill markers stroke" />
        <path
           inkscape:connector-curvature="0"
           id="path2435"
           d="m -215.13308,73.386817 0.0727,11.70798 16.28936,-0.218163 0.21816,-11.417096 z"
           style="opacity:1;vector-effect:none;fill:#cdb292;fill-opacity:1;stroke:none;stroke-width:0.81255895;stroke-linecap:butt;stroke-linejoin:miter;stroke-miterlimit:4;stroke-dasharray:none;stroke-dashoffset:0;stroke-opacity:1;paint-order:fill markers stroke" />
        <path
           inkscape:connector-curvature="0"
           id="path2437"
           d="m -253.82031,54.261363 v 12.653343 l 18.47097,-0.436322 0.50904,-12.289742 z"
           style="opacity:1;vector-effect:none;fill:#b6ce6f;fill-opacity:1;stroke:none;stroke-width:0.81255895;stroke-linecap:butt;stroke-linejoin:miter;stroke-miterlimit:4;stroke-dasharray:none;stroke-dashoffset:0;stroke-opacity:1;paint-order:fill markers stroke" />
        <path
           inkscape:connector-curvature="0"
           id="path2439"
           d="m -253.38399,68.950876 c 0.29088,0.07272 7.27204,-0.145442 7.27204,-0.145442 l 0.0727,4.799544 -7.27204,-0.07272 -0.29088,-4.654103 z"
           style="opacity:1;vector-effect:none;fill:#edda4c;fill-opacity:1;stroke:none;stroke-width:0.81255895;stroke-linecap:butt;stroke-linejoin:miter;stroke-miterlimit:4;stroke-dasharray:none;stroke-dashoffset:0;stroke-opacity:1;paint-order:fill markers stroke" />
        <path
           inkscape:connector-curvature="0"
           id="path2441"
           d="m -243.49402,68.441833 c -0.0727,0.29088 -0.0727,5.817629 -0.0727,5.817629 l 8.2174,-0.145441 v -5.672188 z"
           style="opacity:1;vector-effect:none;fill:#efdf63;fill-opacity:1;stroke:none;stroke-width:0.81255895;stroke-linecap:butt;stroke-linejoin:miter;stroke-miterlimit:4;stroke-dasharray:none;stroke-dashoffset:0;stroke-opacity:1;paint-order:fill markers stroke" />
        <g
           id="g2477"
           transform="matrix(-0.65111933,0,0,0.65111933,-374.18682,57.798158)"
           style="stroke-width:0.83196098">
          <circle
             style="opacity:1;vector-effect:none;fill:#806875;fill-opacity:1;stroke:none;stroke-width:1.24794161;stroke-linecap:butt;stroke-linejoin:miter;stroke-miterlimit:4;stroke-dasharray:none;stroke-dashoffset:0;stroke-opacity:1;paint-order:fill markers stroke"
             id="circle2443"
             cx="-275.0412"
             cy="23.971081"
             r="2.9824214" />
          <path
             inkscape:connector-curvature="0"
             id="path2445"
             d="m -280.42764,15.394989 c -0.30211,-3.436915 0.12084,-4.936658 2.47723,-6.3114276 2.35639,-1.3747665 0.96672,3.0619796 0.96672,3.0619796 0,0 2.11471,-3.9993204 4.59195,-3.4369142 2.47722,0.562405 -1.14799,5.4990642 -1.14799,5.4990642 0,0 1.93344,-1.312276 3.80647,-1.124809 1.87304,0.187468 -0.96672,4.624214 -2.90017,5.24911 -1.93345,0.624894 -6.28371,0.937341 -6.16286,0.687383 0.12083,-0.249957 -1.63135,-3.624386 -1.63135,-3.624386 z"
             style="opacity:1;vector-effect:none;fill:#93b926;fill-opacity:1;stroke:none;stroke-width:1.24794161;stroke-linecap:butt;stroke-linejoin:miter;stroke-miterlimit:4;stroke-dasharray:none;stroke-dashoffset:0;stroke-opacity:1;paint-order:fill markers stroke" />
          <circle
             r="2.571053"
             cy="28.444715"
             cx="-286.25098"
             id="circle2447"
             style="opacity:1;vector-effect:none;fill:#806875;fill-opacity:1;stroke:none;stroke-width:1.24794161;stroke-linecap:butt;stroke-linejoin:miter;stroke-miterlimit:4;stroke-dasharray:none;stroke-dashoffset:0;stroke-opacity:1;paint-order:fill markers stroke" />
          <circle
             r="3.0852637"
             cy="26.902086"
             cx="-282.08588"
             id="circle2449"
             style="opacity:1;vector-effect:none;fill:#806875;fill-opacity:1;stroke:none;stroke-width:1.24794161;stroke-linecap:butt;stroke-linejoin:miter;stroke-miterlimit:4;stroke-dasharray:none;stroke-dashoffset:0;stroke-opacity:1;paint-order:fill markers stroke" />
          <circle
             r="3.2395267"
             cy="22.119925"
             cx="-283.3714"
             id="circle2451"
             style="opacity:1;vector-effect:none;fill:#806875;fill-opacity:1;stroke:none;stroke-width:1.24794161;stroke-linecap:butt;stroke-linejoin:miter;stroke-miterlimit:4;stroke-dasharray:none;stroke-dashoffset:0;stroke-opacity:1;paint-order:fill markers stroke" />
          <circle
             r="2.4167898"
             cy="24.948078"
             cx="-286.71378"
             id="circle2453"
             style="opacity:1;vector-effect:none;fill:#806875;fill-opacity:1;stroke:none;stroke-width:1.24794161;stroke-linecap:butt;stroke-linejoin:miter;stroke-miterlimit:4;stroke-dasharray:none;stroke-dashoffset:0;stroke-opacity:1;paint-order:fill markers stroke" />
          <circle
             r="3.1366847"
             cy="23.868238"
             cx="-279.05206"
             id="circle2455"
             style="opacity:1;vector-effect:none;fill:#806875;fill-opacity:1;stroke:none;stroke-width:1.24794161;stroke-linecap:butt;stroke-linejoin:miter;stroke-miterlimit:4;stroke-dasharray:none;stroke-dashoffset:0;stroke-opacity:1;paint-order:fill markers stroke" />
          <circle
             r="2.8795793"
             cy="19.49745"
             cx="-283.11429"
             id="circle2457"
             style="opacity:1;vector-effect:none;fill:#806875;fill-opacity:1;stroke:none;stroke-width:1.24794161;stroke-linecap:butt;stroke-linejoin:miter;stroke-miterlimit:4;stroke-dasharray:none;stroke-dashoffset:0;stroke-opacity:1;paint-order:fill markers stroke" />
          <circle
             r="2.7767372"
             cy="16.206501"
             cx="-281.16028"
             id="circle2459"
             style="opacity:1;vector-effect:none;fill:#806875;fill-opacity:1;stroke:none;stroke-width:1.24794161;stroke-linecap:butt;stroke-linejoin:miter;stroke-miterlimit:4;stroke-dasharray:none;stroke-dashoffset:0;stroke-opacity:1;paint-order:fill markers stroke" />
          <circle
             r="2.9824214"
             cy="21.040081"
             cx="-276.12103"
             id="circle2461"
             style="opacity:1;vector-effect:none;fill:#806875;fill-opacity:1;stroke:none;stroke-width:1.24794161;stroke-linecap:butt;stroke-linejoin:miter;stroke-miterlimit:4;stroke-dasharray:none;stroke-dashoffset:0;stroke-opacity:1;paint-order:fill markers stroke" />
          <circle
             r="2.8281581"
             cy="16.977816"
             cx="-277.45798"
             id="circle2463"
             style="opacity:1;vector-effect:none;fill:#baa1b6;fill-opacity:1;stroke:none;stroke-width:1.24794161;stroke-linecap:butt;stroke-linejoin:miter;stroke-miterlimit:4;stroke-dasharray:none;stroke-dashoffset:0;stroke-opacity:1;paint-order:fill markers stroke" />
          <circle
             style="opacity:1;vector-effect:none;fill:#806875;fill-opacity:1;stroke:none;stroke-width:1.24794161;stroke-linecap:butt;stroke-linejoin:miter;stroke-miterlimit:4;stroke-dasharray:none;stroke-dashoffset:0;stroke-opacity:1;paint-order:fill markers stroke"
             id="circle2465"
             cx="-284.39981"
             cy="17.13208"
             r="2.7767372" />
          <circle
             r="2.6738954"
             cy="19.754555"
             cx="-281.00604"
             id="circle2467"
             style="opacity:1;vector-effect:none;fill:#9f819a;fill-opacity:1;stroke:none;stroke-width:1.24794161;stroke-linecap:butt;stroke-linejoin:miter;stroke-miterlimit:4;stroke-dasharray:none;stroke-dashoffset:0;stroke-opacity:1;paint-order:fill markers stroke" />
          <circle
             style="opacity:1;vector-effect:none;fill:#9f819a;fill-opacity:1;stroke:none;stroke-width:1.24794161;stroke-linecap:butt;stroke-linejoin:miter;stroke-miterlimit:4;stroke-dasharray:none;stroke-dashoffset:0;stroke-opacity:1;paint-order:fill markers stroke"
             id="circle2469"
             cx="-279.97763"
             cy="23.096922"
             r="2.6738954" />
          <circle
             style="opacity:1;vector-effect:none;fill:#9f819a;fill-opacity:1;stroke:none;stroke-width:1.24794161;stroke-linecap:butt;stroke-linejoin:miter;stroke-miterlimit:4;stroke-dasharray:none;stroke-dashoffset:0;stroke-opacity:1;paint-order:fill markers stroke"
             id="circle2471"
             cx="-285.32544"
             cy="25.719397"
             r="2.1082633" />
          <circle
             style="opacity:1;vector-effect:none;fill:#baa1b6;fill-opacity:1;stroke:none;stroke-width:1.24794161;stroke-linecap:butt;stroke-linejoin:miter;stroke-miterlimit:4;stroke-dasharray:none;stroke-dashoffset:0;stroke-opacity:1;paint-order:fill markers stroke"
             id="circle2473"
             cx="-282.1116"
             cy="23.89395"
             r="2.6996055" />
          <ellipse
             ry="1.9540005"
             rx="2.0568426"
             style="opacity:1;vector-effect:none;fill:#9f819a;fill-opacity:1;stroke:none;stroke-width:1.24794161;stroke-linecap:butt;stroke-linejoin:miter;stroke-miterlimit:4;stroke-dasharray:none;stroke-dashoffset:0;stroke-opacity:1;paint-order:fill markers stroke"
             id="ellipse2475"
             cx="-282.29156"
             cy="17.800556" />
        </g>
        <g
           style="stroke-width:1.45916092"
           transform="matrix(0.3427615,-0.10932137,0.10133503,0.36977496,-116.01132,8.5260487)"
           id="g2483">
          <path
             style="color:#000000;font-style:normal;font-variant:normal;font-weight:normal;font-stretch:normal;font-size:medium;line-height:normal;font-family:sans-serif;font-variant-ligatures:normal;font-variant-position:normal;font-variant-caps:normal;font-variant-numeric:normal;font-variant-alternates:normal;font-feature-settings:normal;text-indent:0;text-align:start;text-decoration:none;text-decoration-line:none;text-decoration-style:solid;text-decoration-color:#000000;letter-spacing:normal;word-spacing:normal;text-transform:none;writing-mode:lr-tb;direction:ltr;text-orientation:mixed;dominant-baseline:auto;baseline-shift:baseline;text-anchor:start;white-space:normal;shape-padding:0;clip-rule:nonzero;display:inline;overflow:visible;visibility:visible;opacity:1;isolation:auto;mix-blend-mode:normal;color-interpolation:sRGB;color-interpolation-filters:linearRGB;solid-color:#000000;solid-opacity:1;vector-effect:none;fill:#e26926;fill-opacity:1;fill-rule:nonzero;stroke:none;stroke-width:1.45916069;stroke-linecap:butt;stroke-linejoin:miter;stroke-miterlimit:4;stroke-dasharray:none;stroke-dashoffset:0;stroke-opacity:1;color-rendering:auto;image-rendering:auto;shape-rendering:auto;text-rendering:auto;enable-background:accumulate"
             d="m -141.4043,452.95898 c -0.0113,-10e-6 -0.022,0 -0.0371,0 -6.07789,0 -12.39479,1.62792 -17.23047,5.58008 -4.83563,3.95216 -8.14523,10.2393 -8.20703,19.3711 -0.18066,25.60744 15.14366,38.91431 21.76172,43.4414 1.76614,1.20803 3.92442,1.8086 6.37696,1.8086 5.64532,0 11.1916,-3.14974 11.55273,-3.35743 l 0.0234,-0.008 0.0137,-0.0156 c 0.008,-0.005 0.002,10e-4 0.0684,-0.0293 0.0665,-0.0306 0.16818,-0.0745 0.30273,-0.11719 0.26911,-0.0853 0.66398,-0.16992 1.16602,-0.16992 0.66693,0 1.37984,0.15389 2.11719,0.47266 0.92163,0.50543 6.06739,3.22254 11.31054,3.22461 2.45258,0 4.61082,-0.60057 6.37696,-1.8086 5.3529,-3.65738 18.087955,-14.30086 21.113278,-34.22265 l 0.441406,-2.90821 c 0.391376,-15.93962 -1.584427,-23.61131 -12.96875,-28.76758 -3.602074,-1.63403 -7.845964,-2.48632 -12.283204,-2.48632 -4.50221,0 -8.6938,1.1144 -11.90039,2.61328 -8.70952,4.12095 -12.30706,-4.86971 -19.99805,-2.6211 z"
             transform="matrix(0.26458333,0,0,0.26458333,-265.52829,-47.298512)"
             id="path2479"
             inkscape:connector-curvature="0"
             sodipodi:nodetypes="cscccscccccsccccccsccc" />
          <path
             style="opacity:1;vector-effect:none;fill:#93b926;fill-opacity:1;stroke:none;stroke-width:2.18874097;stroke-linecap:butt;stroke-linejoin:miter;stroke-miterlimit:4;stroke-dasharray:none;stroke-dashoffset:0;stroke-opacity:1;paint-order:fill markers stroke"
             d="m -302.82989,64.36061 c -2.7077,7.209651 1.54491,9.770212 4.94238,10.639227 2.26145,-5.879294 -3.10941,-9.957964 -4.94238,-10.639227 z"
             id="path2481"
             inkscape:connector-curvature="0" />
        </g>
        <g
           style="stroke-width:0.83196098"
           transform="matrix(0.65111933,0,0,0.65111933,-9.171689,64.706592)"
           id="g2519">
          <circle
             r="2.9824214"
             cy="23.971081"
             cx="-275.0412"
             id="circle2485"
             style="opacity:1;vector-effect:none;fill:#806875;fill-opacity:1;stroke:none;stroke-width:1.24794161;stroke-linecap:butt;stroke-linejoin:miter;stroke-miterlimit:4;stroke-dasharray:none;stroke-dashoffset:0;stroke-opacity:1;paint-order:fill markers stroke" />
          <path
             style="opacity:1;vector-effect:none;fill:#93b926;fill-opacity:1;stroke:none;stroke-width:1.24794161;stroke-linecap:butt;stroke-linejoin:miter;stroke-miterlimit:4;stroke-dasharray:none;stroke-dashoffset:0;stroke-opacity:1;paint-order:fill markers stroke"
             d="m -280.42764,15.394989 c -0.30211,-3.436915 0.12084,-4.936658 2.47723,-6.3114276 2.35639,-1.3747665 0.96672,3.0619796 0.96672,3.0619796 0,0 2.11471,-3.9993204 4.59195,-3.4369142 2.47722,0.562405 -1.14799,5.4990642 -1.14799,5.4990642 0,0 1.93344,-1.312276 3.80647,-1.124809 1.87304,0.187468 -0.96672,4.624214 -2.90017,5.24911 -1.93345,0.624894 -6.28371,0.937341 -6.16286,0.687383 0.12083,-0.249957 -1.63135,-3.624386 -1.63135,-3.624386 z"
             id="path2487"
             inkscape:connector-curvature="0" />
          <circle
             style="opacity:1;vector-effect:none;fill:#806875;fill-opacity:1;stroke:none;stroke-width:1.24794161;stroke-linecap:butt;stroke-linejoin:miter;stroke-miterlimit:4;stroke-dasharray:none;stroke-dashoffset:0;stroke-opacity:1;paint-order:fill markers stroke"
             id="circle2489"
             cx="-286.25098"
             cy="28.444715"
             r="2.571053" />
          <circle
             style="opacity:1;vector-effect:none;fill:#806875;fill-opacity:1;stroke:none;stroke-width:1.24794161;stroke-linecap:butt;stroke-linejoin:miter;stroke-miterlimit:4;stroke-dasharray:none;stroke-dashoffset:0;stroke-opacity:1;paint-order:fill markers stroke"
             id="circle2491"
             cx="-282.08588"
             cy="26.902086"
             r="3.0852637" />
          <circle
             style="opacity:1;vector-effect:none;fill:#806875;fill-opacity:1;stroke:none;stroke-width:1.24794161;stroke-linecap:butt;stroke-linejoin:miter;stroke-miterlimit:4;stroke-dasharray:none;stroke-dashoffset:0;stroke-opacity:1;paint-order:fill markers stroke"
             id="circle2493"
             cx="-283.3714"
             cy="22.119925"
             r="3.2395267" />
          <circle
             style="opacity:1;vector-effect:none;fill:#806875;fill-opacity:1;stroke:none;stroke-width:1.24794161;stroke-linecap:butt;stroke-linejoin:miter;stroke-miterlimit:4;stroke-dasharray:none;stroke-dashoffset:0;stroke-opacity:1;paint-order:fill markers stroke"
             id="circle2495"
             cx="-286.71378"
             cy="24.948078"
             r="2.4167898" />
          <circle
             style="opacity:1;vector-effect:none;fill:#806875;fill-opacity:1;stroke:none;stroke-width:1.24794161;stroke-linecap:butt;stroke-linejoin:miter;stroke-miterlimit:4;stroke-dasharray:none;stroke-dashoffset:0;stroke-opacity:1;paint-order:fill markers stroke"
             id="circle2497"
             cx="-279.05206"
             cy="23.868238"
             r="3.1366847" />
          <circle
             style="opacity:1;vector-effect:none;fill:#806875;fill-opacity:1;stroke:none;stroke-width:1.24794161;stroke-linecap:butt;stroke-linejoin:miter;stroke-miterlimit:4;stroke-dasharray:none;stroke-dashoffset:0;stroke-opacity:1;paint-order:fill markers stroke"
             id="circle2499"
             cx="-283.11429"
             cy="19.49745"
             r="2.8795793" />
          <circle
             style="opacity:1;vector-effect:none;fill:#806875;fill-opacity:1;stroke:none;stroke-width:1.24794161;stroke-linecap:butt;stroke-linejoin:miter;stroke-miterlimit:4;stroke-dasharray:none;stroke-dashoffset:0;stroke-opacity:1;paint-order:fill markers stroke"
             id="circle2501"
             cx="-281.16028"
             cy="16.206501"
             r="2.7767372" />
          <circle
             style="opacity:1;vector-effect:none;fill:#806875;fill-opacity:1;stroke:none;stroke-width:1.24794161;stroke-linecap:butt;stroke-linejoin:miter;stroke-miterlimit:4;stroke-dasharray:none;stroke-dashoffset:0;stroke-opacity:1;paint-order:fill markers stroke"
             id="circle2503"
             cx="-276.12103"
             cy="21.040081"
             r="2.9824214" />
          <circle
             style="opacity:1;vector-effect:none;fill:#baa1b6;fill-opacity:1;stroke:none;stroke-width:1.24794161;stroke-linecap:butt;stroke-linejoin:miter;stroke-miterlimit:4;stroke-dasharray:none;stroke-dashoffset:0;stroke-opacity:1;paint-order:fill markers stroke"
             id="circle2505"
             cx="-277.45798"
             cy="16.977816"
             r="2.8281581" />
          <circle
             r="2.7767372"
             cy="17.13208"
             cx="-284.39981"
             id="circle2507"
             style="opacity:1;vector-effect:none;fill:#806875;fill-opacity:1;stroke:none;stroke-width:1.24794161;stroke-linecap:butt;stroke-linejoin:miter;stroke-miterlimit:4;stroke-dasharray:none;stroke-dashoffset:0;stroke-opacity:1;paint-order:fill markers stroke" />
          <circle
             style="opacity:1;vector-effect:none;fill:#9f819a;fill-opacity:1;stroke:none;stroke-width:1.24794161;stroke-linecap:butt;stroke-linejoin:miter;stroke-miterlimit:4;stroke-dasharray:none;stroke-dashoffset:0;stroke-opacity:1;paint-order:fill markers stroke"
             id="circle2509"
             cx="-281.00604"
             cy="19.754555"
             r="2.6738954" />
          <circle
             r="2.6738954"
             cy="23.096922"
             cx="-279.97763"
             id="circle2511"
             style="opacity:1;vector-effect:none;fill:#9f819a;fill-opacity:1;stroke:none;stroke-width:1.24794161;stroke-linecap:butt;stroke-linejoin:miter;stroke-miterlimit:4;stroke-dasharray:none;stroke-dashoffset:0;stroke-opacity:1;paint-order:fill markers stroke" />
          <circle
             r="2.1082633"
             cy="25.719397"
             cx="-285.32544"
             id="circle2513"
             style="opacity:1;vector-effect:none;fill:#9f819a;fill-opacity:1;stroke:none;stroke-width:1.24794161;stroke-linecap:butt;stroke-linejoin:miter;stroke-miterlimit:4;stroke-dasharray:none;stroke-dashoffset:0;stroke-opacity:1;paint-order:fill markers stroke" />
          <circle
             r="2.6996055"
             cy="23.89395"
             cx="-282.1116"
             id="circle2515"
             style="opacity:1;vector-effect:none;fill:#baa1b6;fill-opacity:1;stroke:none;stroke-width:1.24794161;stroke-linecap:butt;stroke-linejoin:miter;stroke-miterlimit:4;stroke-dasharray:none;stroke-dashoffset:0;stroke-opacity:1;paint-order:fill markers stroke" />
          <ellipse
             cy="17.800556"
             cx="-282.29156"
             id="ellipse2517"
             style="opacity:1;vector-effect:none;fill:#9f819a;fill-opacity:1;stroke:none;stroke-width:1.24794161;stroke-linecap:butt;stroke-linejoin:miter;stroke-miterlimit:4;stroke-dasharray:none;stroke-dashoffset:0;stroke-opacity:1;paint-order:fill markers stroke"
             rx="2.0568426"
             ry="1.9540005" />
        </g>
        <g
           style="stroke-width:1.18663394"
           transform="matrix(-0.44552071,-0.09954568,-0.09954568,0.44552071,-328.55121,7.6300362)"
           id="g2525">
          <path
             style="color:#000000;font-style:normal;font-variant:normal;font-weight:normal;font-stretch:normal;font-size:medium;line-height:normal;font-family:sans-serif;font-variant-ligatures:normal;font-variant-position:normal;font-variant-caps:normal;font-variant-numeric:normal;font-variant-alternates:normal;font-feature-settings:normal;text-indent:0;text-align:start;text-decoration:none;text-decoration-line:none;text-decoration-style:solid;text-decoration-color:#000000;letter-spacing:normal;word-spacing:normal;text-transform:none;writing-mode:lr-tb;direction:ltr;text-orientation:mixed;dominant-baseline:auto;baseline-shift:baseline;text-anchor:start;white-space:normal;shape-padding:0;clip-rule:nonzero;display:inline;overflow:visible;visibility:visible;opacity:1;isolation:auto;mix-blend-mode:normal;color-interpolation:sRGB;color-interpolation-filters:linearRGB;solid-color:#000000;solid-opacity:1;vector-effect:none;fill:#e26926;fill-opacity:1;fill-rule:nonzero;stroke:none;stroke-width:1.18663394;stroke-linecap:butt;stroke-linejoin:miter;stroke-miterlimit:4;stroke-dasharray:none;stroke-dashoffset:0;stroke-opacity:1;color-rendering:auto;image-rendering:auto;shape-rendering:auto;text-rendering:auto;enable-background:accumulate"
             d="m -141.4043,452.95898 c -0.0113,-10e-6 -0.022,0 -0.0371,0 -6.07789,0 -12.39479,1.62792 -17.23047,5.58008 -4.83563,3.95216 -8.14523,10.2393 -8.20703,19.3711 -0.18066,25.60744 15.14366,38.91431 21.76172,43.4414 1.76614,1.20803 3.92442,1.8086 6.37696,1.8086 5.64532,0 11.1916,-3.14974 11.55273,-3.35743 l 0.0234,-0.008 0.0137,-0.0156 c 0.008,-0.005 0.002,10e-4 0.0684,-0.0293 0.0665,-0.0306 0.16818,-0.0745 0.30273,-0.11719 0.26911,-0.0853 0.66398,-0.16992 1.16602,-0.16992 0.66693,0 1.37984,0.15389 2.11719,0.47266 0.92163,0.50543 6.06739,3.22254 11.31054,3.22461 2.45258,0 4.61082,-0.60057 6.37696,-1.8086 5.3529,-3.65738 18.087955,-14.30086 21.113278,-34.22265 l 0.441406,-2.90821 c 0.391376,-15.93962 -1.584427,-23.61131 -12.96875,-28.76758 -3.602074,-1.63403 -7.845964,-2.48632 -12.283204,-2.48632 -4.50221,0 -8.6938,1.1144 -11.90039,2.61328 -8.70952,4.12095 -12.30706,-4.86971 -19.99805,-2.6211 z"
             transform="matrix(0.26458333,0,0,0.26458333,-265.52829,-47.298512)"
             id="path2521"
             inkscape:connector-curvature="0"
             sodipodi:nodetypes="cscccscccccsccccccsccc" />
          <path
             style="opacity:1;vector-effect:none;fill:#93b926;fill-opacity:1;stroke:none;stroke-width:1.77995074;stroke-linecap:butt;stroke-linejoin:miter;stroke-miterlimit:4;stroke-dasharray:none;stroke-dashoffset:0;stroke-opacity:1;paint-order:fill markers stroke"
             d="m -302.82989,64.36061 c -2.7077,7.209651 1.54491,9.770212 4.94238,10.639227 2.26145,-5.879294 -3.10941,-9.957964 -4.94238,-10.639227 z"
             id="path2523"
             inkscape:connector-curvature="0" />
        </g>
        <path
           inkscape:connector-curvature="0"
           id="path2527"
           d="m -220.79965,71.329309 a 0.96813455,0.84467666 55.418118 0 0 -0.14603,1.276482 0.96813455,0.84467666 55.418118 0 0 0.0392,0.05339 4.1186739,3.5335638 55.418118 0 0 0.17,4.665349 4.1186739,3.5335638 55.418118 0 0 4.8432,1.615354 1.0173617,0.88691051 55.418118 0 0 0.021,0.03397 1.0173617,0.88691051 55.418118 0 0 1.30763,0.33411 1.0173617,0.88691051 55.418118 0 0 0.15287,-1.340958 1.0173617,0.88691051 55.418118 0 0 -0.18564,-0.209383 4.1186739,3.5335638 55.418118 0 0 -0.32079,-4.44413 4.1186739,3.5335638 55.418118 0 0 -4.66063,-1.69845 0.96813455,0.84467666 55.418118 0 0 -1.22115,-0.285522 z"
           style="opacity:1;vector-effect:none;fill:#e7dc39;fill-opacity:1;stroke:none;stroke-width:0.81255895;stroke-linecap:butt;stroke-linejoin:miter;stroke-miterlimit:4;stroke-dasharray:none;stroke-dashoffset:0;stroke-opacity:1;paint-order:fill markers stroke" />
        <path
           style="opacity:1;vector-effect:none;fill:#e7dc39;fill-opacity:1;stroke:none;stroke-width:0.81255895;stroke-linecap:butt;stroke-linejoin:miter;stroke-miterlimit:4;stroke-dasharray:none;stroke-dashoffset:0;stroke-opacity:1;paint-order:fill markers stroke"
           d="m -220.29846,65.355293 a 0.84467666,0.96813455 39.939758 0 0 -1.26916,0.199927 0.84467666,0.96813455 39.939758 0 0 -0.041,0.05203 3.5335638,4.1186739 39.939758 0 0 -4.45077,1.408896 3.5335638,4.1186739 39.939758 0 0 -0.26424,5.09864 0.88691051,1.0173617 39.939758 0 0 -0.0271,0.0293 0.88691051,1.0173617 39.939758 0 0 0.027,1.34937 0.88691051,1.0173617 39.939758 0 0 1.33312,-0.210542 0.88691051,1.0173617 39.939758 0 0 0.15225,-0.234786 3.5335638,4.1186739 39.939758 0 0 4.19734,-1.49518 3.5335638,4.1186739 39.939758 0 0 0.39304,-4.944868 0.84467666,0.96813455 39.939758 0 0 -0.0507,-1.253059 z"
           id="path2529"
           inkscape:connector-curvature="0" />
        <g
           id="g2535"
           transform="matrix(0.45638337,0.01059538,-0.01059538,0.45638337,-71.723429,46.025226)"
           style="stroke-width:1.18663394">
          <path
             sodipodi:nodetypes="cscccscccccsccccccsccc"
             inkscape:connector-curvature="0"
             id="path2531"
             transform="matrix(0.26458333,0,0,0.26458333,-265.52829,-47.298512)"
             d="m -141.4043,452.95898 c -0.0113,-10e-6 -0.022,0 -0.0371,0 -6.07789,0 -12.39479,1.62792 -17.23047,5.58008 -4.83563,3.95216 -8.14523,10.2393 -8.20703,19.3711 -0.18066,25.60744 15.14366,38.91431 21.76172,43.4414 1.76614,1.20803 3.92442,1.8086 6.37696,1.8086 5.64532,0 11.1916,-3.14974 11.55273,-3.35743 l 0.0234,-0.008 0.0137,-0.0156 c 0.008,-0.005 0.002,10e-4 0.0684,-0.0293 0.0665,-0.0306 0.16818,-0.0745 0.30273,-0.11719 0.26911,-0.0853 0.66398,-0.16992 1.16602,-0.16992 0.66693,0 1.37984,0.15389 2.11719,0.47266 0.92163,0.50543 6.06739,3.22254 11.31054,3.22461 2.45258,0 4.61082,-0.60057 6.37696,-1.8086 5.3529,-3.65738 18.087955,-14.30086 21.113278,-34.22265 l 0.441406,-2.90821 c 0.391376,-15.93962 -1.584427,-23.61131 -12.96875,-28.76758 -3.602074,-1.63403 -7.845964,-2.48632 -12.283204,-2.48632 -4.50221,0 -8.6938,1.1144 -11.90039,2.61328 -8.70952,4.12095 -12.30706,-4.86971 -19.99805,-2.6211 z"
             style="color:#000000;font-style:normal;font-variant:normal;font-weight:normal;font-stretch:normal;font-size:medium;line-height:normal;font-family:sans-serif;font-variant-ligatures:normal;font-variant-position:normal;font-variant-caps:normal;font-variant-numeric:normal;font-variant-alternates:normal;font-feature-settings:normal;text-indent:0;text-align:start;text-decoration:none;text-decoration-line:none;text-decoration-style:solid;text-decoration-color:#000000;letter-spacing:normal;word-spacing:normal;text-transform:none;writing-mode:lr-tb;direction:ltr;text-orientation:mixed;dominant-baseline:auto;baseline-shift:baseline;text-anchor:start;white-space:normal;shape-padding:0;clip-rule:nonzero;display:inline;overflow:visible;visibility:visible;opacity:1;isolation:auto;mix-blend-mode:normal;color-interpolation:sRGB;color-interpolation-filters:linearRGB;solid-color:#000000;solid-opacity:1;vector-effect:none;fill:#e26926;fill-opacity:1;fill-rule:nonzero;stroke:none;stroke-width:1.18663394;stroke-linecap:butt;stroke-linejoin:miter;stroke-miterlimit:4;stroke-dasharray:none;stroke-dashoffset:0;stroke-opacity:1;color-rendering:auto;image-rendering:auto;shape-rendering:auto;text-rendering:auto;enable-background:accumulate" />
          <path
             inkscape:connector-curvature="0"
             id="path2533"
             d="m -302.82989,64.36061 c -2.7077,7.209651 1.54491,9.770212 4.94238,10.639227 2.26145,-5.879294 -3.10941,-9.957964 -4.94238,-10.639227 z"
             style="opacity:1;vector-effect:none;fill:#93b926;fill-opacity:1;stroke:none;stroke-width:1.77995074;stroke-linecap:butt;stroke-linejoin:miter;stroke-miterlimit:4;stroke-dasharray:none;stroke-dashoffset:0;stroke-opacity:1;paint-order:fill markers stroke" />
        </g>
        <path
           style="opacity:1;vector-effect:none;fill:#e7dc39;fill-opacity:1;stroke:none;stroke-width:0.81255895;stroke-linecap:butt;stroke-linejoin:miter;stroke-miterlimit:4;stroke-dasharray:none;stroke-dashoffset:0;stroke-opacity:1;paint-order:fill markers stroke"
           d="m -222.03224,75.167435 a 0.84467666,0.96813455 33.978254 0 0 -1.24153,0.33066 0.84467666,0.96813455 33.978254 0 0 -0.0354,0.056 3.5335638,4.1186739 33.978254 0 0 -4.28038,1.863535 3.5335638,4.1186739 33.978254 0 0 0.26674,5.098511 0.88691051,1.0173617 33.978254 0 0 -0.024,0.03196 0.88691051,1.0173617 33.978254 0 0 0.16698,1.33927 0.88691051,1.0173617 33.978254 0 0 1.30405,-0.347861 0.88691051,1.0173617 33.978254 0 0 0.12703,-0.249329 3.5335638,4.1186739 33.978254 0 0 4.01935,-1.92303 3.5335638,4.1186739 33.978254 0 0 -0.12265,-4.958948 0.84467666,0.96813455 33.978254 0 0 -0.1806,-1.241013 z"
           id="path2537"
           inkscape:connector-curvature="0" />
        <path
           style="opacity:0.556;vector-effect:none;fill:#ffffff;fill-opacity:1;stroke:none;stroke-width:0.81255895;stroke-linecap:butt;stroke-linejoin:miter;stroke-miterlimit:4;stroke-dasharray:none;stroke-dashoffset:0;stroke-opacity:1;paint-order:fill markers stroke"
           d="m -239.25214,50.350086 -17.07179,32.446688 0.10283,6.941843 23.75651,-34.709216 0.10286,-4.679315 z"
           id="path2539"
           inkscape:connector-curvature="0"
           sodipodi:nodetypes="cccccc" />
        <path
           sodipodi:nodetypes="csscscscscscscscscscscscscscssccccccccccccccc"
           inkscape:connector-curvature="0"
           id="path2541"
           d="m -259.92826,48.799901 v 2.203446 c 0,1.819613 1.25553,3.284501 2.81511,3.284501 1.55958,0 2.81512,-1.464888 2.81512,-3.284501 0,1.819613 1.25554,3.284501 2.81512,3.284501 1.55956,0 2.81511,-1.464888 2.81511,-3.284501 0,1.819613 1.25554,3.284501 2.81513,3.284501 1.55958,0 2.81512,-1.464888 2.81512,-3.284501 0,1.819613 1.25553,3.284501 2.81512,3.284501 1.55956,0 2.81511,-1.464888 2.81511,-3.284501 0,1.819613 1.25553,3.284501 2.81512,3.284501 1.55957,0 2.81512,-1.464888 2.81512,-3.284501 0,1.819613 1.25553,3.284501 2.81512,3.284501 1.55958,0 2.81512,-1.464888 2.81512,-3.284501 0,1.819613 1.25554,3.284501 2.81512,3.284501 1.55957,0 2.81511,-1.464888 2.81511,-3.284501 0,1.819613 1.25553,3.284501 2.81512,3.284501 1.55958,0 2.81513,-1.464888 2.81513,-3.284501 0,1.819613 1.25553,3.284501 2.81511,3.284501 1.55958,0 2.81512,-1.464888 2.81512,-3.284501 0,1.819613 1.25553,3.284501 2.81512,3.284501 1.55958,0 2.81512,-1.464888 2.81512,-3.284501 0,1.819613 1.25553,3.284501 2.81511,3.284501 1.55958,0 2.81512,-1.464888 2.81512,-3.284501 0,1.819613 1.25554,3.284501 2.81512,3.284501 1.55958,0 2.81512,-1.464888 2.81512,-3.284501 0,1.819613 1.25553,3.284501 2.81512,3.284501 1.55957,0 2.81512,-1.464888 2.81512,-3.284501 0,1.819613 1.25554,3.284501 2.81511,3.284501 1.55958,0 2.81512,-1.464888 2.81512,-3.284501 v -2.203446 h -5.63023 -5.63024 -5.63024 -5.63023 -5.63024 -5.63023 -5.63025 -5.63023 -5.63024 -5.63024 -5.63023 -5.63025 -5.63023 z"
           style="opacity:1;vector-effect:none;fill:#799a1f;fill-opacity:1;stroke:none;stroke-width:0.54170591;stroke-linecap:butt;stroke-linejoin:miter;stroke-miterlimit:4;stroke-dasharray:none;stroke-dashoffset:0;stroke-opacity:1;paint-order:fill markers stroke" />
        <path
           sodipodi:nodetypes="ccccc"
           inkscape:connector-curvature="0"
           id="path2543"
           d="m -259.46061,40.029407 77.23443,-0.411368 1.02842,9.255791 -78.67422,0.102842 z"
           style="opacity:1;vector-effect:none;fill:#93b926;fill-opacity:1;stroke:none;stroke-width:0.81255895;stroke-linecap:butt;stroke-linejoin:miter;stroke-miterlimit:4;stroke-dasharray:none;stroke-dashoffset:0;stroke-opacity:1;paint-order:fill markers stroke" />
      </g>
    </g>
  </g>
</svg>
