<?xml version="1.0" encoding="UTF-8" standalone="no"?>
<svg
   xmlns:dc="http://purl.org/dc/elements/1.1/"
   xmlns:cc="http://creativecommons.org/ns#"
   xmlns:rdf="http://www.w3.org/1999/02/22-rdf-syntax-ns#"
   xmlns:svg="http://www.w3.org/2000/svg"
   xmlns="http://www.w3.org/2000/svg"
   xml:space="preserve"
   width="56.693px"
   viewBox="0 0 56.693 56.693"
   version="1.1"
   id="Layer_1"
   height="56.693px"
   enable-background="new 0 0 56.693 56.693"><metadata
     id="metadata13"><rdf:RDF><cc:Work
         rdf:about=""><dc:format>image/svg+xml</dc:format><dc:type
           rdf:resource="http://purl.org/dc/dcmitype/StillImage" /><dc:title></dc:title></cc:Work></rdf:RDF></metadata><defs
     id="defs11" /><g
     style="fill:#b3b3b3;stroke-width:1.61914206"
     transform="matrix(0.61761101,0,0,0.61761101,-1.8650397,-0.00900263)"
     id="g6"><path
       style="fill:#b3b3b3;stroke-width:1.61914206"
       id="path2"
       d="m 41.777,30.517 c -0.062,-6.232 5.082,-9.221 5.312,-9.372 -2.891,-4.227 -7.395,-4.807 -8.998,-4.873 -3.83,-0.389 -7.477,2.256 -9.42,2.256 -1.939,0 -4.941,-2.199 -8.117,-2.143 -4.178,0.062 -8.029,2.43 -10.179,6.17 -4.339,7.527 -1.11,18.682 3.118,24.791 2.067,2.986 4.532,6.346 7.766,6.223 3.117,-0.123 4.293,-2.016 8.061,-2.016 3.768,0 4.826,2.016 8.123,1.953 3.352,-0.061 5.477,-3.043 7.527,-6.041 2.373,-3.469 3.35,-6.828 3.408,-6.998 -0.073,-0.034 -6.534,-2.509 -6.601,-9.95 z" /><path
       style="fill:#b3b3b3;stroke-width:1.61914206"
       id="path4"
       d="m 35.582,12.229 c 1.715,-2.082 2.877,-4.975 2.561,-7.855 -2.475,0.1 -5.471,1.645 -7.248,3.725 -1.592,1.846 -2.984,4.785 -2.611,7.613 2.761,0.214 5.577,-1.405 7.298,-3.483 z" /></g><g
     style="fill:#5fd35f;stroke-width:1.54870224"
     transform="matrix(0.64570192,0,0,0.64570192,22.665892,18.224495)"
     id="g828"><path
       style="fill:#5fd35f;stroke-width:1.54870224"
       d="M 35.021,8.568 35.568,7.749 36.105,6.941 37.314,5.128 C 37.462,4.905 37.402,4.605 37.181,4.456 36.956,4.307 36.656,4.367 36.507,4.591 L 35.212,6.535 34.667,7.352 34.114,8.18 C 32.362,7.501 30.409,7.12 28.346,7.12 26.285,7.12 24.332,7.501 22.58,8.18 L 22.03,7.352 21.485,6.535 20.188,4.59 C 20.04,4.367 19.739,4.307 19.515,4.455 19.293,4.603 19.233,4.904 19.381,5.127 l 1.208,1.813 0.539,0.808 0.547,0.819 c -4.115,1.916 -6.898,5.546 -6.898,9.701 h 27.142 c 0,-4.154 -2.783,-7.784 -6.898,-9.7 z m -12.489,5.823 c -0.805,0 -1.455,-0.651 -1.455,-1.454 0,-0.803 0.65,-1.453 1.455,-1.453 0.803,0 1.453,0.65 1.453,1.453 0,0.803 -0.65,1.454 -1.453,1.454 z m 11.631,0 c -0.803,0 -1.453,-0.651 -1.453,-1.454 0,-0.803 0.65,-1.453 1.453,-1.453 0.805,0 1.455,0.65 1.455,1.453 0,0.803 -0.65,1.454 -1.455,1.454 z"
       id="path820" /><path
       style="fill:#5fd35f;stroke-width:1.54870224"
       d="m 14.986,20.208 h -0.209 v 2.418 1.973 16.936 c 0,1.693 1.376,3.07 3.069,3.07 h 2.216 c -0.074,0.256 -0.116,0.527 -0.116,0.807 v 0.162 0.969 5.01 c 0,1.605 1.303,2.908 2.909,2.908 1.606,0 2.908,-1.303 2.908,-2.908 v -5.01 -0.969 -0.162 c 0,-0.279 -0.043,-0.551 -0.115,-0.807 h 5.4 c -0.074,0.256 -0.115,0.527 -0.115,0.807 v 0.162 0.969 5.01 c 0,1.605 1.303,2.908 2.908,2.908 1.605,0 2.908,-1.303 2.908,-2.908 v -5.01 -0.969 -0.162 c 0,-0.279 -0.041,-0.551 -0.115,-0.807 h 2.215 c 1.693,0 3.07,-1.377 3.07,-3.07 V 24.599 22.626 20.208 H 41.71 Z"
       id="path822" /><path
       style="fill:#5fd35f;stroke-width:1.54870224"
       d="m 9.929,20.208 c -1.606,0 -2.908,1.301 -2.908,2.909 v 12.439 c 0,1.605 1.302,2.908 2.908,2.908 1.605,0 2.908,-1.303 2.908,-2.908 v -12.44 c 0,-1.607 -1.302,-2.908 -2.908,-2.908 z"
       id="path824" /><path
       style="fill:#5fd35f;stroke-width:1.54870224"
       d="m 46.767,20.208 c -1.607,0 -2.908,1.301 -2.908,2.909 v 12.439 c 0,1.605 1.301,2.908 2.908,2.908 1.605,0 2.906,-1.303 2.906,-2.908 v -12.44 c 0,-1.607 -1.301,-2.908 -2.906,-2.908 z"
       id="path826" /></g></svg>